<svg xmlns="http://www.w3.org/2000/svg" width="80" height="80" viewBox="0 0 80 80"><circle fill="#F3797C" cx="40" cy="40" r="40"/><path fill-rule="evenodd" clip-rule="evenodd" fill="#FFF" d="M43.396 26.263h1.119c4.48 0 8.961-.002 13.441.003 1.857.002 3.172.977 3.597 2.67.074.297.087.616.087.927.005 8.006-.021 16.014.022 24.022.011 1.993-1.453 3.708-3.751 3.705-11.427-.026-22.854-.008-34.282-.01-2.283 0-3.734-1.487-3.732-3.768.003-7.931.005-15.862.005-23.791-.002-2.307 1.463-3.76 3.783-3.76 4.636.003 9.271 0 13.909 0h.605c-.148-.203-.229-.327-.321-.441-1.738-2.086-3.48-4.17-5.214-6.263-.176-.212-.339-.321-.655-.316-.972.013-1.725-.884-1.644-1.883.077-.958 1.001-1.648 2.004-1.506.919.135 1.548 1.062 1.386 2.001a.747.747 0 0 0 .141.537c2.1 2.539 4.212 5.063 6.325 7.59.344.41.783.413 1.129 0 2.112-2.527 4.224-5.055 6.323-7.59a.754.754 0 0 0 .131-.533c-.156-.981.495-1.909 1.438-2.007 1.047-.114 1.906.588 1.966 1.601.058.978-.749 1.796-1.751 1.798-.146 0-.34.072-.429.177-1.858 2.209-3.702 4.432-5.551 6.65-.016.028-.023.057-.081.187zm-6.085 3.43v.003c-3.465 0-6.928-.003-10.394 0-1.995.002-3.582 1.561-3.586 3.554-.008 5.759-.006 11.518.004 17.277.004 2.12 1.57 3.626 3.7 3.62 3.308-.008 6.617.003 9.926.003 3.588 0 7.178.017 10.769-.014 2.029-.017 3.514-1.521 3.519-3.541.018-5.822.01-11.642.006-17.464-.002-.791-.276-1.495-.773-2.109-.801-.991-1.867-1.337-3.104-1.335-3.356.015-6.711.006-10.067.006zm21.556 2.932a2.501 2.501 0 0 0-2.477-2.563c-1.36-.022-2.523 1.107-2.54 2.464a2.507 2.507 0 0 0 2.486 2.555 2.492 2.492 0 0 0 2.531-2.456z"/><path fill-rule="evenodd" clip-rule="evenodd" fill="#FFF" d="M33 35.546l10.394 6.002-10.394 6z"/><circle fill-rule="evenodd" clip-rule="evenodd" fill="none" stroke="#C16168" stroke-miterlimit="10" cx="39.917" cy="40.083" r="36.083"/></svg>