<?xml version="1.0" encoding="utf-8"?>
<!-- Generator: Adobe Illustrator 21.1.0, SVG Export Plug-In . SVG Version: 6.00 Build 0)  -->
<svg version="1.1" id="Capa_1" xmlns="http://www.w3.org/2000/svg" xmlns:xlink="http://www.w3.org/1999/xlink" x="0px" y="0px"
	 width="106.4px" height="331.9px" viewBox="0 0 106.4 331.9" style="enable-background:new 0 0 106.4 331.9;" xml:space="preserve"
	>
<polygon style="fill:#D5EFD3;" points="35.3,58.8 70.6,58.9 61.2,68.4 70.5,78 35,77.9 "/>
<polygon style="fill:#F2E6C9;" points="35.3,119.8 70.6,119.9 61.2,129.5 70.5,139 35,138.9 "/>
<polygon style="fill:#EFEEEA;" points="35.3,177.7 70.6,177.8 61.2,187.4 70.5,196.9 35,196.8 "/>
<polygon style="fill:#FBF4E9;" points="20.2,299.7 17.7,316.4 0.5,318.9 "/>
<polygon style="fill:#FBF4E9;" points="54.1,299.7 51.6,316.4 34.4,318.9 "/>
<polygon style="fill:#FBF4E9;" points="89.8,299.7 87.3,316.4 70.1,318.9 "/>
<g>
	<g>
		<path style="fill:#EAF4F0;" d="M74.6,2.7L44.5,29.9v7c0,0.2,0.1,0.3,0.1,0.5c0,0.1,0,0.1,0.1,0.2c0.2,0.3,0.5,0.4,0.8,0.4
			c0.2,0,0.3,0,0.5-0.1l5-3.1l11.8,8.8L74.6,2.7z M46.3,35.5v-4.3l3.2,2.4L46.3,35.5z"/>
	</g>
</g>
<g>
	<g>
		<path d="M74.6,2.7L30.2,19.2l14.3,10.7v7c0,0.2,0.1,0.3,0.1,0.5c0,0.1,0,0.1,0.1,0.2c0.2,0.3,0.5,0.4,0.8,0.4c0.2,0,0.3,0,0.5-0.1
			l5-3.1l11.8,8.8L74.6,2.7z M69.7,6.5L45.8,28.7l-11.9-8.9L69.7,6.5z M46.3,35.5v-4.3l3.2,2.4L46.3,35.5z M47.3,29.7L71.5,7.3
			l-9.7,33.3L47.3,29.7z"/>
	</g>
</g>
<g>
	<g>
		<path d="M34.3,78.1V97c0,0.5,0.3,0.9,0.8,0.9S36,97.5,36,97V78.6h34.5c0.1,0,0.3,0,0.4-0.1l0,0c0.2,0,0.5-0.1,0.6-0.3
			c0.4-0.3,0.4-0.9,0-1.2l-9.1-8.8l9.1-9c0.4-0.3,0.4-0.9,0-1.2c-0.2-0.2-0.5-0.3-0.8-0.2c-0.1,0-0.1,0-0.2,0H36v-0.9
			c0-0.5-0.4-0.9-0.9-0.9s-0.8,0.4-0.8,0.9v1.4c0,0.1-0.1,0.2-0.1,0.3s0,0.2,0.1,0.3v18.6 M36,59.5h32.7l-8.1,8.1
			c-0.2,0.2-0.3,0.4-0.3,0.7c0,0.2,0.1,0.5,0.3,0.7l8.2,8.1H36V59.5z"/>
	</g>
</g>
<g>
	<g>
		<path d="M62.4,129.2l9.1-9c0.4-0.3,0.4-0.9,0-1.2c-0.2-0.2-0.5-0.3-0.8-0.2c-0.1,0-0.1,0-0.2,0H36v-0.9c0-0.5-0.4-0.9-0.9-0.9
			s-0.8,0.4-0.8,0.9v1.4c0,0.1-0.1,0.2-0.1,0.3s0,0.2,0.1,0.3v18.6c0,0.1-0.1,0.2-0.1,0.3s0,0.2,0.1,0.3v19c0,0.5,0.3,0.9,0.8,0.9
			s0.9-0.4,0.9-0.9v-18.4h34.5c0.1,0,0.3,0,0.4-0.1l0,0c0.2,0,0.5-0.1,0.6-0.3c0.4-0.3,0.4-0.9,0-1.2L62.4,129.2z M36,120.5h32.7
			l-8.1,8.1c-0.2,0.2-0.3,0.4-0.3,0.7c0,0.2,0.1,0.5,0.3,0.7l8.2,8.1H36V120.5z"/>
	</g>
</g>
<g>
	<g>
		<path d="M62.4,187.4l9.1-9c0.4-0.3,0.4-0.9,0-1.2c-0.2-0.2-0.5-0.3-0.8-0.2c-0.1,0-0.1,0-0.2,0H36v-0.9c0-0.5-0.4-0.9-0.9-0.9
			s-0.8,0.4-0.8,0.9v1.4c0,0.1-0.1,0.2-0.1,0.3s0,0.2,0.1,0.3v18.6c0,0.1-0.1,0.2-0.1,0.3s0,0.2,0.1,0.3v18.9c0,0.5,0.3,0.9,0.8,0.9
			s0.9-0.4,0.9-0.9v-18.3h34.5c0.1,0,0.3,0,0.4-0.1l0,0c0.2,0,0.5-0.1,0.6-0.3c0.4-0.3,0.4-0.9,0-1.2L62.4,187.4z M36,178.7h32.7
			l-8.1,8.1c-0.2,0.2-0.3,0.4-0.3,0.7c0,0.2,0.1,0.5,0.3,0.7l8.2,8.1H36V178.7z"/>
	</g>
</g>
<g>
	<g>
		<g>
			<path style="fill:#EFEEEA;" d="M53.1,226.3c-2.2,0-4.2,1.5-4.8,3.6c-0.2,0.5-0.2,1-0.2,1.5c0,2.1,1,2.9,1.7,3.6
				c0.1,0.1,0.1,0.1,0.2,0.2c0.6,0.5,1,1,1.2,1.9v3c0,0.4,0.3,0.8,0.8,0.8h2.5c0.4,0,0.7-0.3,0.7-0.8v-2.8c0.3-0.9,0.7-1.4,1.1-1.8
				c0.4-0.3,0.8-0.6,1.1-1c0.4-0.5,0.7-1,0.9-1.6c0.2-0.5,0.3-1,0.3-1.6C58.4,228.6,56,226.3,53.1,226.3z M54.5,240.1
				c0,0.3-0.1,0.3-0.1,0.3h-2.5c-0.2,0-0.2-0.1-0.2-0.3v-0.3h2.8v-0.5h-2.8v-0.5h2.8V240.1L54.5,240.1z M57.6,232.7
				c-0.1,0.5-0.4,1-0.8,1.4c-0.3,0.3-0.6,0.7-1,0.9l0,0c-0.6,0.5-1,1.1-1.3,2.1v1.1h-2.8V237l0,0c-0.2-1.1-0.7-1.7-1.4-2.2
				c-0.1-0.1-0.1-0.1-0.2-0.2c-0.7-0.6-1.5-1.3-1.5-3.2c0-0.5,0.1-0.9,0.2-1.4c0.5-1.9,2.3-3.2,4.3-3.2c2.5,0,4.8,2.1,4.8,4.5
				C57.9,231.8,57.8,232.2,57.6,232.7z M53.2,231.2c-0.7,0-1.3,0.6-1.3,1.3c0,0.6,0.5,1.2,1.1,1.3v2.9h0.5v-2.9
				c0.6-0.1,1.1-0.6,1.1-1.3S54,231.2,53.2,231.2z M53.5,233.3v-0.8H53v0.8c-0.3-0.1-0.6-0.4-0.6-0.8c0-0.5,0.4-0.8,0.9-0.8
				s0.9,0.4,0.9,0.8C54.1,232.9,53.8,233.2,53.5,233.3z"/>
		</g>
	</g>
</g>
<g>
	<g>
		<path d="M59.9,259.4l-8.3,8.3l-7.7-7.7l-1.2,1.2l7.7,7.7l-8.3,8.3l1.2,1.2l8.3-8.3l8.3,8.3l1.2-1.2l-8.3-8.3l8.3-8.3L59.9,259.4z
			 M65.8,254.7c-7.8-7.8-20.5-7.8-28.4,0c-7.8,7.8-7.8,20.5,0,28.4c7.8,7.8,20.5,7.8,28.4,0C73.7,275.2,73.7,262.5,65.8,254.7z
			 M64.6,281.8c-7.1,7.1-18.7,7.1-25.8,0s-7.1-18.7,0-25.8c7.1-7.1,18.7-7.1,25.8,0C71.7,263.1,71.7,274.6,64.6,281.8z"/>
	</g>
</g>
<g>
	<g>
		<path d="M32.8,310.6l-11.3-11.2c-0.7-0.7-1.8-0.7-2.5,0L0.5,317.6c-0.7,0.7-0.7,1.8,0,2.5l11.3,11.2c0.7,0.7,1.8,0.7,2.5,0
			l18.5-18.2C33.5,312.4,33.5,311.3,32.8,310.6z M20.8,300.4L31.6,311H19.2L20.8,300.4z M19.5,300.5l-1.6,10.4h-0.1v0.6l-0.7,4.3
			l-15.6,2.3L19.5,300.5z M1.5,319.4l11.1-1.6v12.5L1.5,319.4z M13.7,330.3v-12.7l4.5-0.7l0.7-4.8H32c0,0,0,0.1-0.1,0.1L13.7,330.3z
			"/>
	</g>
</g>
<g>
	<g>
		<path d="M66.9,310.6l-11.3-11.2c-0.7-0.7-1.8-0.7-2.5,0l-18.5,18.2c-0.7,0.7-0.7,1.8,0,2.5l11.3,11.2c0.7,0.7,1.8,0.7,2.5,0
			l18.5-18.2C67.6,312.4,67.6,311.3,66.9,310.6z M54.9,300.4L65.7,311H53.3L54.9,300.4z M53.6,300.5L52,310.9h-0.1v0.6l-0.7,4.3
			l-15.6,2.3L53.6,300.5z M35.6,319.4l11.1-1.6v12.5L35.6,319.4z M47.8,330.3v-12.7l4.5-0.7l0.7-4.8h13.1c0,0,0,0.1-0.1,0.1
			L47.8,330.3z"/>
	</g>
</g>
<g>
	<g>
		<path d="M102.5,310.6l-11.3-11.2c-0.7-0.7-1.8-0.7-2.5,0l-18.4,18.2c-0.7,0.7-0.7,1.8,0,2.5l11.3,11.2c0.7,0.7,1.8,0.7,2.5,0
			l18.5-18.2C103.2,312.4,103.2,311.3,102.5,310.6z M90.4,300.4l10.8,10.6H88.8L90.4,300.4z M89.2,300.5l-1.6,10.4h-0.1v0.6
			l-0.7,4.3l-15.6,2.3L89.2,300.5z M71.1,319.4l11.1-1.6v12.5L71.1,319.4z M83.4,330.3v-12.7l4.5-0.7l0.7-4.8h13.1
			c0,0,0,0.1-0.1,0.1L83.4,330.3z"/>
	</g>
</g>
</svg>
