<?xml version="1.0" encoding="UTF-8"?>
<!-- Generator: Adobe Illustrator 19.2.1, SVG Export Plug-In . SVG Version: 6.00 Build 0)  -->
<svg version="1.1" id="Capa_1" xmlns="http://www.w3.org/2000/svg" xmlns:xlink="http://www.w3.org/1999/xlink" x="0px" y="0px" width="140.2px" height="1134.5px" viewBox="0 0 140.2 1134.5" style="enable-background:new 0 0 140.2 1134.5;" xml:space="preserve">
<style type="text/css">
	.st0{display:none;}
	.st1{display:inline;}
	.st2{fill:#FFFFFF;}
	.st3{fill:#676464;}
	.st4{fill:#E46977;}
	.st5{fill:#19B5BC;}
	.st6{fill:#E56977;}
	.st7{fill:none;stroke:#676464;stroke-width:1.5;stroke-linecap:round;stroke-linejoin:round;stroke-miterlimit:10;}
	.st8{fill:none;stroke:#676464;stroke-linecap:round;stroke-linejoin:round;stroke-miterlimit:10;}
	.st9{fill:#FFFFFF;stroke:#676464;stroke-width:1.5;stroke-linecap:round;stroke-linejoin:round;stroke-miterlimit:10;}
	.st10{fill:#E56977;stroke:#676464;stroke-width:1.5;stroke-linecap:round;stroke-linejoin:round;stroke-miterlimit:10;}
	.st11{fill:none;stroke:#676464;stroke-width:1.5;stroke-miterlimit:10;}
	.st12{fill:none;}
	.st13{fill:none;stroke:#676464;stroke-width:1.5;stroke-linejoin:round;stroke-miterlimit:10;}
	
		.st14{fill-rule:evenodd;clip-rule:evenodd;fill:none;stroke:#676464;stroke-width:1.5;stroke-linecap:round;stroke-linejoin:round;stroke-miterlimit:10;}
</style>
<g id="Modo_de_aislamiento" class="st0">
	<g class="st1">
		<g>
			<g>
				<path class="st2" d="M-470.7,114.5c-12.8-12.8-13.9-34.5-1.1-47.2c12.7-12.8,33.3-11.7,46.1,1.1c12.7,12.7,13.8,33.3,1.1,46.1      c-6.1,6.1-16.4,6.1-22.5,0l-12.4-12.4c-2.2-2.2-3.4-2.2-4.5-1.1s-1.1,3.4,1.1,5.6s2.2,5.7,0,7.9      C-465.1,116.7-468.5,116.7-470.7,114.5z"/>
				<path class="st3" d="M-435.9,119.8c-4.5,0-8.7-1.7-11.8-4.8l-12.3-12.4c-1.1-1.1-1.9-1.6-2.5-1.6c-0.2,0-0.5,0.1-0.9,0.5      c-0.9,0.9-0.7,2.7,1.1,4.6c2.5,2.5,2.5,6.4,0,8.9c-1.2,1.2-2.8,1.9-4.5,1.9s-3.3-0.7-4.5-1.9c-6.2-6.3-10-15-10.3-24.1      c-0.3-9.3,3-17.9,9.2-24.2c6-5.9,14-9.2,22.5-9.2c9.1,0,18.1,3.8,24.7,10.3c13.3,13.3,13.8,34.5,1.1,47.2      C-427.2,118.1-431.4,119.8-435.9,119.8z M-462.5,99.5c1,0,2.1,0.6,3.6,2.1l12.4,12.4c2.8,2.8,6.6,4.3,10.7,4.3s7.9-1.5,10.7-4.3      c12.1-12.1,11.6-32.3-1.1-45c-6.3-6.3-14.9-9.9-23.6-9.9c-8.1,0-15.8,3.1-21.4,8.8c-5.9,5.9-9.1,14.1-8.8,23.1      c0.3,8.7,3.9,17.1,9.9,23.1c0.9,0.9,2.1,1.4,3.4,1.4s2.5-0.5,3.4-1.4c1.9-1.9,1.9-4.9,0-6.8c-2.6-2.6-2.5-5.3-1.1-6.7      C-463.9,99.8-463.2,99.5-462.5,99.5z"/>
			</g>
			<g>
				<path class="st3" d="M-436.2,82.1c-1.4,0-2.7-0.5-3.7-1.5s-1.5-2.3-1.5-3.7c0-1.4,0.5-2.7,1.5-3.7s2.3-1.5,3.7-1.5      c1.4,0,2.7,0.5,3.7,1.5s1.5,2.3,1.5,3.7c0,1.4-0.5,2.7-1.5,3.7C-433.5,81.5-434.8,82.1-436.2,82.1z M-436.2,73.1      c-1,0-1.9,0.4-2.6,1.1s-1.1,1.6-1.1,2.7c0,1,0.4,1.9,1.1,2.7c0.7,0.7,1.6,1.1,2.7,1.1c1,0,1.9-0.4,2.7-1.1      c0.7-0.7,1.1-1.7,1.1-2.7s-0.4-1.9-1.1-2.7C-434.3,73.5-435.2,73.1-436.2,73.1z"/>
			</g>
			<g>
				<path class="st3" d="M-428.4,95c-1.1,0-2.1-0.4-2.9-1.2c-1.6-1.6-1.6-4.2,0-5.8c0.8-0.8,1.8-1.2,2.9-1.2s2.1,0.4,2.9,1.2      c1.6,1.6,1.6,4.2,0,5.8C-426.2,94.6-427.3,95-428.4,95z M-428.4,88.2c-0.7,0-1.4,0.3-1.9,0.8c-1,1-1,2.7,0,3.7s2.7,1,3.7,0      s1-2.7,0-3.7C-427,88.5-427.7,88.2-428.4,88.2z"/>
			</g>
			<g>
				<path class="st3" d="M-436.2,111.3c-1.7,0-3.3-0.7-4.5-1.9c-1.2-1.2-1.9-2.8-1.9-4.5s0.7-3.3,1.9-4.5c1.2-1.2,2.8-1.9,4.5-1.9      s3.3,0.7,4.5,1.9c1.2,1.2,1.9,2.8,1.9,4.5s-0.7,3.3-1.9,4.5S-434.5,111.3-436.2,111.3z M-436.2,100c-1.3,0-2.5,0.5-3.4,1.4      s-1.4,2.1-1.4,3.4s0.5,2.5,1.4,3.4s2.1,1.4,3.4,1.4s2.5-0.5,3.4-1.4s1.4-2.1,1.4-3.4s-0.5-2.5-1.4-3.4S-434.9,100-436.2,100z"/>
			</g>
			<g>
				<path class="st3" d="M-453.9,79.1c-1.4,0-2.7-0.5-3.7-1.5s-1.5-2.3-1.5-3.7s0.5-2.7,1.5-3.7s2.3-1.5,3.7-1.5s2.7,0.5,3.7,1.5      s1.5,2.3,1.5,3.7s-0.5,2.7-1.5,3.7C-451.1,78.5-452.5,79.1-453.9,79.1z M-453.9,70.1c-1,0-1.9,0.4-2.7,1.1      c-0.7,0.7-1.1,1.6-1.1,2.6s0.4,1.9,1.1,2.7c0.7,0.7,1.6,1.1,2.7,1.1c1,0,1.9-0.4,2.6-1.1s1.1-1.6,1.1-2.7c0-1-0.4-1.9-1.1-2.6      C-451.9,70.5-452.9,70.1-453.9,70.1z"/>
			</g>
		</g>
		<g>
			<g>
				<g>
					<path class="st2" d="M-436.4,206c-13.5,0-24.4-11-24.4-24.4c0-13.5,11-24.4,24.4-24.4s24.4,11,24.4,24.4       C-411.9,195-422.8,206-436.4,206z M-436.4,162.5c-10.5,0-18.9,8.5-18.9,18.9s8.5,18.9,18.9,18.9c10.5,0,18.9-8.5,18.9-18.9       C-417.4,171.1-425.8,162.5-436.4,162.5z"/>
					<path class="st3" d="M-436.4,206.8c-13.8,0-25.2-11.3-25.2-25.2c0-13.8,11.3-25.2,25.2-25.2s25.2,11.3,25.2,25.2       C-411.2,195.4-422.5,206.8-436.4,206.8z M-436.4,157.8c-13.1,0-23.8,10.7-23.8,23.8s10.7,23.8,23.8,23.8s23.8-10.7,23.8-23.8       C-412.6,168.4-423.2,157.8-436.4,157.8z M-436.4,201.3c-10.8,0-19.7-8.8-19.7-19.7s8.8-19.7,19.7-19.7s19.7,8.8,19.7,19.7       C-416.6,192.4-425.5,201.3-436.4,201.3z M-436.4,163.3c-10.1,0-18.3,8.2-18.3,18.3s8.2,18.3,18.3,18.3s18.3-8.2,18.3-18.3       S-426.3,163.3-436.4,163.3z"/>
				</g>
			</g>
			<g>
				<g>
					<path class="st2" d="M-460,206c-13.5,0-24.4-11-24.4-24.4c0-13.5,11-24.4,24.4-24.4s24.4,11,24.4,24.4S-446.5,206-460,206z        M-460,162.5c-10.5,0-18.9,8.5-18.9,18.9s8.5,18.9,18.9,18.9s18.9-8.5,18.9-18.9C-441,171.1-449.5,162.5-460,162.5z"/>
					<path class="st3" d="M-460,206.8c-13.8,0-25.2-11.3-25.2-25.2c0-13.8,11.3-25.2,25.2-25.2c13.9,0,25.2,11.3,25.2,25.2       C-434.8,195.4-446.1,206.8-460,206.8z M-460,157.8c-13.1,0-23.8,10.7-23.8,23.8s10.7,23.8,23.8,23.8       c13.1,0,23.8-10.7,23.8-23.8C-436.2,168.4-446.9,157.8-460,157.8z M-460,201.3c-10.8,0-19.7-8.8-19.7-19.7s8.8-19.7,19.7-19.7       s19.7,8.8,19.7,19.7S-449.1,201.3-460,201.3z M-460,163.3c-10.1,0-18.3,8.2-18.3,18.3s8.2,18.3,18.3,18.3s18.3-8.2,18.3-18.3       S-449.9,163.3-460,163.3z"/>
				</g>
			</g>
			<g>
				<g>
					<path class="st4" d="M-438.8,143.1c0-2.9-2.4-5.1-5.1-5.1c-2,0-3.7,1.1-4.6,2.7c-0.9-1.6-2.6-2.7-4.6-2.7       c-2.9,0-5.1,2.2-5.1,5.1c0,1.4,0.5,2.6,1.5,3.6l8.4,8.4l8.2-8.2C-439.3,145.7-438.8,144.4-438.8,143.1"/>
					<path class="st3" d="M-448.5,155.7c-0.1,0-0.4-0.1-0.5-0.2l-8.2-8.4c-1.1-1.1-1.6-2.5-1.6-4.1c0-3.2,2.6-5.9,5.9-5.9       c1.7,0,3.5,0.9,4.6,2.1c1.1-1.4,2.7-2.1,4.6-2.1c3.2,0,5.9,2.6,5.9,5.9c0,1.5-0.6,3-1.6,4.1l-8.2,8.2       C-448.1,155.5-448.3,155.7-448.5,155.7L-448.5,155.7z M-453,138.6c-2.5,0-4.5,2-4.5,4.5c0,1.1,0.5,2.2,1.2,3.1l7.7,7.9l7.7-7.7       c0.7-0.9,1.2-1.9,1.2-3.1c0-2.5-2-4.5-4.5-4.5c-1.6,0-3.1,0.9-4,2.4c0,0.1-0.2,0.2-0.5,0.2l0,0c-0.2,0-0.5-0.1-0.6-0.4       C-449.9,139.5-451.4,138.6-453,138.6z"/>
				</g>
			</g>
		</g>
		<g>
			<g>
				<path class="st3" d="M-421.1,272.8c-6.1,0-11.2-5-11.2-11.2c0-6.1,5-11.2,11.2-11.2c6.1,0,11.2,5,11.2,11.2      C-410,267.8-415,272.8-421.1,272.8z M-421.1,251.7c-5.5,0-10,4.5-10,10s4.5,10,10,10s10-4.5,10-10S-415.6,251.7-421.1,251.7z"/>
			</g>
			<g>
				<g>
					<path class="st2" d="M-450.7,254.4v-15.5v-0.1c0.2-2.2,0-4.5-0.9-6.7c-2.9-7.3-11.2-10.9-18.5-8c-5.5,2.2-8.9,7.4-9,12.9v0.3       v0.5v16.7"/>
					<path class="st3" d="M-479.1,255L-479.1,255c-0.3,0-0.6-0.3-0.6-0.6l0.1-17.2v-0.3c0.1-6,3.8-11.3,9.3-13.4       c3.7-1.5,7.7-1.4,11.3,0.2c3.6,1.6,6.4,4.4,7.9,8.1c0.9,2.2,1.2,4.6,1,7v0.1v15.4c0,0.3-0.3,0.6-0.6,0.6s-0.6-0.3-0.6-0.6       v-15.5v-0.1v-0.1c0.2-2.1-0.1-4.4-0.9-6.4c-1.3-3.4-3.9-6.1-7.3-7.5c-3.3-1.4-7.1-1.5-10.5-0.2c-5.1,2-8.5,6.9-8.6,12.4v0.3       v17.3C-478.6,254.8-478.8,255-479.1,255z"/>
				</g>
				<g>
					<path class="st2" d="M-458.4,250c-0.4,0.2-0.8,0.4-1.3,0.6c-4,1.6-8.2,1.2-11.8-0.6c-8.4,2.7-14.6,10.7-14.6,20h42.1       C-443.9,260.6-449.9,252.7-458.4,250z"/>
					<path class="st3" d="M-443.9,270.5h-42c-0.3,0-0.6-0.3-0.6-0.6c0-9.4,6-17.7,14.9-20.6c0.1,0,0.3,0,0.4,0       c3.5,1.8,7.7,2,11.3,0.6c0.4-0.2,0.8-0.3,1.2-0.6c0.1-0.1,0.3-0.1,0.4,0c8.9,2.9,14.9,11.2,14.9,20.5       C-443.3,270.3-443.6,270.5-443.9,270.5z M-485.4,269.4h40.9c-0.2-8.6-5.7-16.1-13.9-18.8c-0.4,0.2-0.7,0.4-1.1,0.5       c-3.9,1.5-8.3,1.3-12-0.5C-479.6,253.3-485.1,260.8-485.4,269.4z"/>
				</g>
				<g>
					<path class="st2" d="M-479.1,270h28.4v-15.6c-0.7-0.6-1.4-1.2-2.2-1.8c-1.4,1.1-3,2-4.7,2.7c-6.6,2.6-13.9,1.3-19.1-2.8       c-0.8,0.6-1.6,1.2-2.3,1.9L-479.1,270L-479.1,270L-479.1,270z"/>
					<path class="st3" d="M-450.7,270.5h-28.4c-0.3,0-0.6-0.3-0.6-0.6v-15.4c0-0.2,0.1-0.3,0.2-0.4c0.7-0.7,1.5-1.3,2.4-1.9       c0.2-0.1,0.5-0.1,0.7,0c3.3,2.6,7.4,4,11.6,4c2.4,0,4.7-0.4,6.9-1.3c1.7-0.7,3.2-1.5,4.6-2.6c0.2-0.2,0.5-0.2,0.7,0       c0.8,0.6,1.6,1.2,2.3,1.8c0.1,0.1,0.2,0.3,0.2,0.4v15.6C-450.2,270.3-450.4,270.5-450.7,270.5z M-478.6,269.4h27.3v-14.7       c-0.5-0.5-1.1-0.9-1.6-1.3c-1.4,1-2.9,1.9-4.6,2.5c-2.4,0.9-4.8,1.4-7.4,1.4c-4.3,0-8.5-1.4-12-4c-0.6,0.4-1.2,0.9-1.8,1.4       L-478.6,269.4L-478.6,269.4z"/>
				</g>
				<g>
					<g>
						<path class="st2" d="M-453.5,245c-2.1-2.3-4.6-5.8-4.8-9.7c-5.5,7.9-13.3,10.1-17.2,10.7c0,0,3.7,5.6,10.7,5.6        C-457,251.6-453.5,245.2-453.5,245z"/>
						<path class="st3" d="M-464.8,252.1c-7.2,0-11-5.6-11.2-5.9c-0.1-0.2-0.1-0.4,0-0.5c0.1-0.2,0.2-0.3,0.4-0.3        c4-0.6,11.5-2.8,16.8-10.5c0.1-0.2,0.4-0.3,0.6-0.2s0.4,0.3,0.4,0.5c0.2,3.7,2.7,7.2,4.7,9.4c0.1,0.1,0.1,0.2,0.1,0.4        C-452.9,245.4-456.6,252.1-464.8,252.1z M-474.5,246.4c1.2,1.5,4.5,4.6,9.7,4.6c6.7,0,10-4.8,10.7-6c-1.8-2.1-3.9-5-4.5-8.3        C-463.8,243.3-470.4,245.6-474.5,246.4z"/>
					</g>
				</g>
				<g>
					<path class="st3" d="M-457.4,245c-0.1,0-0.3-0.1-0.3-0.2c-0.4-0.8-1.3-1.4-2.2-1.4s-1.8,0.5-2.2,1.4c-0.1,0.2-0.3,0.3-0.5,0.2       s-0.3-0.3-0.2-0.5c0.5-1.1,1.6-1.8,2.9-1.8c1.2,0,2.3,0.7,2.9,1.8c0.1,0.2,0,0.4-0.2,0.5C-457.3,245-457.4,245-457.4,245z"/>
				</g>
			</g>
			<g>
				<g>
					<path class="st3" d="M-421.1,245.6c-6.1,0-11.2-5-11.2-11.2c0-6.1,5-11.2,11.2-11.2c6.1,0,11.2,5,11.2,11.2       C-410,240.6-415,245.6-421.1,245.6z M-421.1,224.4c-5.5,0-10,4.5-10,10s4.5,10,10,10s10-4.5,10-10S-415.6,224.4-421.1,224.4z"/>
				</g>
				<g>
					<path class="st5" d="M-423.4,238.2c-0.1,0-0.3-0.1-0.4-0.2l-2.3-2.3c-0.2-0.2-0.2-0.6,0-0.8s0.6-0.2,0.8,0l1.9,1.9l6.5-6.1       c0.2-0.2,0.6-0.2,0.8,0c0.2,0.2,0.2,0.6,0,0.8l-6.9,6.4C-423.1,238.2-423.3,238.2-423.4,238.2z"/>
				</g>
			</g>
			<g>
				<path class="st6" d="M-417,266.4c-0.1,0-0.3-0.1-0.4-0.2l-8.3-8.3c-0.2-0.2-0.2-0.6,0-0.8c0.2-0.2,0.6-0.2,0.8,0l8.3,8.3      c0.2,0.2,0.2,0.6,0,0.8C-416.7,266.3-416.8,266.4-417,266.4z"/>
			</g>
			<g>
				<path class="st6" d="M-425.3,266.4c-0.1,0-0.3-0.1-0.4-0.2c-0.2-0.2-0.2-0.6,0-0.8l8.3-8.3c0.2-0.2,0.6-0.2,0.8,0      c0.2,0.2,0.2,0.6,0,0.8l-8.3,8.3C-425,266.3-425.1,266.4-425.3,266.4z"/>
			</g>
		</g>
		<g>
			<g>
				<path class="st3" d="M-452,317.2h-19.7c-0.3,0-0.6-0.3-0.6-0.6V297c0-0.3,0.3-0.6,0.6-0.6h19.6c0.3,0,0.6,0.3,0.6,0.6v19.6      C-451.5,316.9-451.7,317.2-452,317.2z M-471.1,316h18.5v-18.5h-18.5V316z"/>
			</g>
			<g>
				<path class="st3" d="M-452,317.2h-19.7c-0.3,0-0.6-0.3-0.6-0.6V297c0-0.3,0.3-0.6,0.6-0.6h19.6c0.3,0,0.6,0.3,0.6,0.6v19.6      C-451.5,316.9-451.7,317.2-452,317.2z M-471.1,316h18.5v-18.5h-18.5V316z"/>
			</g>
			<g>
				<path class="st3" d="M-452,317.2h-19.7c-0.3,0-0.6-0.3-0.6-0.6V297c0-0.3,0.3-0.6,0.6-0.6h19.6c0.3,0,0.6,0.3,0.6,0.6v19.6      C-451.5,316.9-451.7,317.2-452,317.2z M-471.1,316h18.5v-18.5h-18.5V316z"/>
			</g>
			<g>
				<path class="st3" d="M-424.8,317.2h-19.6c-0.3,0-0.6-0.3-0.6-0.6V297c0-0.3,0.3-0.6,0.6-0.6h19.6c0.3,0,0.6,0.3,0.6,0.6v19.6      C-424.2,316.9-424.5,317.2-424.8,317.2z M-443.9,316h18.5v-18.5h-18.5V316z"/>
			</g>
			<g>
				<path class="st3" d="M-452,344.3h-19.7c-0.3,0-0.6-0.3-0.6-0.6v-19.6c0-0.3,0.3-0.6,0.6-0.6h19.6c0.3,0,0.6,0.3,0.6,0.6v19.6      C-451.5,344.1-451.7,344.3-452,344.3z M-471.1,343.2h18.5v-18.5h-18.5V343.2z"/>
			</g>
			<g>
				<path class="st3" d="M-452,344.3h-19.7c-0.3,0-0.6-0.3-0.6-0.6v-19.6c0-0.3,0.3-0.6,0.6-0.6h19.6c0.3,0,0.6,0.3,0.6,0.6v19.6      C-451.5,344.1-451.7,344.3-452,344.3z M-471.1,343.2h18.5v-18.5h-18.5V343.2z"/>
			</g>
			<g>
				<path class="st3" d="M-452,344.3h-19.7c-0.3,0-0.6-0.3-0.6-0.6v-19.6c0-0.3,0.3-0.6,0.6-0.6h19.6c0.3,0,0.6,0.3,0.6,0.6v19.6      C-451.5,344.1-451.7,344.3-452,344.3z M-471.1,343.2h18.5v-18.5h-18.5V343.2z"/>
			</g>
			<g>
				<path class="st3" d="M-424.8,344.3h-19.6c-0.3,0-0.6-0.3-0.6-0.6v-19.6c0-0.3,0.3-0.6,0.6-0.6h19.6c0.3,0,0.6,0.3,0.6,0.6v19.6      C-424.2,344.1-424.5,344.3-424.8,344.3z M-443.9,343.2h18.5v-18.5h-18.5V343.2z"/>
			</g>
			<g>
				<path class="st5" d="M-436,311.1c-0.2,0-0.4-0.1-0.5-0.2l-3.2-3.2c-0.3-0.3-0.3-0.8,0-1.1c0.3-0.3,0.8-0.3,1.1,0l2.6,2.6l6-7.5      c0.3-0.3,0.7-0.4,1.1-0.1c0.3,0.3,0.4,0.7,0.1,1.1l-6.6,8.2C-435.6,311-435.7,311.1-436,311.1L-436,311.1z"/>
			</g>
		</g>
		<g>
			<g>
				<path class="st2" d="M-459.3,435.6c1,1,1,2.7,0,3.7l-5.1,5.1c-1,1-2.7,1-3.7,0l-5.1-5.1c-1-1-1-2.7,0-3.7l5.1-5.1      c1-1,2.7-1,3.7,0L-459.3,435.6z"/>
				<path class="st3" d="M-466.2,445.6c-0.8,0-1.6-0.3-2.2-0.9l-5.1-5.1c-0.6-0.6-0.9-1.4-0.9-2.2c0-0.8,0.3-1.6,0.9-2.2l5.1-5.1      c0.6-0.6,1.4-0.9,2.2-0.9c0.8,0,1.6,0.3,2.2,0.9l5.1,5.1c1.2,1.2,1.2,3.2,0,4.5l-5.1,5.1C-464.6,445.3-465.4,445.6-466.2,445.6z       M-466.2,430.3c-0.5,0-1.1,0.2-1.4,0.6l-5.1,5.1c-0.4,0.4-0.6,0.9-0.6,1.4s0.2,1.1,0.6,1.4l5.1,5.1c0.8,0.8,2.1,0.8,2.9,0      l5.1-5.1c0.8-0.8,0.8-2.1,0-2.9l-5.1-5.1C-465.2,430.5-465.7,430.3-466.2,430.3z"/>
			</g>
			<g>
				<path class="st6" d="M-473.1,439c-1-1.4-1-2.8,0-3.8l5.1-5.1c1-1,2.7-1,3.7,0L-473.1,439z"/>
				<path class="st3" d="M-473.1,439.6L-473.1,439.6c-0.2,0-0.4-0.1-0.4-0.2c-1.2-1.6-1.2-3.4,0.1-4.6l5.1-5.1      c0.6-0.6,1.4-0.9,2.2-0.9c0.9,0,1.7,0.3,2.3,0.9c0.2,0.2,0.2,0.6,0,0.8l-8.7,9C-472.8,439.5-473,439.6-473.1,439.6z       M-466.3,429.9c-0.5,0-1,0.2-1.4,0.6l-5.1,5.1c-0.7,0.7-0.8,1.6-0.3,2.6l7.8-8C-465.5,430-465.9,429.9-466.3,429.9z"/>
			</g>
			<g>
				<path class="st2" d="M-437.2,439.2c-1-1-1-2.7,0-3.7l5.1-5.1c1-1,2.7-1,3.7,0l5.1,5.1c1,1,1,2.7,0,3.7l-5.1,5.1      c-1,1-2.7,1-3.7,0L-437.2,439.2z"/>
				<path class="st3" d="M-430.3,445.6c-0.8,0-1.6-0.3-2.2-0.9l-5.1-5.1c-1.2-1.2-1.2-3.2,0-4.5l5.1-5.1c0.6-0.6,1.4-0.9,2.2-0.9      c0.8,0,1.6,0.3,2.2,0.9l5.1,5.1c0.6,0.6,0.9,1.4,0.9,2.2c0,0.8-0.3,1.6-0.9,2.2l-5.1,5.1C-428.6,445.3-429.4,445.6-430.3,445.6z       M-430.3,430.3c-0.5,0-1.1,0.2-1.4,0.6l-5.1,5.1c-0.8,0.8-0.8,2.1,0,2.9l5.1,5.1c0.8,0.8,2.1,0.8,2.9,0l5.1-5.1      c0.4-0.4,0.6-0.9,0.6-1.4s-0.2-1.1-0.6-1.4l-5.1-5.1C-429.2,430.5-429.7,430.3-430.3,430.3z"/>
			</g>
			<g>
				<path class="st2" d="M-459.3,472.3c1,1,1,2.7,0,3.7l-5.1,5.1c-1,1-2.7,1-3.7,0l-5.1-5.1c-1-1-1-2.7,0-3.7l5.1-5.1      c1-1,2.7-1,3.7,0L-459.3,472.3z"/>
				<path class="st3" d="M-466.2,482.4c-0.8,0-1.6-0.3-2.2-0.9l-5.1-5.1c-0.6-0.6-0.9-1.4-0.9-2.2c0-0.8,0.3-1.6,0.9-2.2l5.1-5.1      c0.6-0.6,1.4-0.9,2.2-0.9c0.8,0,1.6,0.3,2.2,0.9l5.1,5.1c1.2,1.2,1.2,3.2,0,4.5l-5.1,5.1C-464.6,482-465.4,482.4-466.2,482.4z       M-466.2,467c-0.5,0-1.1,0.2-1.4,0.6l-5.1,5.1c-0.4,0.4-0.6,0.9-0.6,1.4s0.2,1.1,0.6,1.4l5.1,5.1c0.8,0.8,2.1,0.8,2.9,0l5.1-5.1      c0.8-0.8,0.8-2.1,0-2.9l-5.1-5.1C-465.2,467.2-465.7,467-466.2,467z"/>
			</g>
			<g>
				<path class="st2" d="M-437.2,476c-1-1-1-2.7,0-3.7l5.1-5.1c1-1,2.7-1,3.7,0l5.1,5.1c1,1,1,2.7,0,3.7l-5.1,5.1c-1,1-2.7,1-3.7,0      L-437.2,476z"/>
				<path class="st3" d="M-430.3,482.4c-0.8,0-1.6-0.3-2.2-0.9l-5.1-5.1c-1.2-1.2-1.2-3.2,0-4.5l5.1-5.1c0.6-0.6,1.4-0.9,2.2-0.9      c0.8,0,1.6,0.3,2.2,0.9l5.1,5.1c0.6,0.6,0.9,1.4,0.9,2.2c0,0.8-0.3,1.6-0.9,2.2l-5.1,5.1C-428.6,482-429.4,482.4-430.3,482.4z       M-430.3,467c-0.5,0-1.1,0.2-1.4,0.6l-5.1,5.1c-0.8,0.8-0.8,2.1,0,2.9l5.1,5.1c0.8,0.8,2.1,0.8,2.9,0l5.1-5.1      c0.4-0.4,0.6-0.9,0.6-1.4s-0.2-1.1-0.6-1.4l-5.1-5.1C-429.2,467.2-429.7,467-430.3,467z"/>
			</g>
			<g>
				<circle class="st2" cx="-448.3" cy="455.2" r="22"/>
				<path class="st3" d="M-448.3,477.8c-6,0-11.7-2.4-16-6.6c-8.8-8.8-8.8-23.2,0-32c4.3-4.3,9.9-6.6,16-6.6c6,0,11.7,2.4,16,6.6      c8.8,8.8,8.8,23.2,0,32C-436.5,475.5-442.2,477.8-448.3,477.8z M-448.3,433.7c-5.7,0-11.1,2.2-15.2,6.3c-8.4,8.4-8.4,22,0,30.4      c4.1,4.1,9.5,6.3,15.2,6.3s11.1-2.2,15.2-6.3c8.4-8.4,8.4-22,0-30.4C-437.1,436-442.5,433.7-448.3,433.7z"/>
			</g>
			<g>
				<g>
					<circle class="st2" cx="-439.8" cy="447.1" r="4.3"/>
				</g>
				<g>
					<path class="st3" d="M-439.8,452c-1.3,0-2.5-0.5-3.5-1.4c-1.9-1.9-1.9-5,0-6.9c0.9-0.9,2.2-1.4,3.5-1.4s2.5,0.5,3.5,1.4       c1.9,1.9,1.9,5,0,6.9C-437.3,451.4-438.5,452-439.8,452z M-439.8,443.3c-1,0-2,0.4-2.7,1.1c-1.5,1.5-1.5,3.9,0,5.3       c0.7,0.7,1.7,1.1,2.7,1.1s2-0.4,2.7-1.1c1.5-1.5,1.5-3.9,0-5.3C-437.9,443.7-438.8,443.3-439.8,443.3z"/>
				</g>
			</g>
			<g>
				<g>
					<circle class="st2" cx="-457" cy="463.4" r="4.3"/>
				</g>
				<g>
					<path class="st3" d="M-457,468.3c-1.3,0-2.5-0.5-3.5-1.4c-1.9-1.9-1.9-5,0-6.9c0.9-0.9,2.2-1.4,3.5-1.4s2.5,0.5,3.5,1.4       c1.9,1.9,1.9,5,0,6.9C-454.5,467.8-455.7,468.3-457,468.3z M-457,459.7c-1,0-2,0.4-2.7,1.1c-1.5,1.5-1.5,3.9,0,5.3       c0.7,0.7,1.7,1.1,2.7,1.1s2-0.4,2.7-1.1c1.5-1.5,1.5-3.9,0-5.3C-455,460-456,459.7-457,459.7z"/>
				</g>
			</g>
			<g>
				<g>
					<circle class="st2" cx="-457" cy="447.1" r="4.3"/>
				</g>
				<g>
					<path class="st3" d="M-457,452c-1.3,0-2.5-0.5-3.5-1.4c-1.9-1.9-1.9-5,0-6.9c0.9-0.9,2.2-1.4,3.5-1.4s2.5,0.5,3.5,1.4       c1.9,1.9,1.9,5,0,6.9C-454.5,451.4-455.7,452-457,452z M-457,443.3c-1,0-2,0.4-2.7,1.1c-1.5,1.5-1.5,3.9,0,5.3       c0.7,0.7,1.7,1.1,2.7,1.1s2-0.4,2.7-1.1c1.5-1.5,1.5-3.9,0-5.3C-455,443.7-456,443.3-457,443.3z"/>
				</g>
			</g>
			<g>
				<g>
					<circle class="st2" cx="-439.8" cy="463.4" r="4.3"/>
				</g>
				<g>
					<path class="st3" d="M-439.8,468.3c-1.3,0-2.5-0.5-3.5-1.4c-1.9-1.9-1.9-5,0-6.9c0.9-0.9,2.2-1.4,3.5-1.4s2.5,0.5,3.5,1.4       c1.9,1.9,1.9,5,0,6.9C-437.3,467.8-438.5,468.3-439.8,468.3z M-439.8,459.7c-1,0-2,0.4-2.7,1.1c-1.5,1.5-1.5,3.9,0,5.3       c0.7,0.7,1.7,1.1,2.7,1.1s2-0.4,2.7-1.1c1.5-1.5,1.5-3.9,0-5.3C-437.9,460-438.8,459.7-439.8,459.7z"/>
				</g>
			</g>
			<g>
				<path class="st6" d="M-423.4,439c1-1.4,1-2.8,0-3.8l-5.1-5.1c-1-1-2.7-1-3.7,0L-423.4,439z"/>
				<path class="st3" d="M-423.4,439.6c-0.2,0-0.3-0.1-0.4-0.2l-8.7-9c-0.2-0.2-0.2-0.6,0-0.8c0.6-0.6,1.4-0.9,2.3-0.9      c0.8,0,1.6,0.3,2.2,0.9l5.1,5.1c1.2,1.2,1.2,3,0,4.6C-423.1,439.5-423.2,439.6-423.4,439.6L-423.4,439.6z M-431.3,430.1l7.8,8      c0.5-0.9,0.4-1.9-0.3-2.6l-5.1-5.1C-429.5,429.8-430.6,429.7-431.3,430.1z"/>
			</g>
			<g>
				<path class="st6" d="M-473.1,471.9c-1,1.4-1,2.8,0,3.8l5.1,5.1c1,1,2.7,1,3.7,0L-473.1,471.9z"/>
				<path class="st3" d="M-466.3,482.2L-466.3,482.2c-0.8,0-1.6-0.3-2.2-0.9l-5.1-5.1c-1.2-1.2-1.2-3,0-4.6c0.1-0.1,0.2-0.2,0.4-0.2      s0.3,0.1,0.4,0.2l8.7,9c0.2,0.2,0.2,0.6,0,0.8C-464.6,481.8-465.4,482.2-466.3,482.2z M-473,472.8c-0.5,0.9-0.4,1.9,0.3,2.6      l5.1,5.1c0.6,0.6,1.7,0.7,2.4,0.3L-473,472.8z"/>
			</g>
			<g>
				<path class="st6" d="M-423.4,471.9c1,1.4,1,2.8,0,3.8l-5.1,5.1c-1,1-2.7,1-3.7,0L-423.4,471.9z"/>
				<path class="st3" d="M-430.3,482.2c-0.9,0-1.7-0.3-2.3-0.9c-0.2-0.2-0.2-0.6,0-0.8l8.7-9c0.1-0.1,0.3-0.2,0.4-0.2      c0.2,0,0.3,0.1,0.4,0.2c1.2,1.6,1.2,3.4-0.1,4.6l-5.1,5.1C-428.7,481.8-429.4,482.2-430.3,482.2z M-431.3,480.8      c0.8,0.4,1.8,0.3,2.4-0.3l5.1-5.1c0.7-0.7,0.8-1.6,0.3-2.6L-431.3,480.8z"/>
			</g>
		</g>
		<g>
			<g>
				<g>
					<path class="st2" d="M-439.4,537.6v-15.5V522c0.2-2.2,0-4.5-0.9-6.7c-2.9-7.3-11.2-10.9-18.5-8c-5.5,2.2-8.9,7.4-9,12.9v0.3       v0.5l-0.1,16.7"/>
					<path class="st3" d="M-467.8,538.2L-467.8,538.2c-0.3,0-0.6-0.3-0.6-0.6l0.1-17.2v-0.3c0.1-6,3.8-11.3,9.3-13.4       c3.7-1.5,7.7-1.4,11.3,0.2c3.6,1.6,6.4,4.4,7.9,8.1c0.9,2.2,1.2,4.6,1,7v0.1v15.4c0,0.3-0.3,0.6-0.6,0.6       c-0.3,0-0.6-0.3-0.6-0.6V522v-0.1v-0.1c0.2-2.2-0.1-4.4-0.9-6.4c-1.3-3.4-3.9-6.1-7.3-7.5s-7.1-1.5-10.5-0.2       c-5.1,2-8.5,6.9-8.6,12.4v0.3l-0.1,17.2C-467.2,538-467.5,538.2-467.8,538.2z"/>
				</g>
				<g>
					<path class="st2" d="M-447,533.2c-0.4,0.2-0.8,0.4-1.3,0.6c-4,1.6-8.2,1.2-11.8-0.6c-8.4,2.7-14.6,10.7-14.6,20h42.2       C-432.5,543.8-438.6,535.9-447,533.2z"/>
					<path class="st3" d="M-432.5,553.7h-42.1c-0.3,0-0.6-0.3-0.6-0.6c0-9.4,6-17.7,14.9-20.6c0.1,0,0.3,0,0.4,0       c3.5,1.8,7.7,2,11.3,0.6c0.4-0.2,0.8-0.3,1.2-0.6c0.1-0.1,0.3-0.1,0.4,0c8.9,2.9,14.9,11.2,14.9,20.5       C-431.9,553.5-432.2,553.7-432.5,553.7z M-474,552.6h40.9c-0.2-8.6-5.7-16.1-13.9-18.8c-0.4,0.2-0.7,0.4-1.1,0.5       c-3.9,1.5-8.3,1.3-12-0.5C-468.2,536.5-473.8,544-474,552.6z"/>
				</g>
				<g>
					<path class="st2" d="M-467.8,553.2h28.4v-15.6c-0.7-0.6-1.4-1.2-2.2-1.8c-1.4,1.1-3,2-4.7,2.7c-6.6,2.6-13.9,1.3-19.1-2.8       c-0.8,0.6-1.6,1.2-2.3,1.9L-467.8,553.2L-467.8,553.2L-467.8,553.2z"/>
					<path class="st3" d="M-439.4,553.7h-28.4c-0.3,0-0.6-0.3-0.6-0.6v-15.5c0-0.2,0.1-0.3,0.2-0.4c0.7-0.7,1.5-1.3,2.4-1.9       c0.2-0.1,0.5-0.1,0.7,0c3.3,2.6,7.4,4,11.6,4c2.4,0,4.7-0.4,6.9-1.3c1.7-0.7,3.2-1.5,4.6-2.6c0.2-0.2,0.5-0.2,0.7,0       c0.8,0.6,1.6,1.2,2.3,1.8c0.1,0.1,0.2,0.3,0.2,0.4v15.6C-438.8,553.5-439,553.7-439.4,553.7z M-467.2,552.6h27.3v-14.7       c-0.5-0.5-1.1-0.9-1.6-1.3c-1.4,1-2.9,1.9-4.6,2.5c-2.4,0.9-4.8,1.4-7.4,1.4c-4.3,0-8.5-1.4-12-4c-0.6,0.4-1.2,0.9-1.8,1.4       L-467.2,552.6L-467.2,552.6z"/>
				</g>
				<g>
					<g>
						<path class="st2" d="M-442.1,528.2c-2.1-2.3-4.6-5.8-4.8-9.7c-5.5,7.9-13.3,10.1-17.2,10.7c0,0,3.7,5.6,10.7,5.6        C-445.7,534.8-442.1,528.4-442.1,528.2z"/>
						<path class="st3" d="M-453.5,535.3c-7.2,0-11-5.6-11.2-5.9c-0.1-0.2-0.1-0.4,0-0.5s0.2-0.3,0.4-0.3c4-0.6,11.5-2.8,16.8-10.5        c0.1-0.2,0.4-0.3,0.6-0.2s0.4,0.3,0.4,0.5c0.2,3.7,2.7,7.2,4.7,9.4c0.1,0.1,0.1,0.2,0.1,0.4        C-441.6,528.6-445.2,535.3-453.5,535.3z M-463.2,529.6c1.2,1.5,4.5,4.6,9.7,4.6c6.7,0,10-4.8,10.7-6c-1.8-2.1-3.9-5-4.5-8.3        C-452.4,526.5-459,528.8-463.2,529.6z"/>
					</g>
				</g>
				<g>
					<path class="st3" d="M-446.1,528.2c-0.1,0-0.3-0.1-0.3-0.2c-0.4-0.8-1.3-1.4-2.2-1.4s-1.8,0.5-2.2,1.4       c-0.1,0.2-0.3,0.3-0.5,0.2s-0.3-0.3-0.2-0.5c0.5-1.1,1.6-1.8,2.9-1.8c1.2,0,2.3,0.7,2.9,1.8c0.1,0.2,0,0.4-0.2,0.5       C-445.9,528.2-446,528.2-446.1,528.2z"/>
				</g>
			</g>
			<g>
				<circle class="st2" cx="-432.5" cy="553.2" r="10.6"/>
				<path class="st3" d="M-432.5,564.3c-6.1,0-11.2-5-11.2-11.2c0-6.1,5-11.2,11.2-11.2c6.1,0,11.2,5,11.2,11.2      S-426.3,564.3-432.5,564.3z M-432.5,543.1c-5.5,0-10,4.5-10,10s4.5,10,10,10s10-4.5,10-10S-427,543.1-432.5,543.1z"/>
			</g>
			<g>
				<path class="st6" d="M-432.5,559.6c-0.3,0-0.6-0.3-0.6-0.6v-11.7c0-0.3,0.3-0.6,0.6-0.6s0.6,0.3,0.6,0.6V559      C-431.9,559.3-432.2,559.6-432.5,559.6z"/>
			</g>
			<g>
				<path class="st6" d="M-426.6,553.7h-11.7c-0.3,0-0.6-0.3-0.6-0.6s0.3-0.6,0.6-0.6h11.7c0.3,0,0.6,0.3,0.6,0.6      C-426.1,553.5-426.3,553.7-426.6,553.7z"/>
			</g>
		</g>
		<g>
			<g>
				<path class="st2" d="M-446.1,373.5c0.5-0.5,0.9-1.3,0.9-2.1c0-1.6-1.3-3-3-3c-1.6,0-3,1.3-3,3c0,0.8,0.3,1.5,0.9,2.1H-446.1z"/>
				<path class="st3" d="M-446.1,374.1h-4.2c-0.2,0-0.3-0.1-0.4-0.2c-0.7-0.7-1-1.5-1-2.5c0-1.9,1.6-3.5,3.5-3.5s3.5,1.6,3.5,3.5      c0,0.9-0.4,1.8-1,2.5C-445.8,374-446,374.1-446.1,374.1z M-450.1,373h3.7c0.4-0.4,0.5-1,0.5-1.5c0-1.3-1.1-2.4-2.4-2.4      s-2.4,1.1-2.4,2.4C-450.6,372-450.4,372.5-450.1,373z"/>
			</g>
			<g>
				<g>
					<path class="st2" d="M-428.8,402.2h9.5c0-1.9-0.2-3.7-0.6-5.5"/>
					<path class="st3" d="M-419.3,402.8h-9.5c-0.3,0-0.6-0.3-0.6-0.6c0-0.3,0.3-0.6,0.6-0.6h9c0-1.6-0.2-3.2-0.6-4.9       c-0.1-0.3,0.1-0.6,0.4-0.7s0.6,0.1,0.7,0.4c0.4,1.9,0.6,3.8,0.6,5.7c0,0.1-0.1,0.3-0.2,0.4C-419,402.7-419.1,402.8-419.3,402.8       z"/>
				</g>
				<g>
					<path class="st2" d="M-422.2,389.7c-4.7-9.7-14.6-16.3-26-16.3c-15.9,0-28.9,12.9-29,28.8h46.3"/>
					<path class="st3" d="M-430.9,402.8h-46.3c-0.1,0-0.3-0.1-0.4-0.2s-0.2-0.2-0.2-0.4c0.1-16.2,13.4-29.3,29.5-29.3       c11.4,0,21.5,6.4,26.5,16.7c0.1,0.3,0,0.6-0.3,0.8c-0.3,0.1-0.6,0-0.8-0.3c-4.8-9.9-14.6-16-25.5-16c-15.4,0-28,12.4-28.4,27.7       h45.7c0.3,0,0.6,0.3,0.6,0.6C-430.4,402.5-430.6,402.8-430.9,402.8z"/>
				</g>
			</g>
			<g>
				<circle class="st2" cx="-459.9" cy="382.6" r="2.4"/>
			</g>
			<g>
				<path class="st2" d="M-468.8,402.2c0-5.1,2-9.8,5.1-13.4l0,0c0.3-0.4,0.4-0.8,0.4-1.3c0-1.3-1.1-2.4-2.4-2.4      c-0.7,0-1.2,0.3-1.7,0.7l0,0c-3.8,4.4-6.2,10.1-6.2,16.4L-468.8,402.2L-468.8,402.2z"/>
			</g>
			<g>
				<rect x="-481.5" y="402.2" class="st6" width="66.4" height="2.6"/>
				<path class="st3" d="M-415,405.4h-66.5c-0.3,0-0.6-0.3-0.6-0.6v-2.6c0-0.3,0.3-0.6,0.6-0.6h66.4c0.3,0,0.6,0.3,0.6,0.6v2.6      C-414.5,405.1-414.7,405.4-415,405.4z M-480.9,404.2h65.3v-1.5h-65.3V404.2z"/>
			</g>
			<g>
				<path class="st2" d="M-437.2,399.5c2,2,4.8,3,7.4,2.8c0.2-2.7-0.7-5.4-2.8-7.4c-2-2-4.8-3-7.4-2.8      C-440.2,394.7-439.3,397.4-437.2,399.5z"/>
				<path class="st3" d="M-430.5,402.8c-2.7,0-5.2-1-7.2-3c-2.1-2.1-3.1-4.9-2.9-7.9c0-0.3,0.2-0.5,0.5-0.5c2.9-0.2,5.8,0.9,7.9,2.9      c2.1,2.1,3.1,4.9,2.9,7.9c0,0.3-0.2,0.5-0.5,0.5C-430,402.8-430.2,402.8-430.5,402.8z M-439.4,392.6c0,2.4,0.9,4.8,2.6,6.5      s4,2.6,6.4,2.6c0.1,0,0.1,0,0.2,0c0-2.4-0.9-4.8-2.6-6.5C-434.7,393.5-437,392.5-439.4,392.6z"/>
			</g>
			<g>
				<path class="st2" d="M-418,389.3c-3.4-0.2-6.9,0.9-9.4,3.5c-1.5,1.5-2.5,3.3-3,5.1c0.6,1.4,0.8,2.9,0.7,4.3c-0.1,0-0.3,0-0.4,0      c3.1,0,6.3-1.1,8.7-3.5C-418.9,396.2-417.8,392.7-418,389.3z"/>
				<path class="st3" d="M-430.1,402.8L-430.1,402.8L-430.1,402.8c-0.4,0-0.7-0.3-0.7-0.6c0-0.3,0.2-0.5,0.4-0.6      c0-1.2-0.2-2.4-0.7-3.6c0-0.1-0.1-0.2,0-0.4c0.6-2.1,1.7-3.9,3.2-5.4c2.6-2.6,6.2-3.9,9.9-3.7c0.3,0,0.5,0.2,0.5,0.5      c0.3,3.7-1.1,7.3-3.7,9.9C-423.5,401.5-426.7,402.8-430.1,402.8z M-429.9,397.9c0.5,1.2,0.7,2.5,0.7,3.8      c2.8-0.2,5.3-1.4,7.3-3.3c2.2-2.3,3.5-5.3,3.4-8.5c-3.2-0.1-6.3,1.1-8.5,3.4C-428.4,394.5-429.3,396.1-429.9,397.9z"/>
			</g>
		</g>
	</g>
</g>
<g id="Capa_2">
	<g>
		<path class="st7" d="M82.5,765.8v-20.7v-0.2c0.3-3-0.1-6-1.2-9c-3.9-9.8-14.9-14.5-24.7-10.7c-7.3,2.9-11.8,9.8-12,17.2v0.4v0.6    l-0.1,22.3"/>
		<path class="st7" d="M72.3,759.9c-0.5,0.3-1.1,0.5-1.7,0.8c-5.3,2.1-11,1.6-15.7-0.8c-11.3,3.7-19.4,14.2-19.4,26.7h56.2    C91.7,774.1,83.5,763.6,72.3,759.9z"/>
		<path class="st7" d="M44.5,786.6h37.9v-20.8c-0.9-0.8-1.9-1.6-3-2.3c-1.9,1.5-4,2.7-6.3,3.6c-8.9,3.5-18.5,1.8-25.5-3.7    c-1.1,0.8-2.1,1.6-3.1,2.5V786.6z"/>
		<g>
			<path class="st7" d="M78.8,753.2c-2.8-3-6.2-7.8-6.5-13c-7.3,10.6-17.8,13.5-23,14.3c0,0,4.9,7.5,14.3,7.5     C74.2,762,78.8,753.5,78.8,753.2z"/>
		</g>
		<path class="st8" d="M66.8,752.7c0.6-1.2,1.9-2.1,3.4-2.1s2.8,0.9,3.4,2.1"/>
	</g>
	<circle class="st9" cx="91.7" cy="786.6" r="14.1"/>
	<line class="st7" x1="91.7" y1="778.8" x2="91.7" y2="794.4"/>
	<line class="st7" x1="99.5" y1="786.6" x2="83.8" y2="786.6"/>
	<g>
		<path class="st7" d="M43.3,623.4l-6.8-6.8c-1.4-1.4-1.4-3.6,0-4.9l6.8-6.8c1.4-1.4,3.6-1.4,4.9,0l6.8,6.8"/>
		<path class="st10" d="M48.2,604.9l-11.7,12"/>
		<path class="st7" d="M84.7,611.8l6.8-6.8c1.4-1.4,3.6-1.4,4.9,0l6.8,6.8c1.4,1.4,1.4,3.6,0,4.9l-6.8,6.8"/>
		<path class="st7" d="M55,663.8l-6.8,6.8c-1.4,1.4-3.6,1.4-4.9,0l-6.8-6.8c-1.4-1.4-1.4-3.6,0-4.9l6.8-6.8"/>
		<path class="st7" d="M96.2,652.1l6.8,6.8c1.4,1.4,1.4,3.6,0,4.9l-6.8,6.8c-1.4,1.4-3.6,1.4-4.9,0l-6.8-6.8"/>
		<circle class="st7" cx="69.7" cy="637.5" r="29.5"/>
		<g>
			<g>
				<g>
					<circle class="st11" cx="81" cy="626.6" r="5.8"/>
				</g>
			</g>
		</g>
		<g>
			<g>
				<g>
					<circle class="st11" cx="58.2" cy="648.5" r="5.8"/>
				</g>
			</g>
		</g>
		<g>
			<g>
				<g>
					<circle class="st11" cx="58.2" cy="626.6" r="5.8"/>
				</g>
			</g>
		</g>
		<g>
			<g>
				<g>
					<circle class="st11" cx="81" cy="648.5" r="5.8"/>
				</g>
			</g>
		</g>
		<path class="st10" d="M91.2,604.9l11.7,12"/>
		<path class="st10" d="M48.2,670.7l-11.7-12"/>
		<path class="st10" d="M91.2,670.7l11.7-12"/>
	</g>
	<path class="st7" d="M71.7,493.6c0.6-0.6,0.9-1.4,0.9-2.3c0-1.8-1.5-3.3-3.3-3.3s-3.3,1.5-3.3,3.3c0,0.9,0.4,1.7,0.9,2.3H71.7z"/>
	<g>
		<path class="st7" d="M91,525.5h10.6c0-2.1-0.2-4.2-0.6-6.2"/>
		<path class="st7" d="M98.2,511.6c-5.2-10.7-16.2-18.2-29-18.2c-17.7,0-32.1,14.3-32.2,32h51.5"/>
	</g>
	<circle class="st12" cx="56.2" cy="503.7" r="2.6"/>
	<path class="st12" d="M46.5,525.5c0.1-5.7,2.2-10.9,5.7-14.9l0,0c0.3-0.4,0.5-0.9,0.5-1.5c0-1.5-1.2-2.6-2.6-2.6   c-0.7,0-1.4,0.3-1.9,0.8l0,0c-4.3,4.9-6.9,11.2-6.9,18.2H46.5z"/>
	<rect x="32.3" y="525.5" class="st7" width="73.9" height="2.9"/>
	<path class="st7" d="M81.5,522.5c2.3,2.3,5.3,3.3,8.3,3.1c0.2-3-0.8-6-3.1-8.3s-5.3-3.3-8.3-3.1C78.2,517.2,79.2,520.2,81.5,522.5z   "/>
	<path class="st7" d="M103,511.2c-3.8-0.3-7.6,1-10.5,3.9c-1.6,1.6-2.8,3.6-3.4,5.7c0.6,1.5,0.9,3.2,0.8,4.8c-0.2,0-0.3,0-0.5,0   c3.5,0,7-1.3,9.7-3.9C102,518.8,103.2,514.9,103,511.2z"/>
	<g>
		<path class="st7" d="M46.5,61.9c-13.1-13.1-14.3-35.5-1.2-48.6c13.1-13.1,34.4-12,47.5,1.2C105.9,27.6,107.1,48.9,94,62    c-6.3,6.3-16.9,6.3-23.2,0L58,49.1c-2.3-2.3-3.5-2.3-4.6-1.2s-1.2,3.5,1.2,5.8c2.3,2.3,2.3,5.8,0,8.1    C52.2,64.2,48.7,64.2,46.5,61.9z"/>
		<circle class="st7" cx="82" cy="23.1" r="4.6"/>
		<circle class="st7" cx="90" cy="37.6" r="3.5"/>
		<circle class="st7" cx="82" cy="52" r="5.8"/>
		<circle class="st7" cx="63.7" cy="20" r="4.6"/>
	</g>
	<g>
		<g>
			<path class="st13" d="M63.8,181.3c-4.5-4.2-7.3-10.2-7.3-16.9c0-6.6,2.8-12.6,7.2-16.8 M68.5,144.1c3.3-1.8,7.2-2.9,11.2-2.9     c12.8,0,23.2,10.4,23.2,23.2s-10.4,23.2-23.2,23.2c-4.1,0-7.9-1-11.2-2.9 M73.3,181.2c2,0.8,4.2,1.2,6.5,1.2c9.9,0,18-8.1,18-18     s-8.1-18-18-18c-2.3,0-4.4,0.4-6.4,1.2 M68.5,150.3c-4.1,3.3-6.8,8.4-6.8,14.1c0,5.7,2.6,10.8,6.8,14.1"/>
		</g>
		<g>
			<path class="st7" d="M57.3,187.6c-12.8,0-23.2-10.4-23.2-23.2s10.4-23.2,23.2-23.2c6.2,0,11.8,2.4,16,6.4     c4.5,4.2,7.2,10.2,7.2,16.8c0,8.7-4.9,16.4-12,20.3C65.2,186.6,61.5,187.6,57.3,187.6z M57.3,146.4c-9.9,0-18,8.1-18,18     s8.1,18,18,18s18-8.1,18-18c0-5.7-2.7-10.9-6.9-14.2c-1.4-1.1-3-2-4.7-2.7C61.8,146.8,59.7,146.4,57.3,146.4z"/>
		</g>
		<g>
			<path class="st7" d="M77.5,127.9c0-2.7-2.2-4.9-4.9-4.9c-1.9,0-3.5,1.1-4.3,2.6c-0.8-1.6-2.4-2.6-4.3-2.6c-2.7,0-4.9,2.2-4.9,4.9     c0,1.3,0.5,2.5,1.4,3.4l7.9,7.9l7.8-7.9C77,130.4,77.5,129.2,77.5,127.9"/>
		</g>
	</g>
	<circle class="st7" cx="96.5" cy="290.8" r="11.4"/>
	<g>
		<path class="st7" d="M71.7,284.5v-16.7v-0.2c0.3-2.4,0-4.9-1-7.2c-3.1-7.9-12-11.7-19.9-8.6c-5.9,2.3-9.5,7.9-9.7,13.9v0.3v0.5    l-0.1,18"/>
		<path class="st7" d="M63.5,279.7c-0.4,0.2-0.9,0.4-1.3,0.6c-4.3,1.7-8.9,1.3-12.7-0.6c-9.1,2.9-15.7,11.5-15.7,21.6h45.3    C79.2,291.2,72.7,282.7,63.5,279.7z"/>
		<path class="st7" d="M41.2,301.3h30.6v-16.8c-0.7-0.7-1.5-1.3-2.4-1.9c-1.5,1.2-3.2,2.2-5.1,2.9c-7.2,2.8-14.9,1.4-20.6-3    c-0.9,0.6-1.7,1.3-2.5,2V301.3z"/>
		<g>
			<path class="st7" d="M68.8,274.4c-2.2-2.5-5-6.3-5.2-10.5c-5.9,8.5-14.3,10.9-18.5,11.5c0,0,4,6,11.5,6     C65,281.5,68.8,274.6,68.8,274.4z"/>
		</g>
		<path class="st7" d="M59.2,274c0.5-1,1.5-1.7,2.7-1.7s2.2,0.7,2.7,1.7"/>
	</g>
	<g>
		<circle class="st7" cx="96.5" cy="261.4" r="11.4"/>
		<polyline class="st7" points="101.5,257.9 94,264.9 91.5,262.4   "/>
	</g>
	<line class="st7" x1="92" y1="286.3" x2="101" y2="295.2"/>
	<line class="st7" x1="101" y1="286.3" x2="92" y2="295.2"/>
	<rect x="37" y="364" class="st7" width="26.2" height="26.2"/>
	<rect x="37" y="364" class="st7" width="26.2" height="26.2"/>
	<rect x="37" y="364" class="st7" width="26.2" height="26.2"/>
	<rect x="73.3" y="364" class="st7" width="26.2" height="26.2"/>
	<rect x="37" y="400.3" class="st7" width="26.2" height="26.2"/>
	<rect x="37" y="400.3" class="st7" width="26.2" height="26.2"/>
	<rect x="37" y="400.3" class="st7" width="26.2" height="26.2"/>
	<rect x="73.3" y="400.3" class="st7" width="26.2" height="26.2"/>
	<polyline class="st7" points="93.3,371 84.7,381.9 80.3,377.6  "/>
</g>
<g>
	<g>
		<path class="st7" d="M4.4,863.5h32c1.1,0,2,0.9,1.9,1.9l-0.3,5c-0.1,1.1-0.9,1.9-1.9,1.9H4.7c-1.1,0-1.9-0.9-1.9-1.9l-0.3-5    C2.4,864.4,3.3,863.5,4.4,863.5L4.4,863.5z M35.4,872.8l-0.6,15.6 M34.8,888.4c-0.1,1-0.9,1.9-1.9,1.9 M32.8,890.3H8.2    c-1,0-1.9-0.9-1.9-1.9l-1-15.6"/>
		<line class="st7" x1="20.4" y1="863.5" x2="20.4" y2="890.3"/>
		<path class="st7" d="M21.7,862.5C13.4,843.3-3.1,863.8,21.7,862.5L21.7,862.5c19.3-0.5,7.1-14.1,0.7-2.2    C22.2,860.7,21.8,862.1,21.7,862.5L21.7,862.5z"/>
		<path class="st7" d="M54.1,863.5h32c1.1,0,2,0.9,1.9,1.9l-0.3,5c-0.1,1.1-0.9,1.9-1.9,1.9H54.4c-1.1,0-1.9-0.9-1.9-1.9l-0.3-5    C52.1,864.4,53,863.5,54.1,863.5L54.1,863.5z M85.1,872.8l-0.6,15.6 M84.5,888.4c-0.1,1-0.9,1.9-1.9,1.9 M82.6,890.3H57.9    c-1,0-1.9-0.9-1.9-1.9l-1-15.6"/>
		<line class="st7" x1="70.1" y1="863.5" x2="70.1" y2="890.3"/>
		<path class="st7" d="M71.4,862.5C63.1,843.3,46.7,863.8,71.4,862.5L71.4,862.5c19.3-0.5,7.1-14.1,0.7-2.2    C71.9,860.7,71.6,862.1,71.4,862.5L71.4,862.5z"/>
		<path class="st7" d="M103.8,863.5h32c1.1,0,2,0.9,1.9,1.9l-0.3,5c-0.1,1.1-0.9,1.9-1.9,1.9h-31.4c-1.1,0-1.9-0.9-1.9-1.9l-0.3-5    C101.8,864.4,102.8,863.5,103.8,863.5L103.8,863.5z M134.9,872.8l-0.6,15.6 M134.2,888.4c-0.1,1-0.9,1.9-1.9,1.9 M132.3,890.3    h-24.6c-1,0-1.9-0.9-1.9-1.9l-1-15.6"/>
		<line class="st7" x1="119.8" y1="863.5" x2="119.8" y2="890.3"/>
		<path class="st7" d="M121.2,862.5C112.9,843.3,96.4,863.8,121.2,862.5L121.2,862.5c19.3-0.5,7.1-14.1,0.7-2.2    C121.7,860.7,121.3,862.1,121.2,862.5L121.2,862.5z"/>
	</g>
	<g>
		<polygon class="st7" points="107.7,905.9 112.9,900.7 92.1,893.2 99,914 104.8,908.8 114.6,918.6 117.5,915.7   "/>
	</g>
</g>
<g>
	<path class="st7" d="M97.4,954H30.6c-3.2,0-5.8,2.6-5.8,5.8v40.9h78.5v-40.9C103.2,956.6,100.6,954,97.4,954z"/>
	<rect x="47.6" y="1020" class="st7" width="32.8" height="2.9"/>
	<path class="st7" d="M24.8,1000.7v3.8c0,3.2,2.6,5.9,5.8,5.9h66.8c3.2,0,5.8-2.6,5.8-5.9v-3.8"/>
	<circle class="st7" cx="63.9" cy="1005.6" r="2.4"/>
	<path class="st7" d="M100.3,995.9c0,1.3-1.1,2.4-2.4,2.4H30c-1.3,0-2.4-1.1-2.4-2.4v-36.8c0-1.3,1.1-2.4,2.4-2.4h67.9   c1.3,0,2.4,1.1,2.4,2.4V995.9z"/>
	<rect x="55.9" y="1010.4" class="st7" width="16.1" height="9.6"/>
	<path class="st7" d="M50.8,970.3h26.3c0.9,0,1.6,0.7,1.6,1.6l-0.3,4.1c-0.1,0.9-0.7,1.6-1.6,1.6H51.1c-0.9,0-1.5-0.7-1.6-1.6   l-0.3-4.1C49.2,971,50,970.3,50.8,970.3L50.8,970.3z M76.4,977.9l-0.5,12.8 M75.8,990.7c-0.1,0.9-0.7,1.6-1.6,1.6 M74.2,992.3H54   c-0.9,0-1.5-0.7-1.6-1.6l-0.8-12.8"/>
	<line class="st7" x1="64" y1="970.3" x2="64" y2="992.3"/>
	<path class="st7" d="M65.1,969.5C58.3,953.7,44.8,970.6,65.1,969.5L65.1,969.5c15.9-0.4,5.9-11.6,0.6-1.8   C65.5,967.9,65.2,969.1,65.1,969.5L65.1,969.5z"/>
	<circle class="st9" cx="98.2" cy="1009.5" r="17.2"/>
	<circle class="st3" cx="91.7" cy="1009.8" r="3.1"/>
	<circle class="st3" cx="101" cy="1002.9" r="3.2"/>
	<circle class="st3" cx="101" cy="1016.4" r="3.2"/>
	<line class="st7" x1="91.7" y1="1009.8" x2="101" y2="1002.9"/>
	<line class="st7" x1="101" y1="1016.4" x2="91.7" y2="1009.8"/>
</g>
<g>
	<path class="st7" d="M100.3,1066.7h27.1c0.9,0,1.7,0.7,1.6,1.6l-0.3,4.2c-0.1,0.9-0.7,1.6-1.6,1.6h-26.5c-0.9,0-1.6-0.7-1.6-1.6   l-0.3-4.2C98.6,1067.5,99.4,1066.7,100.3,1066.7L100.3,1066.7z M126.5,1074.6l-0.5,13.2 M126,1087.8c-0.1,0.9-0.7,1.6-1.6,1.6    M124.4,1089.4h-20.8c-0.9,0-1.6-0.7-1.6-1.6l-0.8-13.2"/>
	<line class="st7" x1="113.8" y1="1066.7" x2="113.8" y2="1089.4"/>
	<path class="st7" d="M114.9,1065.9C107.9,1049.7,94,1067,114.9,1065.9L114.9,1065.9c16.3-0.4,6-11.9,0.6-1.9   C115.4,1064.3,115.1,1065.6,114.9,1065.9L114.9,1065.9z"/>
	<polyline class="st7" points="23.1,1089 13,1080.8 22.5,1072.3  "/>
	<line class="st7" x1="13.4" y1="1080.6" x2="87.3" y2="1080.6"/>
	<polyline class="st7" points="117.3,1109.6 127.4,1117.7 117.9,1126.3  "/>
	<line class="st7" x1="127" y1="1118" x2="53.1" y2="1118"/>
	<polygon class="st7" points="11.2,1119.3 45.6,1119.3 45.6,1101.3 11.2,1101.3 11.2,1119.3  "/>
	<path class="st7" d="M28.4,1116.1c2.4,0,4.4-2.6,4.4-5.8s-2-5.8-4.4-5.8c-2.4,0-4.4,2.6-4.4,5.8S26,1116.1,28.4,1116.1L28.4,1116.1   z"/>
	<path class="st7" d="M17.5,1118.5c0-3-2.4-5.4-5.4-5.4"/>
	<path class="st7" d="M39.4,1118.5c0-3,2.4-5.4,5.4-5.4"/>
	<path class="st7" d="M17.5,1102.1c0,3-2.4,5.4-5.4,5.4"/>
	<path class="st7" d="M39.4,1102.1c0,3,2.4,5.4,5.4,5.4"/>
	<path class="st14" d="M19.7,1111.4c0.6,0,1.1-0.5,1.1-1.1c0-0.6-0.5-1.1-1.1-1.1c-0.6,0-1.1,0.5-1.1,1.1   C18.5,1110.9,19,1111.4,19.7,1111.4L19.7,1111.4z"/>
	<path class="st14" d="M37.2,1111.4c0.6,0,1.1-0.5,1.1-1.1c0-0.6-0.5-1.1-1.1-1.1c-0.6,0-1.1,0.5-1.1,1.1   C36.1,1110.9,36.6,1111.4,37.2,1111.4L37.2,1111.4z"/>
	<path class="st7" d="M11.3,1123.4h34.2 M11.3,1127.5h34.2 M11.3,1131.5h34.2"/>
</g>
</svg>