<?xml version="1.0" encoding="utf-8"?>
<!-- Generator: Adobe Illustrator 19.2.1, SVG Export Plug-In . SVG Version: 6.00 Build 0)  -->
<svg version="1.1" id="icons" xmlns="http://www.w3.org/2000/svg" xmlns:xlink="http://www.w3.org/1999/xlink" x="0px" y="0px"
	 width="24.2px" height="107.53px" viewBox="0 0 24.2 107.53" enable-background="new 0 0 24.2 107.53" xml:space="preserve">
<g>
	<g>
		<path fill="#55B563" d="M11.79,105.03c-0.22,0-0.4-0.18-0.4-0.4v-9.08c0-0.22,0.18-0.4,0.4-0.4c0.22,0,0.4,0.18,0.4,0.4v9.08
			C12.19,104.85,12.01,105.03,11.79,105.03z"/>
	</g>
	<g>
		<path fill="#55B563" d="M11.79,105.03L11.79,105.03c-0.11,0-0.21-0.04-0.28-0.12l-3.45-3.45c-0.16-0.16-0.16-0.41,0-0.57
			c0.16-0.16,0.41-0.16,0.57,0l3.16,3.16l3.16-3.16c0.16-0.16,0.41-0.16,0.57,0c0.16,0.16,0.16,0.41,0,0.57l-3.45,3.45
			C11.99,104.99,11.89,105.03,11.79,105.03z"/>
	</g>
	<g>
		<path fill="#55B563" d="M19.31,107.53h-3.76c-0.22,0-0.4-0.18-0.4-0.4c0-0.22,0.18-0.4,0.4-0.4h3.36V93.12h-3.36
			c-0.22,0-0.4-0.18-0.4-0.4c0-0.22,0.18-0.4,0.4-0.4h3.76c0.22,0,0.4,0.18,0.4,0.4v14.41C19.71,107.36,19.53,107.53,19.31,107.53z"
			/>
	</g>
	<g>
		<path fill="#55B563" d="M8.03,107.53H4.89c-0.22,0-0.4-0.18-0.4-0.4V92.72c0-0.22,0.18-0.4,0.4-0.4h3.13c0.22,0,0.4,0.18,0.4,0.4
			c0,0.22-0.18,0.4-0.4,0.4H5.3v13.61h2.73c0.22,0,0.4,0.18,0.4,0.4C8.43,107.36,8.25,107.53,8.03,107.53z"/>
	</g>
</g>
<g>
	<g>
		<path fill="#666666" d="M12.1,51.97c-4.96,0-9-4.04-9-9c0-4.96,4.04-9,9-9s9,4.04,9,9C21.1,47.93,17.06,51.97,12.1,51.97z
			 M12.1,34.85c-4.47,0-8.11,3.64-8.11,8.11c0,4.47,3.64,8.11,8.11,8.11s8.11-3.64,8.11-8.11C20.21,38.49,16.57,34.85,12.1,34.85z"
			/>
	</g>
	<g>
		<path fill="#666666" d="M9.15,46.36c-0.11,0-0.23-0.04-0.31-0.13c-0.17-0.17-0.17-0.45,0-0.63l5.9-5.9c0.17-0.17,0.45-0.17,0.63,0
			c0.17,0.17,0.17,0.45,0,0.63l-5.9,5.9C9.38,46.32,9.26,46.36,9.15,46.36z"/>
	</g>
	<g>
		<path fill="#666666" d="M10.03,42.52c-0.89,0-1.62-0.73-1.62-1.62c0-0.89,0.73-1.62,1.62-1.62s1.62,0.73,1.62,1.62
			C11.66,41.8,10.93,42.52,10.03,42.52z M10.03,40.16c-0.41,0-0.74,0.33-0.74,0.74c0,0.41,0.33,0.74,0.74,0.74
			c0.41,0,0.74-0.33,0.74-0.74C10.77,40.5,10.44,40.16,10.03,40.16z"/>
	</g>
	<g>
		<path fill="#666666" d="M14.17,46.66c-0.89,0-1.62-0.73-1.62-1.62s0.73-1.62,1.62-1.62s1.62,0.73,1.62,1.62
			S15.06,46.66,14.17,46.66z M14.17,44.3c-0.41,0-0.74,0.33-0.74,0.74s0.33,0.74,0.74,0.74c0.41,0,0.74-0.33,0.74-0.74
			S14.57,44.3,14.17,44.3z"/>
	</g>
</g>
<g>
	<path fill="none" stroke="#666666" stroke-linecap="round" stroke-linejoin="round" stroke-miterlimit="10" d="M11.73,69.66
		c1.32-0.09,2.62,0.29,3.7,1.1"/>
	<path fill="none" stroke="#666666" stroke-linecap="round" stroke-linejoin="round" stroke-miterlimit="10" d="M20.6,72.24
		c0,0.82-0.66,1.48-1.48,1.48"/>
	<path fill="none" stroke="#666666" stroke-linejoin="round" stroke-miterlimit="10" d="M12.1,67.8c-0.63,0-1.23,0.08-1.81,0.21
		C9.84,67.22,9,66.69,8.03,66.69c-0.47,0-0.91,0.13-1.29,0.35c0.67,0.39,1.15,1.07,1.27,1.87c-1.55,0.94-2.63,2.39-2.88,4.06H3.6
		v2.96h1.99c1.04,2.17,3.56,3.7,6.51,3.7c3.88,0,7.02-2.65,7.02-5.91C19.12,70.45,15.98,67.8,12.1,67.8z"/>
	<circle fill="none" stroke="#666666" stroke-linejoin="round" stroke-miterlimit="10" cx="7.67" cy="72.61" r="0.37"/>
	<line fill="none" stroke="#666666" stroke-linejoin="round" stroke-miterlimit="10" x1="9.14" y1="79.08" x2="9.14" y2="81.47"/>
	<line fill="none" stroke="#666666" stroke-linejoin="round" stroke-miterlimit="10" x1="15.06" y1="79.06" x2="15.06" y2="81.47"/>
</g>
<path fill="#666666" stroke="#666666" stroke-width="0.25" stroke-miterlimit="10" d="M19.1,8.61h-4.91
	c0.79-0.27,1.59-0.6,1.91-0.92c0.78-0.78,0.78-2.05,0-2.83c-0.75-0.76-2.07-0.76-2.83,0C12.84,5.3,12.39,6.6,12.1,7.59
	c-0.29-0.99-0.74-2.3-1.18-2.74c-0.76-0.76-2.07-0.76-2.83,0c-0.78,0.78-0.78,2.05,0,2.83c0.32,0.32,1.12,0.65,1.91,0.92H5.1v3.33
	h0.67v8h12.67v-8h0.67V8.61z M10.1,11.27v-2h4v2H10.1z M14.1,11.94v7.33h-4v-7.33H14.1z M13.75,5.33c0.25-0.25,0.59-0.39,0.94-0.39
	c0.36,0,0.69,0.14,0.94,0.39c0.52,0.52,0.52,1.37,0,1.89c-0.37,0.37-1.9,0.87-3.07,1.19C12.88,7.23,13.38,5.7,13.75,5.33z
	 M8.56,5.33c0.25-0.25,0.59-0.39,0.94-0.39c0.36,0,0.69,0.14,0.94,0.39c0.37,0.37,0.87,1.9,1.19,3.07
	c-1.17-0.32-2.71-0.82-3.07-1.19C8.04,6.7,8.04,5.85,8.56,5.33z M5.77,9.27h3.67v2H5.77V9.27z M6.43,11.94h3v7.33h-3V11.94z
	 M17.77,19.27h-3v-7.33h3V19.27z M18.43,11.27h-3.67v-2h3.67V11.27z"/>
</svg>
