<?xml version="1.0" encoding="utf-8"?>
<!-- Generator: Adobe Illustrator 22.0.1, SVG Export Plug-In . SVG Version: 6.00 Build 0)  -->
<svg version="1.1" id="Capa_1" xmlns="http://www.w3.org/2000/svg" xmlns:xlink="http://www.w3.org/1999/xlink" x="0px" y="0px"
	 width="95.75px" height="1627.79px" viewBox="0 0 95.75 1627.79" enable-background="new 0 0 95.75 1627.79" xml:space="preserve">
<style type="text/css">
	.st0{fill:#FFFFFF;}
	.st1{fill:#F6F0C8;}
	.st2{fill:none;stroke:#000000;stroke-width:2;stroke-linecap:round;stroke-linejoin:round;stroke-miterlimit:10;}
	.st3{fill:#F4CCA4;}
	.st4{fill:none;stroke:#272425;stroke-width:2;stroke-linecap:round;stroke-linejoin:round;stroke-miterlimit:10;}
	.st5{fill:none;stroke:#272425;stroke-width:2;stroke-linecap:round;stroke-miterlimit:10;}
	.st6{fill:#E4A48E;}
	.st7{fill:none;stroke:#FFFFFF;stroke-width:2;stroke-linecap:round;stroke-linejoin:round;stroke-miterlimit:10;}
	.st8{fill:#E4A48E;stroke:#000000;stroke-width:2;stroke-linecap:round;stroke-linejoin:round;stroke-miterlimit:10;}
	.st9{fill:none;stroke:#EF8F32;stroke-width:2;stroke-linecap:round;stroke-linejoin:round;stroke-miterlimit:10;}
	.st10{fill:#EF8F32;}
	.st11{fill:none;stroke:#E4A48E;stroke-width:2;stroke-linecap:round;stroke-linejoin:round;stroke-miterlimit:10;}
	.st12{fill:#EBF2D7;}
	.st13{fill:#272425;}
	.st14{fill:none;stroke:#272425;stroke-width:2;stroke-linejoin:round;stroke-miterlimit:10;}
	.st15{fill:#F4CCA4;stroke:#272425;stroke-width:2;stroke-miterlimit:10;}
	.st16{fill:#F6F0C8;stroke:#000000;stroke-width:2;stroke-linecap:round;stroke-linejoin:round;stroke-miterlimit:10;}
	.st17{fill:none;stroke:#272425;stroke-width:2;stroke-miterlimit:10;}
	.st18{fill:#FFFFFF;stroke:#272425;stroke-width:2;stroke-linejoin:round;stroke-miterlimit:10;}
	.st19{fill:#F2D7CC;}
	.st20{fill:#F2BFAD;}
	.st21{fill:none;}
	.st22{fill:#FAF7F2;stroke:#000000;stroke-width:2;stroke-linecap:round;stroke-linejoin:round;stroke-miterlimit:10;}
	.st23{fill:#FFFFFF;stroke:#000000;stroke-width:2;stroke-linecap:round;stroke-linejoin:round;stroke-miterlimit:10;}
	.st24{fill:#EFEEEA;}
	.st25{fill:none;stroke:#272425;stroke-width:1.8;stroke-miterlimit:10;}
	.st26{fill:none;stroke:#000000;stroke-width:2;stroke-linecap:round;stroke-miterlimit:10;}
	.st27{fill:#D2EFEB;}
	.st28{fill:#FFFFFF;stroke:#272425;stroke-width:1.5;stroke-linecap:round;stroke-linejoin:round;stroke-miterlimit:10;}
	.st29{fill:none;stroke:#272425;stroke-width:1.5;stroke-linecap:round;stroke-linejoin:round;stroke-miterlimit:10;}
	.st30{fill:#1AB4BC;}
</style>
<g>
	<path class="st0" d="M59.5,3.2H26.8c-2.9,0-5.2,2.4-5.2,5.3c0,0.1,0,18.1,0,20.5c0,1,0,1.5,0,1.5c0,0.3,0.2,0.6,0.5,0.7
		c0.8,1.8,2.6,3,4.7,3h32.7c2.1,0,3.9-1.2,4.7-3c0.3-0.1,0.5-0.4,0.5-0.7c0,0,0-0.6,0-1.5c0-2.5,0-20.5,0-20.5
		C64.8,5.6,62.4,3.2,59.5,3.2z"/>
	<path class="st1" d="M64.8,8.5c0-3-2.3-5.3-5.2-5.3H26.8c-2.9,0-5.2,2.4-5.2,5.3c0,0.2,0,0.4,0,0.5c0,0.1,0,0.2,0,0.3v1.3
		c0,0.4,0.4,0.8,0.8,0.8H64c0.4,0,0.8-0.4,0.8-0.8V9.3c0-0.1,0-0.2-0.1-0.3C64.7,8.9,64.8,8.7,64.8,8.5z"/>
	<g>
		<path class="st2" d="M47.4,31.3H24.8c-2.8,0-5.4-2-5.4-4.8V6.4c0-2.8,2.6-5,5.4-5h32.8c2.8,0,4.8,2.3,4.8,5v10"/>
		<line class="st2" x1="19.4" y1="9.3" x2="62.4" y2="9.3"/>
		<line class="st2" x1="41.4" y1="15.3" x2="27.4" y2="15.3"/>
		<line class="st2" x1="54.4" y1="15.3" x2="48.4" y2="15.3"/>
		<line class="st2" x1="35.4" y1="21.3" x2="27.4" y2="21.3"/>
	</g>
	<circle class="st3" cx="65.3" cy="33.6" r="11.1"/>
	<g>
		<circle class="st4" cx="63.2" cy="31.9" r="11.2"/>
		<polyline class="st5" points="66.4,33.5 61.6,33.5 61.6,26.3 		"/>
	</g>
</g>
<g>
	<polygon class="st1" points="62,89.5 55.4,89.5 50.2,84.4 45,89.5 38.4,89.5 38.4,96.9 62,96.9 	"/>
	<path class="st1" d="M60,70.3H40.4c2.1,3.1,5.7,5.2,9.8,5.2C54.4,75.5,58,73.5,60,70.3z"/>
	<g>
		<path class="st4" d="M59.7,62c0,6.7-5.1,11.8-11.8,11.8S36.1,68.7,36.1,62v-9.6h23.6V62z"/>
		<line class="st4" x1="32.4" y1="52.4" x2="63.4" y2="52.4"/>
		<path class="st4" d="M59.7,85.6c0-6.7-5.1-11.8-11.8-11.8S36.1,79,36.1,85.6v9.6h23.6V85.6z"/>
		<line class="st4" x1="32.4" y1="95.2" x2="63.4" y2="95.2"/>
		<polyline class="st4" points="36.1,87.9 42.7,87.9 47.9,82.7 53,87.9 59.7,87.9 		"/>
		<line class="st4" x1="38" y1="68.7" x2="57.7" y2="68.7"/>
	</g>
</g>
<g>
	<rect x="33" y="121.7" class="st6" width="28.7" height="15.7"/>
	<g>
		<line class="st2" x1="37.3" y1="150.2" x2="59.2" y2="150.2"/>
		<line class="st2" x1="47.7" y1="146.5" x2="47.7" y2="150.2"/>
		<line class="st4" x1="46" y1="140.4" x2="65.3" y2="140.4"/>
		<line class="st4" x1="30" y1="140.4" x2="35.5" y2="140.4"/>
		<path class="st2" d="M65.3,122.5v21.6c0,1.3-1.1,2.4-2.4,2.4H40.7"/>
		<path class="st2" d="M30,144.1v-23.2c0-1.3,1.1-2.4,2.4-2.4h24.2"/>
	</g>
	<g>
		<circle class="st4" cx="47.9" cy="133.7" r="29"/>
		<line class="st4" x1="68.4" y1="113.2" x2="27.4" y2="154.2"/>
	</g>
</g>
<g>
	<path class="st7" d="M40.8,210.8c1.3-0.1,6-2.6,7.8-4.3c1.3-1.1,0.9-4.1-0.2-4c-2.8,0.3-4.3,5.9-2.3,7.9c0.3,0.3,1-0.1,1.5-0.3
		c1.4-0.6,2.4-1.8,3.4-3c0.4,0.1,0.6,0.6,0.7,1s0.4,0.8,0.8,0.8c0.3,0,0.5-0.3,0.7-0.4c0.7-0.5,1.7-0.2,2.5,0.1"/>
	<g>
		<rect x="35.2" y="185" class="st0" width="27.5" height="35"/>
		<polyline class="st2" points="34.8,217.6 60.5,217.6 60.5,208.6 		"/>
		<polyline class="st2" points="58.2,182.3 32.8,182.3 32.8,209.6 		"/>
		<g>
			<polygon class="st8" points="54.7,208.9 50.9,210 52,206.2 67.3,190.9 70,193.6 			"/>
			<line class="st2" x1="52" y1="206.2" x2="54.7" y2="208.9"/>
			<line class="st2" x1="62.4" y1="195.8" x2="65.1" y2="198.5"/>
			<polyline class="st2" points="58.5,195.8 62.9,191.4 64.7,193.3 			"/>
		</g>
	</g>
	<g>
		<circle class="st4" cx="47.9" cy="199.4" r="29"/>
		<line class="st4" x1="68.4" y1="178.9" x2="27.4" y2="219.9"/>
	</g>
	<line class="st2" x1="39.6" y1="189.9" x2="52" y2="189.9"/>
	<line class="st2" x1="39.6" y1="194.9" x2="47" y2="194.9"/>
</g>
<g>
	<path class="st9" d="M63.9,251.9c0.1,8.8-7.2,16.1-16,16.3c-8.8,0.1-15.8-6.9-16-15.7c-0.1-8.8,7.2-16.1,16-16.3
		C56.7,236,63.7,243.1,63.9,251.9z"/>
	<line class="st9" x1="47.9" y1="254.4" x2="47.9" y2="244.2"/>
	<g>
		<path class="st10" d="M47.9,258C47.9,258,47.9,258,47.9,258c-0.8,0-1.5,0.7-1.5,1.5c0,0.8,0.7,1.4,1.5,1.4c0,0,0,0,0,0
			c0.8,0,1.4-0.7,1.4-1.5C49.3,258.6,48.7,258,47.9,258L47.9,258z"/>
	</g>
</g>
<g>
	<g>
		<polyline class="st4" points="41,317.2 65.9,317.2 65.9,292.6 64.2,292.6 		"/>
		<polyline class="st4" points="54.6,292.6 28.7,292.6 28.7,317.2 30,317.2 		"/>
		<circle class="st4" cx="39" cy="301.9" r="3.2"/>
		<path class="st4" d="M41.9,305.8c-0.7-0.4-1.7-0.7-3-0.7c-4,0-5.1,2.6-5.1,5.1h3.4"/>
		<line class="st4" x1="48.6" y1="309.4" x2="61.4" y2="309.4"/>
		<line class="st4" x1="52.6" y1="305.8" x2="61.4" y2="305.8"/>
	</g>
	<circle class="st11" cx="47.9" cy="304.9" r="29"/>
	<line class="st11" x1="68.4" y1="284.4" x2="27.4" y2="325.4"/>
</g>
<g>
	<g>
		<path class="st4" d="M56.5,357l-1.3-3.8l-4.2,2.2l-3-3.7l-3,3.7l-4.2-2.2l-1.4,4.5l-4.8-0.4l0.4,4.8l-4.5,1.4l2.2,4.2l-3.7,3
			l3.7,3l-2.2,4.2l3.5,1 M39.5,384.7l1.1,3.5l4.2-2.2l3,3.7l3-3.7l4.2,2.2l1.4-4.5l4.8,0.4l-0.4-4.8l4.6-1.4l-2.2-4.2l3.7-3l-3.7-3
			l2.2-4.2l-3.6-1.2"/>
	</g>
	<g>
		<circle class="st11" cx="47.9" cy="370.7" r="29"/>
		<line class="st11" x1="68.4" y1="350.2" x2="27.4" y2="391.2"/>
	</g>
</g>
<g>
	<path class="st4" d="M45.5,431.9c-0.8-0.9-1.6-1.8-2.3-2.8l1.5-1.5c1.6-1.6,1.7-4.1,0.3-5.5l-3.9-3.9c-1.4-1.4-3.9-1.3-5.5,0.3
		l-2.4,2.4c-2.1,2.1-2.5,5.1-1.1,7.4c2.2,3.4,4.6,6.7,7.3,9.7"/>
	<path class="st4" d="M46.2,445c3,2.7,6.3,5.1,9.7,7.3c2.2,1.4,5.3,0.9,7.4-1.1l2.4-2.4c1.6-1.6,1.7-4.1,0.3-5.5l-3.9-3.9
		c-1.4-1.4-3.9-1.3-5.5,0.3l-1.5,1.5c-0.9-0.7-1.8-1.5-2.8-2.3"/>
	<circle class="st11" cx="47.9" cy="436.5" r="29"/>
	<line class="st11" x1="68.4" y1="415.9" x2="27.4" y2="457"/>
</g>
<g>
	
		<ellipse transform="matrix(1.850898e-02 -0.9998 0.9998 1.850898e-02 -449.1495 536.8788)" class="st12" cx="48.9" cy="497.2" rx="22" ry="22"/>
	<line class="st7" x1="41.9" y1="510.2" x2="53.9" y2="510.2"/>
	<polyline class="st7" points="43.9,492.2 47.9,492.2 47.9,509.2 	"/>
	<circle class="st7" cx="46.9" cy="483.2" r="1"/>
	
		<ellipse transform="matrix(1.850898e-02 -0.9998 0.9998 1.850898e-02 -449.1129 532.9161)" class="st4" cx="46.9" cy="495.2" rx="22" ry="22"/>
	<line class="st4" x1="40.9" y1="509.2" x2="52.9" y2="509.2"/>
	<polyline class="st4" points="42.9,491.2 46.9,491.2 46.9,508.2 	"/>
	<circle class="st4" cx="45.9" cy="482.2" r="1"/>
</g>
<g>
	<circle class="st3" cx="48.9" cy="551" r="22"/>
	<circle class="st4" cx="46.9" cy="549" r="22"/>
	<line class="st4" x1="46.2" y1="552.1" x2="46.2" y2="538.1"/>
	<line class="st7" x1="48.2" y1="553.1" x2="48.2" y2="539.1"/>
	<g>
		<path class="st0" d="M48.2,558.1C48.2,558.1,48.2,558.1,48.2,558.1c-1.1,0-2,0.9-2,2c0,1.1,0.9,2,2,2c0,0,0,0,0,0c1.1,0,2-0.9,2-2
			C50.2,559,49.3,558.1,48.2,558.1L48.2,558.1z"/>
	</g>
	<g>
		<path class="st13" d="M46.2,557.1C46.2,557.1,46.2,557.1,46.2,557.1c-1.1,0-2,0.9-2,2c0,1.1,0.9,2,2,2c0,0,0,0,0,0
			c1.1,0,2-0.9,2-2C48.2,558,47.3,557.1,46.2,557.1L46.2,557.1z"/>
	</g>
</g>
<g>
	<path class="st0" d="M20.4,583.7v40h10v-1c0-2,1.6-4,4-4s4,2,4,4v1h22v-1c0-2.4,1.6-4,4-4s4,1.6,4,4v1h10v-40H20.4z"/>
	<path class="st14" d="M17.4,580.7v40h10v-1c0-2,1.6-4,4-4s4,2,4,4v1h22v-1c0-2.4,1.6-4,4-4s4,1.6,4,4v1h10v-40H17.4z"/>
	<circle class="st15" cx="33.4" cy="593.7" r="5"/>
	<path class="st16" d="M33.4,598.7c-6.3,0-8,4.1-8,8h16C41.4,602.8,39.7,598.7,33.4,598.7z"/>
	<line class="st17" x1="48.4" y1="604.7" x2="68.4" y2="604.7"/>
	<line class="st17" x1="48.4" y1="600.7" x2="68.4" y2="600.7"/>
	<line class="st17" x1="48.4" y1="596.7" x2="68.4" y2="596.7"/>
	<line class="st17" x1="48.4" y1="590.7" x2="59.4" y2="590.7"/>
</g>
<g>
	<path class="st3" d="M72.3,667.1l5.6-4.7l-5.6-4.7l3.4-6.4l-6.9-2.2l0.7-7.2l-7.2,0.7l-2.2-6.9l-6.4,3.4l-4.7-5.6l-4.7,5.6
		l-6.4-3.4l-2.2,6.9l-7.2-0.7l0.7,7.2l-6.9,2.2l3.4,6.4l-5.6,4.7l5.6,4.7l-3.4,6.4l6.9,2.2l-0.7,7.2l7.2-0.7l2.2,7l6.4-3.4l4.7,5.6
		l4.7-5.6l6.4,3.4l2.2-7l7.2,0.7l-0.7-7.2l6.9-2.2L72.3,667.1z"/>
	<path class="st14" d="M70.3,665.1l5.6-4.7l-5.6-4.7l3.4-6.4l-6.9-2.2l0.7-7.2l-7.2,0.7l-2.2-6.9l-6.4,3.4l-4.7-5.6l-4.7,5.6
		l-6.4-3.4l-2.2,6.9l-7.2-0.7l0.7,7.2l-6.9,2.2l3.4,6.4l-5.6,4.7l5.6,4.7l-3.4,6.4l6.9,2.2l-0.7,7.2l7.2-0.7l2.2,7l6.4-3.4l4.7,5.6
		l4.7-5.6l6.4,3.4l2.2-7l7.2,0.7l-0.7-7.2l6.9-2.2L70.3,665.1z"/>
	<polygon class="st18" points="46.9,647.9 50.9,657.5 59.9,657.5 51.9,663.5 55.9,673.5 46.9,666.4 37.9,673.5 41.9,663.5 
		33.9,657.5 42.9,657.5 	"/>
</g>
<g>
	<path class="st19" d="M68.3,743.2l-6.4-6.4c-1.1-1.1-3.1-1.1-4.2,0l-2.8,2.8c-1.1,1.1-3.1,1.1-4.2,0l-11.3-11.3
		c-1.2-1.2-1.2-3.1,0-4.2l2.8-2.8c0.6-0.6,0.9-1.3,0.9-2.1s-0.3-1.6-0.9-2.1l-6.4-6.4c-1.1-1.1-3.1-1.1-4.2,0l-2.8,2.8
		c0,0,0,0-0.1,0.1c-0.2,0.1-0.6,0.3-0.8,0.8c-3.6,3.8-4.3,8.5-1.9,14c1.8,4.1,5.2,8.7,10.6,14c8.2,8.2,14.6,12,20.2,12
		c3,0,5.6-1.1,7.9-3.3c0.5-0.2,0.8-0.6,0.8-0.8c0-0.1,0.1-0.1,0.1-0.1l2.8-2.8C69.5,746.2,69.5,744.3,68.3,743.2z M32,712
		c0.4-0.4,1-0.4,1.4,0l6.4,6.4c0.2,0.2,0.3,0.4,0.3,0.7s-0.1,0.5-0.3,0.7l-2.1,2.1l-7.8-7.8L32,712z M66.9,746l-2.1,2.1l-7.8-7.8
		l2.1-2.1c0.4-0.4,1-0.4,1.4,0l6.4,6.4C67.3,745,67.3,745.6,66.9,746z"/>
	<g>
		<g>
			<path d="M62.5,713.9c2.2-1.4,3.7-3.9,3.7-6.7c0-4.4-3.6-8-8-8s-8,3.6-8,8c0,2.8,1.5,5.3,3.7,6.7c-5.6,1.8-9.7,7.1-9.7,13.3h2
				c0-6.6,5.4-12,12-12s12,5.4,12,12h2C72.2,721,68.1,715.8,62.5,713.9z M52.2,707.2c0-3.3,2.7-6,6-6s6,2.7,6,6s-2.7,6-6,6
				S52.2,710.5,52.2,707.2z"/>
		</g>
	</g>
	<path class="st20" d="M31.1,710.6c0.5-0.5,1.3-0.5,1.8,0l8.2,8.2c0.2,0.2,0.4,0.6,0.4,0.9c0,0.3-0.1,0.7-0.4,0.9l-2.8,2.7
		l-10.1-10.1L31.1,710.6"/>
	<path class="st20" d="M58.2,736.8c0.5-0.5,1.3-0.5,1.8,0l8.2,8.2c0.2,0.2,0.4,0.6,0.4,0.9c0,0.3-0.1,0.7-0.4,0.9l-2.8,2.7
		l-10.1-10.1L58.2,736.8"/>
	<path d="M67.4,742.7l-6.4-6.4c-1.1-1.1-3.1-1.1-4.2,0l-2.8,2.8c-1.1,1.1-3.1,1.1-4.2,0l-11.3-11.3c-1.2-1.2-1.2-3.1,0-4.2l2.8-2.8
		c0.6-0.6,0.9-1.3,0.9-2.1s-0.3-1.6-0.9-2.1l-6.4-6.4c-1.1-1.1-3.1-1.1-4.2,0l-2.8,2.8c0,0,0,0-0.1,0.1c-0.2,0.1-0.6,0.3-0.8,0.8
		c-3.6,3.8-4.3,8.5-1.9,14c1.8,4.1,5.2,8.7,10.6,14c8.2,8.2,14.6,12,20.2,12c3,0,5.6-1.1,7.9-3.3c0.5-0.2,0.8-0.6,0.8-0.8
		c0-0.1,0.1-0.1,0.1-0.1l2.8-2.8C68.6,745.7,68.6,743.8,67.4,742.7z M32,711.5c0.4-0.4,1-0.4,1.4,0l6.4,6.4c0.2,0.2,0.3,0.4,0.3,0.7
		s-0.1,0.5-0.3,0.7l-2.1,2.1l-7.8-7.8L32,711.5z M37,740.5c-5.2-5.2-8.5-9.6-10.2-13.4c-2.1-4.9-1.6-8.8,1.7-12l7.8,7.8
		c-1.3,1.9-1.1,4.6,0.6,6.3l11.3,11.3c0.9,0.9,2.2,1.5,3.5,1.5c1,0,2-0.3,2.8-0.8l7.8,7.8c-2,2-4.2,2.9-6.7,2.9
		C50.8,751.9,44.7,748.2,37,740.5z M66,745.5l-2.1,2.1l-7.8-7.8l2.1-2.1c0.4-0.4,1-0.4,1.4,0l6.4,6.4
		C66.4,744.5,66.4,745.1,66,745.5z"/>
</g>
<g>
	<polygon class="st1" points="70.6,808.2 26.6,808.2 48.6,764.2 	"/>
	<line class="st7" x1="49.1" y1="793.8" x2="49.1" y2="778.5"/>
	<g>
		<path class="st0" d="M49.1,798.6c-1.1,0-1.9,0.9-1.9,1.9c0,1.1,0.9,1.9,1.9,1.9c1.1,0,1.9-0.9,1.9-1.9
			C51,799.5,50.2,798.6,49.1,798.6L49.1,798.6z"/>
	</g>
	<line class="st4" x1="47.1" y1="792.8" x2="47.1" y2="777.5"/>
	<g>
		<path class="st13" d="M47.1,797.6c-1.1,0-1.9,0.9-1.9,1.9c0,1.1,0.9,1.9,1.9,1.9c1.1,0,1.9-0.9,1.9-1.9
			C49,798.5,48.2,797.6,47.1,797.6L47.1,797.6z"/>
	</g>
	<polygon class="st4" points="69.1,806.2 25.1,806.2 47.1,762.2 	"/>
</g>
<g>
	<path class="st1" d="M76.9,840.4c0,2.1-1.9,3.5-4,3.5h-2v-10h2c2.1,0,4,1.9,4,4V840.4z"/>
	<path class="st19" d="M28.9,828.9h-3c-4.2,0-7,3.8-7,8v5c0,4.2,2.8,7,7,7h3c22.5,0,31.8,5.4,42,10.4V819
		C60.7,824,51.4,828.9,28.9,828.9z"/>
</g>
<g>
	<path class="st4" d="M46.6,863.9c-6.2-3.1-9.7-10.1-9.7-17v-21.2"/>
	<path class="st4" d="M76.9,837.4c0,2.1-1.9,3.5-4,3.5h-2v-10h2c2.1,0,4,1.9,4,4V837.4z"/>
	<path class="st4" d="M28.9,825.9h-3c-4.2,0-7,3.8-7,8v5c0,4.2,2.8,7,7,7h3c22.5,0,31.8,5.4,42,10.4V816
		C60.7,821,51.4,825.9,28.9,825.9z"/>
</g>
<g>
	<g>
		<polyline class="st3" points="30.3,907.2 20.4,924.1 30.4,922.1 33.4,931.1 42.6,917.7 		"/>
		<polyline class="st3" points="69.7,908.6 78.4,923.1 68.4,922.1 65.3,931.1 57.3,918 		"/>
		<circle class="st0" cx="50.4" cy="896.1" r="23"/>
		<polygon class="st1" points="50.4,885.1 54.4,893.1 61.4,893.1 55.4,898.1 58.4,907.1 50.4,902.1 42.4,907.1 45.4,898.1 
			39.4,893.1 46.4,893.1 		"/>
	</g>
	<g>
		<polyline class="st14" points="27.3,904.2 17.4,921.1 27.4,919.1 30.4,928.1 39.6,914.7 		"/>
		<polyline class="st14" points="66.7,905.6 75.4,920.1 65.4,919.1 62.3,928.1 54.3,915 		"/>
		<circle class="st14" cx="47.4" cy="893.1" r="23"/>
		<polygon class="st14" points="47.4,882.1 51.4,890.1 58.4,890.1 52.4,895.1 55.4,904.1 47.4,899.1 39.4,904.1 42.4,895.1 
			36.4,890.1 43.4,890.1 		"/>
	</g>
</g>
<g>
	<g>
		<path class="st0" d="M69,943.8H36c-3.9,0-7,3.1-7,7v35h-4c-4.4,0-8,3.6-8,8s3.6,8,8,8h30c-3.1,0,0,0,0,0c4.4,0,8-3.6,8-8v-43.7
			l0.3-0.3H75C75,946.5,72.3,943.8,69,943.8z"/>
		<line class="st21" x1="37" y1="977.8" x2="54" y2="977.8"/>
		<line class="st21" x1="37" y1="969.8" x2="54" y2="969.8"/>
		<line class="st21" x1="37" y1="961.8" x2="54" y2="961.8"/>
		<line class="st21" x1="37" y1="953.8" x2="54" y2="953.8"/>
	</g>
	<g>
		<path class="st2" d="M67,941.8H34c-3.9,0-7,3.1-7,7v35"/>
		<path class="st2" d="M61,985.8v6c0,4.4-3.6,8-8,8s-8-3.6-8-8s3.6-8,8-8H23c-4.4,0-8,3.6-8,8s3.6,8,8,8h30"/>
		<path class="st2" d="M61,947.8h12c0-3.3-2.7-6-6-6C63.7,941.8,61,944.5,61,947.8v8.8"/>
		<line class="st2" x1="35" y1="975.8" x2="52" y2="975.8"/>
		<line class="st2" x1="35" y1="967.8" x2="52" y2="967.8"/>
		<line class="st2" x1="35" y1="959.8" x2="52" y2="959.8"/>
		<line class="st2" x1="35" y1="951.8" x2="52" y2="951.8"/>
	</g>
	<circle class="st3" cx="69.7" cy="973.3" r="11.1"/>
	<g>
		
			<ellipse transform="matrix(3.327796e-02 -0.9994 0.9994 3.327796e-02 -905.1169 1007.1445)" class="st4" cx="68.1" cy="971.5" rx="11.2" ry="11.2"/>
		<g>
			<line class="st5" x1="68.4" y1="976.8" x2="68.4" y2="966.1"/>
			<polyline class="st5" points="63.8,972.1 68.4,976.8 72.3,972.1 			"/>
		</g>
	</g>
</g>
<g>
	<path class="st0" d="M72.1,1027.1v-4l-4,0v-4h-0.1h-4.9v-4h-42v42c0,5,3,8,8,8h42c-1.1,0,0,0,0,0c4.4,0,6-3.6,6-8v-30H72.1z
		 M68.1,1023L68.1,1023L68.1,1023L68.1,1023z"/>
	<g>
		<line class="st2" x1="26.6" y1="1020.6" x2="52.6" y2="1020.6"/>
		<rect x="26.6" y="1026.6" class="st3" width="14" height="16"/>
		<line class="st2" x1="46.6" y1="1030.6" x2="52.6" y2="1030.6"/>
		<line class="st2" x1="44.6" y1="1034.6" x2="52.6" y2="1034.6"/>
		<line class="st2" x1="44.6" y1="1038.6" x2="52.6" y2="1038.6"/>
		<line class="st2" x1="44.6" y1="1042.6" x2="52.6" y2="1042.6"/>
		<line class="st2" x1="26.6" y1="1046.6" x2="52.6" y2="1046.6"/>
		<line class="st2" x1="26.6" y1="1050.6" x2="52.6" y2="1050.6"/>
		<line class="st2" x1="26.6" y1="1054.6" x2="52.6" y2="1054.6"/>
		<path class="st2" d="M52.6,1058.6"/>
		<path class="st2" d="M26.6,1058.6"/>
		<path class="st2" d="M68.6,1062.6h-42c-5,0-8-3-8-8v-42h42v42C60.6,1059,64.2,1062.6,68.6,1062.6s6-3.6,6-8v-30h-5"/>
		<path class="st2" d="M65.6,1020.6h4v34c0,1.1-0.9,2-2,2s-2-0.9-2-2v-38h-5"/>
	</g>
</g>
<g>
	<g>
		<polygon class="st1" points="79.3,1126.7 51,1126.7 65.2,1098.4 		"/>
		<line class="st7" x1="64.5" y1="1116.4" x2="64.5" y2="1106.6"/>
		<g>
			<path class="st0" d="M64.5,1119.5c-0.7,0-1.2,0.6-1.2,1.2c0,0.7,0.5,1.2,1.2,1.2s1.2-0.6,1.2-1.2
				C65.7,1120.1,65.2,1119.5,64.5,1119.5L64.5,1119.5z"/>
		</g>
		<line class="st4" x1="63.2" y1="1115.8" x2="63.2" y2="1105.9"/>
		<g>
			<path class="st13" d="M63.2,1118.9c-0.7,0-1.2,0.6-1.2,1.2c0,0.7,0.5,1.2,1.2,1.2s1.2-0.6,1.2-1.2S63.9,1118.9,63.2,1118.9
				L63.2,1118.9z"/>
		</g>
		<polygon class="st4" points="77.3,1124.4 49.1,1124.4 63.2,1096.1 		"/>
	</g>
	<g>
		<path class="st4" d="M47.4,1109.8h-28c-2.1,0-3-1.9-3-4v-26c0-2.1,0.9-4,3-4h46c2.1,0,3,1.9,3,4v13"/>
		<polyline class="st14" points="67.6,1076.8 42.9,1096.8 17.3,1076.8 		"/>
	</g>
</g>
<g>
	<g>
		<path class="st19" d="M58.9,1185.7l-13.9,3.5l3.5-13.9l34-34c1.7-1.7,4.4-2.6,6.1-0.9l5.2,5.2c1.7,1.7,0.8,4.4-0.9,6.1
			L58.9,1185.7z"/>
		<path class="st6" d="M82.4,1141.2c1.7-1.7,4.4-2.6,6.1-0.9l5.2,5.2c1.7,1.7,0.8,4.4-0.9,6.1L82.4,1141.2z"/>
		<polygon class="st0" points="58.9,1185.7 45,1189.2 48.5,1175.2 		"/>
		<line class="st21" x1="92" y1="1152.6" x2="81.6" y2="1142.1"/>
		<line class="st21" x1="89.4" y1="1155.2" x2="78.9" y2="1144.7"/>
		<line class="st21" x1="58.9" y1="1185.7" x2="48.5" y2="1175.2"/>
	</g>
	<g>
		<polyline class="st11" points="38.8,1151.9 16,1179.7 7.5,1171.1 		"/>
		<polyline class="st4" points="33.8,1169.2 33.8,1188.9 1.1,1188.9 1.1,1156.2 24.4,1156.2 		"/>
	</g>
	<g>
		<path class="st4" d="M56.9,1183.7l-13.9,3.5l3.5-13.9l34-34c1.7-1.7,4.4-2.6,6.1-0.9l5.2,5.2c1.7,1.7,0.8,4.4-0.9,6.1L56.9,1183.7
			z"/>
		<line class="st14" x1="90" y1="1150.6" x2="79.6" y2="1140.1"/>
		<line class="st14" x1="87.4" y1="1153.2" x2="76.9" y2="1142.7"/>
		<line class="st14" x1="56.9" y1="1183.7" x2="46.5" y2="1173.2"/>
	</g>
</g>
<g>
	<g>
		<path class="st17" d="M54.6,1221.9h3v6l5-6h6c6.3,0,11-4.4,11-10.7s-5.1-11.3-11.3-11.3H53.2c-6.3,0-11.3,5.1-11.3,11.3"/>
		<g>
			<polygon class="st13" points="68.6,1210.9 66.6,1210.9 66.6,1212.9 68.6,1212.9 			"/>
		</g>
		<g>
			<polygon class="st13" points="62.6,1210.9 60.6,1210.9 60.6,1212.9 62.6,1212.9 			"/>
		</g>
		<g>
			<polygon class="st13" points="56.6,1210.9 54.6,1210.9 54.6,1212.9 56.6,1212.9 			"/>
		</g>
	</g>
	<g>
		<g>
			<path class="st8" d="M49.7,1245.6v-14.7l0-0.1c0.2-2.1,0-4.3-0.9-6.4c-2.8-7-10.6-10.4-17.6-7.6c-5.2,2.1-8.4,7-8.5,12.3l0,0.3
				v0.4l-0.1,15.9"/>
			<path class="st22" d="M42.4,1241.4c-0.4,0.2-0.8,0.4-1.2,0.6c-3.8,1.5-7.9,1.2-11.2-0.6c-8,2.6-13.9,10.2-13.9,19.1h40.1
				C56.2,1251.5,50.4,1244,42.4,1241.4z"/>
			<path class="st22" d="M42.4,1241.4c-0.4,0.2-0.8,0.4-1.2,0.6c-3.8,1.5-7.9,1.2-11.2-0.6c-8,2.6-13.9,10.2-13.9,19.1h40.1
				C56.2,1251.5,50.4,1244,42.4,1241.4z"/>
			<g>
				<path class="st22" d="M47,1236.6c-2-2.2-4.4-5.5-4.6-9.2c-5.2,7.5-12.7,9.6-16.4,10.2c0,0,3.5,5.3,10.2,5.3
					C43.7,1242.9,47,1236.8,47,1236.6z"/>
			</g>
			<path class="st2" d="M38.5,1236.3c0.4-0.9,1.3-1.5,2.4-1.5s2,0.6,2.4,1.5"/>
		</g>
		<path class="st23" d="M47.5,1243.9c-1.3,1-2.8,1.9-4.5,2.6c-6.3,2.5-13.2,1.3-18.2-2.6c-5.3,3.6-8.7,9.7-8.7,16.5h6.5h27h6.5
			C56.2,1253.6,52.8,1247.6,47.5,1243.9z"/>
	</g>
</g>
<g>
	<g>
		<path class="st24" d="M66.3,1320.5h7.4c2.1-0.1,4-1.9,4-4v-8.7l-4-5.3v-22c0-4.6-2.8-8-7-8h-35c-4.2,0-8,3.4-8,8v22l-4,5.3v8.7
			c0,2.1,1.9,4,4,4H31"/>
		<rect x="45.7" y="1272.5" class="st19" width="6.6" height="29.4"/>
		<path class="st0" d="M72.7,1330.5c-5,0-44.1,0-47.9,0c7.6-7.6,8-18,8-18h32C64.7,1312.5,65.1,1324.2,72.7,1330.5z"/>
		<circle class="st0" cx="48.7" cy="1286.5" r="8"/>
		<circle class="st19" cx="32.7" cy="1294.5" r="1"/>
		<rect x="61.7" y="1278.5" class="st19" width="6" height="6"/>
		<line class="st21" x1="45.7" y1="1279.1" x2="45.7" y2="1272.5"/>
		<line class="st21" x1="51.7" y1="1279.1" x2="51.7" y2="1272.5"/>
		<line class="st21" x1="45.7" y1="1302.5" x2="45.7" y2="1294"/>
		<line class="st21" x1="51.7" y1="1302.5" x2="51.7" y2="1294"/>
		<line class="st21" x1="23.7" y1="1302.5" x2="73.7" y2="1302.5"/>
		<line class="st21" x1="19.7" y1="1307.8" x2="77.7" y2="1307.8"/>
		<line class="st21" x1="22.7" y1="1312.5" x2="74.7" y2="1312.5"/>
	</g>
	<g>
		<path class="st17" d="M64.6,1319.2H72c2.1-0.1,4-1.9,4-4v-8.7l-4-5.3v-22c0-4.6-2.8-8-7-8H30c-4.2,0-8,3.4-8,8v22l-4,5.3v8.7
			c0,2.1,1.9,4,4,4h7.3"/>
		<path class="st17" d="M71,1329.2c-5,0-44.1,0-47.9,0c7.6-7.6,8-18,8-18h32C63,1311.2,63.4,1322.9,71,1329.2z"/>
		<circle class="st25" cx="47" cy="1285.2" r="8"/>
		<circle class="st17" cx="31" cy="1293.2" r="1"/>
		<rect x="60" y="1277.2" class="st17" width="6" height="6"/>
		<line class="st17" x1="44" y1="1277.8" x2="44" y2="1271.2"/>
		<line class="st17" x1="50" y1="1277.8" x2="50" y2="1271.2"/>
		<line class="st17" x1="44" y1="1301.2" x2="44" y2="1292.6"/>
		<line class="st17" x1="50" y1="1301.2" x2="50" y2="1292.6"/>
		<line class="st17" x1="22" y1="1301.2" x2="72" y2="1301.2"/>
		<line class="st17" x1="18" y1="1306.5" x2="76" y2="1306.5"/>
		<line class="st17" x1="21" y1="1311.2" x2="73" y2="1311.2"/>
	</g>
</g>
<g>
	<g>
		<path class="st0" d="M50,1400.6H26c-2.8,0-5-2.2-5-5v-48c0-2.8,2.2-5,5-5h24c2.8,0,5,2.2,5,5v34.5"/>
		<rect x="21" y="1353.4" class="st24" width="33.9" height="36.2"/>
		<line class="st21" x1="21" y1="1352.6" x2="55" y2="1352.6"/>
		<line class="st21" x1="21" y1="1390.6" x2="45" y2="1390.6"/>
		<line class="st21" x1="31" y1="1348.6" x2="45" y2="1348.6"/>
		<circle class="st0" cx="38" cy="1395.6" r="2"/>
	</g>
	<path class="st3" d="M77.2,1409.1l-9.8-11.8v-17.7c0-6.3-5.2-11.7-12.3-17.8l0,21.6l-5.3-5.3c-1.5-1.5-4.4-1.5-5.9,0
		c-1.5,1.5-1.5,4.4,0,5.9l8.9,11.8c0,0,0,0,0,2.9c0,4.4,5.4,10.3,5.4,10.3H77.2z"/>
	<g>
		<path class="st26" d="M47.5,1399.3h-24c-2.8,0-5-2.2-5-5v-48c0-2.8,2.2-5,5-5h24c2.8,0,5,2.2,5,5v34.5"/>
		<line class="st26" x1="18.5" y1="1351.3" x2="52.5" y2="1351.3"/>
		<line class="st26" x1="18.5" y1="1389.3" x2="42.5" y2="1389.3"/>
		<line class="st26" x1="28.5" y1="1347.3" x2="42.5" y2="1347.3"/>
		<circle class="st26" cx="35.5" cy="1394.3" r="2"/>
	</g>
	<g>
		<path class="st26" d="M74.7,1407.8l-9.8-11.8v-17.7c0-6.3-5.2-11.7-12.3-17.8l-0.1,20.2"/>
		<path class="st26" d="M56.1,1385.7l-8.9-8.8c-1.5-1.5-4.4-1.5-5.9,0c-1.5,1.5-1.5,4.4,0,5.9l8.8,11.8c0,0,0,0,0,2.9
			c0,4.4,5.4,10.3,5.4,10.3"/>
	</g>
	<path class="st26" d="M41.1,1365.3v1.2c0,1.9-1.5,3.4-3.4,3.4h-3.5c-1.9,0-3.4-1.5-3.4-3.4v-3.2c0-1.9,1.5-3.4,3.4-3.4h1.5"/>
	<circle class="st6" cx="41.7" cy="1360.1" r="3.3"/>
</g>
<line class="st4" x1="28.1" y1="1480.2" x2="43.2" y2="1480.2"/>
<g>
	<path class="st0" d="M34.5,1609.5v13.3c0,2.8,2.2,5,5,5h30c2.8,0,5-2.2,5-5v-33.6l-15.4-15.4H39.5c-2.8,0-5,2.2-5,5v12.1"/>
	<path class="st27" d="M56,1609.2H28.5c-1.7,0-3-1.4-3-3v-13.7c0-1.7,1.4-3,3-3H56c1.7,0,3,1.4,3,3v13.7
		C59,1607.9,57.6,1609.2,56,1609.2z"/>
	<g>
		<g>
			<path d="M34.3,1591.5h-2.2l-1.7,3l-1.6-3h-2.3l2.8,4.4l-2.9,4.6h2.2l1.8-3.1l1.7,3.1h2.3l-3-4.7L34.3,1591.5z M37.5,1591.5h-1.9
				v9.1H42v-1.6h-4.5V1591.5z M49.6,1596.1c-0.3-0.3-0.9-0.5-1.6-0.7l-1.6-0.4c-0.6-0.1-1-0.3-1.2-0.4c-0.3-0.2-0.4-0.4-0.4-0.7
				c0-0.3,0.2-0.6,0.5-0.8c0.3-0.2,0.7-0.3,1.2-0.3c0.5,0,0.8,0.1,1.1,0.2c0.5,0.2,0.7,0.6,0.7,1.2h1.8c0-1-0.4-1.7-1.1-2.2
				c-0.7-0.5-1.5-0.8-2.5-0.8c-1.2,0-2,0.3-2.6,0.8s-0.9,1.2-0.9,2c0,0.9,0.3,1.6,0.9,2c0.4,0.2,1,0.5,2,0.7l1,0.2
				c0.6,0.1,1,0.3,1.3,0.4c0.3,0.2,0.4,0.4,0.4,0.7c0,0.5-0.3,0.9-0.8,1.1c-0.3,0.1-0.7,0.2-1.1,0.2c-0.8,0-1.3-0.2-1.6-0.6
				c-0.2-0.2-0.3-0.5-0.3-0.9h-1.8c0,0.9,0.3,1.7,1,2.2c0.7,0.5,1.6,0.8,2.8,0.8c1.2,0,2.1-0.3,2.7-0.8c0.6-0.6,1-1.2,1-2.1
				C50.4,1597.1,50.1,1596.5,49.6,1596.1z M54.9,1569.6H35.3c-2.8,0-5,2.2-5,5v11h-4c-2.8,0-5,2.2-5,5v11c0,2.8,2.2,5,5,5h4v12
				c0,2.8,2.2,5,5,5h30c2.8,0,5-2.2,5-5v-33.6L54.9,1569.6z M55.3,1572.8l11.8,11.8h-8.8c-1.7,0-3-1.3-3-3
				C55.3,1581.6,55.3,1572.8,55.3,1572.8z M26.3,1604.6c-1.6,0-3-1.3-3-3v-11c0-1.7,1.4-3,3-3h24c1.7,0,3,1.3,3,3v11
				c0,1.7-1.3,3-3,3H26.3z M68.3,1618.6c0,1.7-1.3,3-3,3h-30c-1.7,0-3-1.3-3-3v-12h18c2.8,0,5-2.2,5-5v-11c0-2.8-2.2-5-5-5h-18v-11
				c0-1.7,1.3-3,3-3h18v10c0,2.8,2.2,5,5,5h10V1618.6z"/>
		</g>
	</g>
</g>
<g>
	<line class="st4" x1="35.7" y1="1476.2" x2="35.7" y2="1480.2"/>
	<line class="st17" x1="16.7" y1="1470.2" x2="54.7" y2="1470.2"/>
	<path class="st4" d="M36.7,1452.2l0.2-3.6c0-5.2,3.2-9.7,7.7-11.6"/>
	<polyline class="st4" points="41.9,1447.4 36.7,1452.2 31.8,1447.4 	"/>
	<path class="st4" d="M47.1,1450.2h3.8c2.1,0,3.8,1.7,3.8,3.8v17.2c0,2.1-1.9,5-4,5h-30c-2.1,0-4-2.9-4-5V1454
		c0-2.1,1.7-3.8,3.8-3.8h3.8"/>
	<polygon class="st28" points="54.7,1444.2 79,1444.2 79,1419.9 60.8,1419.9 54.7,1426 	"/>
	<polyline class="st29" points="54.7,1426 60.9,1426 60.8,1419.9 	"/>
	<g>
		<path class="st30" d="M67.5,1426.4c-4.1,0-7.5,3.4-7.5,7.5s3.4,7.5,7.5,7.5c4.1,0,7.5-3.4,7.5-7.5S71.6,1426.4,67.5,1426.4z
			 M67.5,1440.8c-3.9,0-7-3.1-7-7s3.1-7,7-7c3.9,0,7,3.1,7,7S71.3,1440.8,67.5,1440.8z"/>
		<path class="st30" d="M70.2,1430.1c-0.6,0-1.1,0.5-1.1,1.1c0,0.4,0.2,0.7,0.5,0.9c-0.9,1-1.5,2.3-1.9,3.6v-2.1h-0.4v2.1
			c-0.4-1.3-1-2.6-1.9-3.6c0.3-0.2,0.5-0.5,0.5-0.9c0-0.6-0.5-1.1-1.1-1.1s-1.1,0.5-1.1,1.1c0,0.6,0.5,1.1,1.1,1.1h0.2
			c1.5,1.7,2.4,4.1,2.4,6.6h0.4c0-2.5,0.8-4.9,2.4-6.6h0.2c0.6,0,1.1-0.5,1.1-1.1C71.2,1430.5,70.8,1430.1,70.2,1430.1L70.2,1430.1z
			"/>
		<path class="st30" d="M66.4,1429.9c0,0.6,0.5,1.1,1.1,1.1c0.6,0,1.1-0.5,1.1-1.1s-0.5-1.1-1.1-1.1
			C66.8,1428.9,66.4,1429.4,66.4,1429.9L66.4,1429.9z"/>
		<path class="st30" d="M66.6,1432.2c0,0.5,0.4,0.9,0.9,0.9c0.5,0,0.9-0.4,0.9-0.9c0-0.5-0.4-0.9-0.9-0.9
			C67,1431.3,66.6,1431.7,66.6,1432.2L66.6,1432.2z"/>
	</g>
</g>
<g>
	<g>
		<polygon class="st0" points="12.4,1539.9 60.5,1539.9 60.5,1491.9 24.6,1491.9 12.4,1504 		"/>
		<path class="st13" d="M60.5,1540.9h-48c-0.5,0-1-0.4-1-1V1504c0-0.3,0.1-0.5,0.3-0.7l12.1-12.1c0.2-0.2,0.4-0.3,0.7-0.3h35.9
			c0.5,0,1,0.4,1,1v48C61.4,1540.4,61,1540.9,60.5,1540.9z M13.4,1539h46.1v-46.1H25l-11.6,11.6C13.4,1504.4,13.4,1539,13.4,1539z"
			/>
	</g>
	<g>
		<path class="st13" d="M24.6,1505L24.6,1505l-12.1,0c-0.5,0-1-0.4-1-1c0-0.5,0.4-1,1-1l0,0l11.2,0l0-11.2c0-0.5,0.4-1,1-1l0,0
			c0.5,0,1,0.4,1,1l0,12.1c0,0.3-0.1,0.5-0.3,0.7C25.1,1504.9,24.8,1505,24.6,1505z"/>
	</g>
	<path class="st3" d="M84.3,1554.1l-9.4-11.3v-17c0-6.1-5-11.2-11.9-17.1l0,20.8l-5.1-5.1c-1.4-1.4-4.2-1.4-5.7,0s-1.4,4.2,0,5.7
		l8.5,11.3c0,0,0,0,0,2.8c0,4.2,5.2,9.9,5.2,9.9L84.3,1554.1L84.3,1554.1z"/>
	<g>
		<g>
			<path d="M81.9,1553.8c-0.3,0-0.6-0.1-0.7-0.3l-9.6-11.6v-17.3c0-5-3.8-9.6-10-15l-0.1,17.4c0,0.5-0.4,1-1,1l0,0c-0.5,0-1-0.4-1-1
				l0.1-21.5l1.6,1.3c7.5,6.4,12.2,11.7,12.2,17.8v16.7l9.2,11c0.3,0.4,0.3,1-0.1,1.3C82.3,1553.7,82.1,1553.8,81.9,1553.8z"/>
		</g>
		<g>
			<path d="M63.4,1553.8c-0.3,0-0.5-0.1-0.7-0.3c-0.2-0.2-5.4-5.9-5.4-10.5v-2.5l-8.3-11c-0.8-0.8-1.3-2.1-1.3-3.5
				c0-1.4,0.5-2.7,1.3-3.5s2.1-1.3,3.5-1.3s2.7,0.5,3.5,1.3l8.5,8.5c0.4,0.4,0.4,1,0,1.4s-1,0.4-1.4,0l-8.5-8.5
				c-0.5-0.5-1.3-0.8-2.2-0.8c-0.9,0-1.7,0.3-2.2,0.8s-0.8,1.3-0.8,2.2s0.3,1.7,0.8,2.2l0.1,0.1l8.7,11.6v3.2c0,3.2,3.5,7.7,4.9,9.2
				c0.4,0.4,0.3,1-0.1,1.4C63.9,1553.7,63.7,1553.8,63.4,1553.8z"/>
		</g>
	</g>
	<g>
		<path class="st30" d="M35.5,1504.4c-6.8,0-12.3,5.5-12.3,12.3s5.5,12.3,12.3,12.3c6.8,0,12.3-5.5,12.3-12.3
			S42.3,1504.4,35.5,1504.4z M35.5,1528.2c-6.4,0-11.5-5.1-11.5-11.5s5.1-11.5,11.5-11.5c6.4,0,11.5,5.1,11.5,11.5
			S41.8,1528.2,35.5,1528.2z"/>
		<path class="st30" d="M40,1510.5c-1,0-1.8,0.8-1.8,1.8c0,0.6,0.3,1.1,0.8,1.4c-1.4,1.7-2.5,3.8-3.1,6v-3.4h-0.7v3.5
			c-0.6-2.2-1.7-4.3-3.1-6c0.4-0.3,0.8-0.9,0.8-1.4c0-1-0.8-1.8-1.8-1.8s-1.8,0.8-1.8,1.8s0.8,1.8,1.8,1.8h0.3
			c2.4,2.8,3.9,6.8,3.9,10.9h0.7c0-4.2,1.4-8.1,3.9-10.9H40c1,0,1.8-0.8,1.8-1.8C41.8,1511.2,41,1510.5,40,1510.5L40,1510.5z"/>
		<path class="st30" d="M33.8,1510.2c0,1,0.8,1.8,1.8,1.8c1,0,1.8-0.8,1.8-1.8c0-1-0.8-1.8-1.8-1.8
			C34.5,1508.5,33.8,1509.3,33.8,1510.2L33.8,1510.2z"/>
		<path class="st30" d="M34.1,1514c0,0.8,0.6,1.4,1.4,1.4s1.4-0.6,1.4-1.4s-0.6-1.4-1.4-1.4S34.1,1513.2,34.1,1514L34.1,1514z"/>
	</g>
</g>
</svg>
