<?xml version="1.0" encoding="utf-8"?>
<!-- Generator: Adobe Illustrator 19.2.1, SVG Export Plug-In . SVG Version: 6.00 Build 0)  -->
<svg version="1.1" id="Capa_1" xmlns="http://www.w3.org/2000/svg" xmlns:xlink="http://www.w3.org/1999/xlink" x="0px" y="0px"
	 width="90px" height="558.61px" viewBox="0 0 90 558.61" enable-background="new 0 0 90 558.61" xml:space="preserve">
<g>
	<g>
		
			<path fill="none" stroke="#2B2B2B" stroke-width="1.5" stroke-linecap="round" stroke-linejoin="round" stroke-miterlimit="10" d="
			M45.85,20.99c0-4.8,3.9-8.7,8.7-8.7"/>
		
			<path fill="none" stroke="#2B2B2B" stroke-width="1.5" stroke-linecap="round" stroke-linejoin="round" stroke-miterlimit="10" d="
			M40.25,38.49l2.3-2.5c7.5,6,18.5,5.5,25.4-1.5c7.4-7.5,7.3-19.5-0.2-27c-7.5-7.4-19.5-7.3-27,0.2c-6.8,6.9-7.2,17.7-1.4,25.1
			l-2.3,2.5 M65.05,31.49c-5.7,5.8-15.1,5.9-21,0.2c-5.8-5.7-5.9-15.1-0.2-21c5.7-5.8,15.1-5.9,21-0.2
			C70.65,16.19,70.75,25.59,65.05,31.49z"/>
		
			<path fill="none" stroke="#2B2B2B" stroke-width="1.5" stroke-linecap="round" stroke-linejoin="round" stroke-miterlimit="10" d="
			M36.05,34.19l-11.2,10.5c-0.1,0.1-0.2,0.2-0.2,0.2c-1.6,1.7-1.5,4.4,0.2,6s4.4,1.5,6-0.2l10.5-11.2L36.05,34.19z"/>
	</g>
	<g>
		
			<path fill="none" stroke="#2B2B2B" stroke-width="1.5" stroke-linecap="round" stroke-linejoin="round" stroke-miterlimit="10" d="
			M57.45,88.99h5.8c0.9,0,1.7,0.8,1.7,1.7v35.7c0,0.9-0.8,1.7-1.7,1.7h-29.6c-0.9,0-1.7-0.8-1.7-1.7v-35.7c0-0.9,0.8-1.7,1.7-1.7
			h5.5"/>
		
			<path fill="none" stroke="#2B2B2B" stroke-width="1.5" stroke-linecap="round" stroke-linejoin="round" stroke-miterlimit="10" d="
			M57.45,88.99v-3.5h-4c0-2.6-2.2-4.9-4.9-4.9c-2.7,0-4.9,2.3-4.9,4.9h-4.3v3.5 M39.25,88.99v4.3h18.2v-4.3"/>
		<g>
			<path fill="#2B2B2B" d="M39.95,104.69L39.95,104.69c-0.3,0-0.5-0.2-0.6-0.4l-2-2.3c-0.2-0.3-0.1-0.8,0.3-1c0.3-0.2,0.8-0.1,1,0.3
				l1.3,1.5l3.6-3.9c0.2-0.3,0.7-0.4,1-0.2s0.4,0.7,0.2,1l-4,4.6C40.35,104.59,40.25,104.69,39.95,104.69z"/>
		</g>
		
			<line fill="none" stroke="#2B2B2B" stroke-width="1.5" stroke-linecap="round" stroke-linejoin="round" stroke-miterlimit="10" x1="48.75" y1="102.89" x2="58.35" y2="102.89"/>
		
			<line fill="none" stroke="#2B2B2B" stroke-width="1.5" stroke-linecap="round" stroke-linejoin="round" stroke-miterlimit="10" x1="48.75" y1="119.49" x2="58.35" y2="119.49"/>
		
			<line fill="none" stroke="#2B2B2B" stroke-width="1.5" stroke-linecap="round" stroke-linejoin="round" stroke-miterlimit="10" x1="48.75" y1="110.79" x2="58.35" y2="110.79"/>
		
			<circle fill="none" stroke="#2B2B2B" stroke-width="1.5" stroke-linecap="round" stroke-linejoin="round" stroke-miterlimit="10" cx="48.55" cy="85.09" r="1.7"/>
		
			<circle fill="none" stroke="#2B2B2B" stroke-width="1.5" stroke-linecap="round" stroke-linejoin="round" stroke-miterlimit="10" cx="40.35" cy="110.49" r="1.9"/>
		
			<circle fill="none" stroke="#2B2B2B" stroke-width="1.5" stroke-linecap="round" stroke-linejoin="round" stroke-miterlimit="10" cx="40.35" cy="118.49" r="1.9"/>
	</g>
	<g>
		
			<polyline fill="none" stroke="#2B2B2B" stroke-width="1.5" stroke-linecap="round" stroke-linejoin="round" stroke-miterlimit="10" points="
			61.75,159.99 59.85,153.49 34.55,159.79 		"/>
		
			<path fill="none" stroke="#2B2B2B" stroke-width="1.5" stroke-linecap="round" stroke-linejoin="round" stroke-miterlimit="10" d="
			M67.95,181.59v5.3c-0.3,3.8-3.3,6.8-7.1,7.2h-30.4c-2.2-0.3-3.9-2.1-4.4-4.3v-25.5c0.5-2.2,2.3-3.9,4.4-4.4h30.4
			c3.8,0.5,6.8,3.6,7.1,7.4v5"/>
		
			<path fill="none" stroke="#2B2B2B" stroke-width="1.5" stroke-linecap="round" stroke-linejoin="round" stroke-miterlimit="10" d="
			M70.95,178.49c0,2-1,3.1-2.8,3.1h-7.9c-1.8,0-3.3-1.1-3.3-3.1v-2.3c0-2,1.3-4,3.3-3.9h7.9c1.8-0.2,2.8,1.8,2.8,3.9V178.49z"/>
		
			<circle fill="none" stroke="#2B2B2B" stroke-width="1.5" stroke-linecap="round" stroke-linejoin="round" stroke-miterlimit="10" cx="61.55" cy="176.79" r="1.4"/>
		
			<line fill="none" stroke="#2B2B2B" stroke-width="1.5" stroke-linecap="round" stroke-linejoin="round" stroke-miterlimit="10" x1="30.45" y1="164.39" x2="32.35" y2="164.39"/>
		
			<line fill="none" stroke="#2B2B2B" stroke-width="1.5" stroke-linecap="round" stroke-linejoin="round" stroke-miterlimit="10" x1="36.25" y1="164.39" x2="38.25" y2="164.39"/>
		
			<line fill="none" stroke="#2B2B2B" stroke-width="1.5" stroke-linecap="round" stroke-linejoin="round" stroke-miterlimit="10" x1="42.15" y1="164.39" x2="44.15" y2="164.39"/>
		
			<line fill="none" stroke="#2B2B2B" stroke-width="1.5" stroke-linecap="round" stroke-linejoin="round" stroke-miterlimit="10" x1="48.05" y1="164.39" x2="50.05" y2="164.39"/>
		
			<line fill="none" stroke="#2B2B2B" stroke-width="1.5" stroke-linecap="round" stroke-linejoin="round" stroke-miterlimit="10" x1="53.95" y1="164.39" x2="55.85" y2="164.39"/>
		
			<line fill="none" stroke="#2B2B2B" stroke-width="1.5" stroke-linecap="round" stroke-linejoin="round" stroke-miterlimit="10" x1="59.85" y1="164.39" x2="61.75" y2="164.39"/>
		
			<line fill="none" stroke="#2B2B2B" stroke-width="1.5" stroke-linecap="round" stroke-linejoin="round" stroke-miterlimit="10" x1="30.45" y1="189.29" x2="32.35" y2="189.29"/>
		
			<line fill="none" stroke="#2B2B2B" stroke-width="1.5" stroke-linecap="round" stroke-linejoin="round" stroke-miterlimit="10" x1="36.25" y1="189.29" x2="38.25" y2="189.29"/>
		
			<line fill="none" stroke="#2B2B2B" stroke-width="1.5" stroke-linecap="round" stroke-linejoin="round" stroke-miterlimit="10" x1="42.15" y1="189.29" x2="44.15" y2="189.29"/>
		
			<line fill="none" stroke="#2B2B2B" stroke-width="1.5" stroke-linecap="round" stroke-linejoin="round" stroke-miterlimit="10" x1="48.05" y1="189.29" x2="50.05" y2="189.29"/>
		
			<line fill="none" stroke="#2B2B2B" stroke-width="1.5" stroke-linecap="round" stroke-linejoin="round" stroke-miterlimit="10" x1="53.95" y1="189.29" x2="55.85" y2="189.29"/>
		
			<line fill="none" stroke="#2B2B2B" stroke-width="1.5" stroke-linecap="round" stroke-linejoin="round" stroke-miterlimit="10" x1="59.85" y1="189.29" x2="61.75" y2="189.29"/>
	</g>
	<g>
		
			<path fill="none" stroke="#2B2B2B" stroke-width="1.5" stroke-linecap="round" stroke-linejoin="round" stroke-miterlimit="10" d="
			M46.15,241.99v-12.2v-0.1c0.2-1.7,0-3.6-0.7-5.3c-2.3-5.8-8.8-8.5-14.5-6.2c-4.3,1.7-7,5.8-7,10.1v0.2v0.3l-0.1,13.1"/>
		
			<path fill="none" stroke="#2B2B2B" stroke-width="1.5" stroke-linecap="round" stroke-linejoin="round" stroke-miterlimit="10" d="
			M51.55,254.19c0-3.3-1-6.5-2.7-9.1"/>
		
			<path fill="none" stroke="#2B2B2B" stroke-width="1.5" stroke-linecap="round" stroke-linejoin="round" stroke-miterlimit="10" d="
			M48.85,245.09c-2.1-3.1-5.1-5.5-8.7-6.6c-0.3,0.2-0.6,0.3-0.9,0.5c-3.2,1.3-6.5,0.9-9.2-0.5c-6.6,2.1-11.5,8.4-11.5,15.7h27.6"/>
		
			<path fill="none" stroke="#2B2B2B" stroke-width="1.5" stroke-linecap="round" stroke-linejoin="round" stroke-miterlimit="10" d="
			M23.75,254.19h22.4v-12.3c-0.6-0.5-1.1-0.9-1.7-1.3c-1.1,0.9-2.4,1.6-3.7,2.1c-5.2,2.1-10.9,1-15-2.1c-0.6,0.5-1.3,0.9-1.8,1.4
			L23.75,254.19L23.75,254.19z"/>
		<g>
			
				<path fill="none" stroke="#2B2B2B" stroke-width="1.5" stroke-linecap="round" stroke-linejoin="round" stroke-miterlimit="10" d="
				M43.95,234.49c-1.7-1.8-3.6-4.6-3.8-7.7c-4.3,6.2-10.4,8-13.5,8.5c0,0,2.9,4.4,8.4,4.4C41.15,239.79,43.95,234.69,43.95,234.49z"
				/>
		</g>
		
			<path fill="none" stroke="#2B2B2B" stroke-width="1.5" stroke-linecap="round" stroke-linejoin="round" stroke-miterlimit="10" d="
			M36.95,234.29c0.4-0.7,1.1-1.3,2-1.3s1.7,0.5,2,1.3"/>
		
			<path fill="none" stroke="#2B2B2B" stroke-width="1.5" stroke-linecap="round" stroke-linejoin="round" stroke-miterlimit="10" d="
			M46.05,254.29h32.5c0-7.2-4.7-13.4-11.2-15.5c-0.3,0.2-0.7,0.3-1,0.5c-3.1,1.2-6.3,0.9-9.1-0.5c-3.4,1.1-6.3,3.3-8.3,6.2"/>
		
			<polygon fill="none" stroke="#2B2B2B" stroke-width="1.5" stroke-linecap="round" stroke-linejoin="round" stroke-miterlimit="10" points="
			64.05,242.99 62.25,240.69 60.45,242.99 61.85,244.69 60.75,246.39 60.75,252.59 61.15,254.29 63.45,254.29 63.75,252.59 
			63.75,246.39 62.65,244.69 		"/>
		
			<ellipse fill="none" stroke="#2B2B2B" stroke-width="1.5" stroke-linecap="round" stroke-linejoin="round" stroke-miterlimit="10" cx="62.25" cy="229.19" rx="11" ry="11"/>
		
			<path fill="none" stroke="#2B2B2B" stroke-width="1.5" stroke-linecap="round" stroke-linejoin="round" stroke-miterlimit="10" d="
			M63.75,233.79c0.4-0.7,1.1-1.2,2-1.2s1.6,0.5,2,1.2"/>
		
			<path fill="none" stroke="#2B2B2B" stroke-width="1.5" stroke-linecap="round" stroke-linejoin="round" stroke-miterlimit="10" d="
			M56.85,233.79c0.4-0.7,1.1-1.2,2-1.2s1.6,0.5,2,1.2"/>
		
			<path fill="none" stroke="#2B2B2B" stroke-width="1.5" stroke-linecap="round" stroke-linejoin="round" stroke-miterlimit="10" d="
			M58.15,218.99c-4.5,1.8-7.2,6.2-6.9,10.8c1.4,0.5,3,0.8,4.6,0.8c4.8,0,9-2.5,11.5-6.2c0.2,3.5,2.4,6.4,5.5,7.7
			c0.6-2.2,0.6-4.7-0.4-7C70.15,219.39,63.75,216.69,58.15,218.99z"/>
	</g>
	<g>
		<g>
			<g>
				
					<rect x="34.4" y="329.39" fill="none" stroke="#2B2B2B" stroke-width="1.5" stroke-linecap="round" stroke-linejoin="round" stroke-miterlimit="10" width="21" height="1.8"/>
				
					<path fill="none" stroke="#2B2B2B" stroke-width="1.5" stroke-linecap="round" stroke-linejoin="round" stroke-miterlimit="10" d="
					M19.9,319.59c0,2.1,1.7,3.8,3.8,3.8h42.7c2.1,0,3.8-1.7,3.8-3.8v-2.4H20L19.9,319.59L19.9,319.59z"/>
				
					<path fill="none" stroke="#2B2B2B" stroke-width="1.5" stroke-linecap="round" stroke-linejoin="round" stroke-miterlimit="10" d="
					M66.3,287.29H23.6c-2.1,0-3.8,1.7-3.8,3.8v26.1h50.1v-26.1C70,288.99,68.4,287.29,66.3,287.29z"/>
				
					<circle fill="none" stroke="#2B2B2B" stroke-linecap="round" stroke-linejoin="round" stroke-miterlimit="10" cx="44.9" cy="320.29" r="1.6"/>
				
					<line fill="none" stroke="#2B2B2B" stroke-width="1.5" stroke-linecap="round" stroke-linejoin="round" stroke-miterlimit="10" x1="52" y1="329.39" x2="52" y2="323.29"/>
				
					<line fill="none" stroke="#2B2B2B" stroke-width="1.5" stroke-linecap="round" stroke-linejoin="round" stroke-miterlimit="10" x1="37.8" y1="323.29" x2="37.8" y2="329.39"/>
				<path fill="none" stroke="#2B2B2B" stroke-linecap="round" stroke-linejoin="round" stroke-miterlimit="10" d="M44.8,304.69
					c0,0,2.3-1.7,2.3-2.9c0-1.4-1.8-1.8-2.3-0.1c-0.4-1.7-2.3-1.3-2.3,0.1C42.5,303.09,44.8,304.69,44.8,304.69"/>
				<g>
					<g>
						
							<ellipse id="SVGID_1_" fill="none" stroke="#2B2B2B" stroke-linecap="round" stroke-linejoin="round" stroke-miterlimit="10" cx="57.2" cy="302.29" rx="6.7" ry="6.7"/>
					</g>
				</g>
				<path fill="none" stroke="#2B2B2B" stroke-linecap="round" stroke-linejoin="round" stroke-miterlimit="10" d="M58.4,305.79
					c0.2-0.4,0.7-0.7,1.2-0.7s1,0.3,1.2,0.7"/>
				
					<ellipse fill="none" stroke="#2B2B2B" stroke-linecap="round" stroke-linejoin="round" stroke-miterlimit="10" cx="32.3" cy="302.29" rx="6.7" ry="6.7"/>
				<path fill="none" stroke="#2B2B2B" stroke-linecap="round" stroke-linejoin="round" stroke-miterlimit="10" d="M33.3,305.09
					c0.2-0.4,0.7-0.7,1.2-0.7s1,0.3,1.2,0.7"/>
				<path fill="none" stroke="#2B2B2B" stroke-linecap="round" stroke-linejoin="round" stroke-miterlimit="10" d="M29,305.09
					c0.2-0.4,0.7-0.7,1.2-0.7s1,0.3,1.2,0.7"/>
				<path fill="none" stroke="#2B2B2B" stroke-linecap="round" stroke-linejoin="round" stroke-miterlimit="10" d="M25.6,302.69
					c0.9,0.3,1.8,0.4,2.8,0.4c3,0,5.5-1.5,7-3.8c0.1,2.1,1.4,3.9,3.3,4.7"/>
			</g>
			<path fill="none" stroke="#2B2B2B" stroke-linecap="round" stroke-linejoin="round" stroke-miterlimit="10" d="M51.9,306.29
				c1.9-0.3,5.8-1.3,8.6-5c0.1,1.8,1.4,3.5,2.4,4.5"/>
		</g>
	</g>
	<path fill="none" stroke="#B5B5B5" stroke-width="1.5" stroke-linecap="round" stroke-linejoin="round" stroke-miterlimit="10" d="
		M11.15,475.59v-52.8c0-1.4,0-8.3-5.9-8.3l0,0c5.9,0,5.9-6.8,5.9-8.3v-52.8"/>
</g>
<g>
	<path fill="none" stroke="#2B2B2B" stroke-width="1.5" stroke-linecap="round" stroke-linejoin="round" stroke-miterlimit="10" d="
		M35.9,537.85c-1-0.1-2.3-0.5-3.3-0.8l-10.8,4.1l4.1-7.4c-3.3-2.6-5-6.3-5-10.4c0-8,7.9-14.5,17.7-14.5s17.7,6.5,17.7,14.5"/>
	<path fill="none" stroke="#2B2B2B" stroke-width="1.5" stroke-linecap="round" stroke-linejoin="round" stroke-miterlimit="10" d="
		M39.8,541.15c0,8.9,10.7,15.7,20.1,11.5l8.3,3.3l-3.3-6.5c2.7-2.2,4.2-5,4.2-8.3c0-6.6-6.5-12.5-14.6-12.5S39.8,534.65,39.8,541.15
		z"/>
</g>
</svg>
