<?xml version="1.0" encoding="UTF-8"?>
<svg width="76px" height="714px" viewBox="0 0 76 714" version="1.1" xmlns="http://www.w3.org/2000/svg" xmlns:xlink="http://www.w3.org/1999/xlink">
    <g id="sprite_tools" stroke="none" stroke-width="1" fill="none" fill-rule="evenodd">
        <g transform="translate(1.000000, 1.000000)">
            <g>
                <g id="find_vendors" transform="translate(19.000000, 0.000000)" stroke="#2B2B2B" stroke-linecap="round" stroke-linejoin="round" stroke-width="1.5">
                    <circle id="Oval" cx="19.1" cy="18.3" r="18.3"/>
                    <path d="M29.5,13.9 C27.8,9.7 23.7,7 19.1,7" id="Shape"/>
                    <path d="M32.6,31.5 L49.9,48.9" id="Shape_1_"/>
                </g>
                <g id="checklist" transform="translate(26.000000, 78.000000)">
                    <path d="M26.5,9 L32.3,9 C33.2,9 34,9.8 34,10.7 L34,46.4 C34,47.3 33.2,48.1 32.3,48.1 L2.6,48.1 C1.7,48.1 0.9,47.3 0.9,46.4 L0.9,10.7 C0.9,9.8 1.7,9 2.6,9 L8.1,9" id="Shape_2_" stroke="#2B2B2B" stroke-width="1.5" stroke-linecap="round" stroke-linejoin="round"/>
                    <path d="M26.5,9 L26.5,5.5 L22.5,5.5 C22.5,2.9 20.3,0.6 17.6,0.6 C14.9,0.6 12.7,2.9 12.7,5.5 L8.4,5.5 L8.4,9 M8.2,9 L8.2,11.2 L26.4,11.2 L26.4,9" id="Shape_3_" stroke="#2B2B2B" stroke-width="1.5" stroke-linecap="round" stroke-linejoin="round"/>
                    <path d="M9,24.7 C8.7,24.7 8.5,24.5 8.4,24.3 L6.4,22 C6.2,21.7 6.3,21.2 6.7,21 C7,20.8 7.5,20.9 7.7,21.3 L9,22.8 L12.6,18.9 C12.8,18.6 13.3,18.5 13.6,18.7 C13.9,18.9 14,19.4 13.8,19.7 L9.8,24.3 C9.3,24.6 9.2,24.7 9,24.7 Z" id="Shape_4_" fill="#2B2B2B" fill-rule="nonzero"/>
                    <path d="M17.8,22.9 L27.3,22.9" id="Shape_5_" stroke="#2B2B2B" stroke-width="1.5" stroke-linecap="round" stroke-linejoin="round"/>
                    <path d="M17.8,39.5 L27.3,39.5" id="Shape_6_" stroke="#2B2B2B" stroke-width="1.5" stroke-linecap="round" stroke-linejoin="round"/>
                    <path d="M17.8,30.8 L27.3,30.8" id="Shape_7_" stroke="#2B2B2B" stroke-width="1.5" stroke-linecap="round" stroke-linejoin="round"/>
                    <circle id="Oval_1_" stroke="#2B2B2B" stroke-width="1.5" stroke-linecap="round" stroke-linejoin="round" cx="17.5" cy="5.1" r="1.7"/>
                    <circle id="Oval_2_" stroke="#2B2B2B" stroke-width="1.5" stroke-linecap="round" stroke-linejoin="round" cx="9.3" cy="30.5" r="1.9"/>
                    <circle id="Oval_3_" stroke="#2B2B2B" stroke-width="1.5" stroke-linecap="round" stroke-linejoin="round" cx="9.3" cy="38.5" r="1.9"/>
                </g>
                <g id="Group" transform="translate(14.000000, 286.000000)">
                    <path d="M50.5,5 C50.5,2.6 48.6,0.7 46.2,0.7 L4.9,0.7 C2.5,0.7 0.6,2.6 0.6,5 L0.6,13.2 L50.5,13.2 L50.5,5 Z" id="Shape_8_" stroke="#2B2B2B" stroke-width="1.5" stroke-linecap="round" stroke-linejoin="round"/>
                    <path d="M4.9,39.6 L46.2,39.6 C48.6,39.6 50.5,37.7 50.5,35.3 L50.5,13.1 L0.6,13.1 L0.6,35.3 C0.6,37.7 2.5,39.6 4.9,39.6 Z" id="Shape_9_" stroke="#2B2B2B" stroke-width="1.5" stroke-linecap="round" stroke-linejoin="round"/>
                    <polyline id="Shape_10_" stroke="#2B2B2B" stroke-width="1.5" stroke-linecap="round" stroke-linejoin="round" points="8 23 10.4 29.7 12.9 23 15.4 29.7 17.9 23"/>
                    <polyline id="Shape_11_" stroke="#2B2B2B" stroke-width="1.5" stroke-linecap="round" stroke-linejoin="round" points="20.6 23 23 29.7 25.5 23 28 29.7 30.5 23"/>
                    <polyline id="Shape_12_" stroke="#2B2B2B" stroke-width="1.5" stroke-linecap="round" stroke-linejoin="round" points="33.3 23 35.8 29.7 38.2 23 40.7 29.7 43.2 23"/>
                    <circle id="Oval_4_" fill="#2B2B2B" fill-rule="nonzero" cx="44.2" cy="6.9" r="1"/>
                    <circle id="Oval_5_" fill="#2B2B2B" fill-rule="nonzero" cx="40.6" cy="6.9" r="1"/>
                    <circle id="Oval_6_" fill="#2B2B2B" fill-rule="nonzero" cx="37" cy="6.9" r="1"/>
                </g>
                <path d="M63.1,170.3 L63.1,162.3 C63.1,159.9 61.2,158 58.8,158 L25.6,158 C23.2,158 21.3,159.9 21.3,162.3 L21.3,170.5 L21.3,188.2 C21.3,190.6 23.2,192.5 25.6,192.5 L58.8,192.5 C61.2,192.5 63.1,190.6 63.1,188.2 L63.1,179.7" id="Shape_20_" stroke="#2B2B2B" stroke-width="1.5" stroke-linecap="round" stroke-linejoin="round"/>
                <circle id="Oval_8_" fill="#2B2B2B" fill-rule="nonzero" cx="56.5" cy="175" r="1"/>
                <polyline id="Shape_21_" stroke="#2B2B2B" stroke-width="1.5" stroke-linecap="round" stroke-linejoin="round" points="30 158 54.8 151.5 57.4 158"/>
                <rect id="Rectangle-path" stroke="#2B2B2B" stroke-width="1.5" stroke-linecap="round" stroke-linejoin="round" x="51.8" y="170.3" width="13.2" height="9.3"/>
                <g id="Group_2_" transform="translate(24.000000, 161.000000)" stroke="#2B2B2B" stroke-linecap="round" stroke-linejoin="round" stroke-width="1.5">
                    <path d="M0,1.3 L1.5,1.3" id="Shape_22_"/>
                    <path d="M5.7,1.3 L32.8,1.3" id="Shape_23_" stroke-dasharray="3.132,4.176"/>
                    <path d="M34.9,1.3 L36.4,1.3" id="Shape_24_"/>
                </g>
                <g id="Group_3_" transform="translate(24.000000, 186.000000)" stroke="#2B2B2B" stroke-linecap="round" stroke-linejoin="round" stroke-width="1.5">
                    <path d="M0,1.3 L1.5,1.3" id="Shape_25_"/>
                    <path d="M5.7,1.3 L32.8,1.3" id="Shape_26_" stroke-dasharray="3.132,4.176"/>
                    <path d="M34.9,1.3 L36.4,1.3" id="Shape_27_"/>
                </g>
                <g id="Group_4_" transform="translate(13.000000, 215.000000)" stroke="#2B2B2B" stroke-linecap="round" stroke-linejoin="round" stroke-width="1.5">
                    <path d="M28.2,25 L28.2,12.8 L28.2,12.7 C28.4,11 28.2,9.1 27.5,7.4 C25.2,1.6 18.7,-1.1 13,1.2 C8.7,2.9 6,7 6,11.3 L6,11.5 L6,11.8 L5.9,24.9" id="Shape_28_"/>
                    <path d="M33.5,37.2 C33.5,33.9 32.5,30.7 30.8,28.1" id="Shape_29_"/>
                    <path d="M30.8,28.1 C28.7,25 25.7,22.6 22.1,21.5 C21.8,21.7 21.5,21.8 21.2,22 C18,23.3 14.7,22.9 12,21.5 C5.4,23.6 0.5,29.9 0.5,37.2 L28.1,37.2" id="Shape_30_"/>
                    <path d="M26,17.5 C24.3,15.7 22.4,12.9 22.2,9.8 C17.9,16 11.8,17.8 8.7,18.3 C8.7,18.3 11.6,22.7 17.1,22.7 C23.2,22.8 26,17.7 26,17.5 Z" id="Shape_31_"/>
                    <path d="M28,37.3 L60.5,37.3 C60.5,30.1 55.8,23.9 49.3,21.8 C49,22 48.6,22.1 48.3,22.3 C45.2,23.5 42,23.2 39.2,21.8 C35.8,22.9 32.9,25.1 30.9,28" id="Shape_32_"/>
                    <circle id="Oval_9_" cx="44.2" cy="12.2" r="11"/>
                    <path d="M40.2,2 C35.7,3.8 33,8.2 33.3,12.8 C34.7,13.3 36.3,13.6 37.9,13.6 C42.7,13.6 46.9,11.1 49.4,7.4 C49.6,10.9 51.8,13.8 54.9,15.1 C55.5,12.9 55.5,10.4 54.5,8.1 C52.2,2.4 45.8,-0.3 40.2,2 Z" id="Shape_33_"/>
                </g>
                <path d="M6.1,473.6 L6.1,420.8 C6.1,419.4 6.1,412.5 0.2,412.5 C6.1,412.5 6.1,405.7 6.1,404.2 L6.1,351.4" id="Shape_34_" stroke="#B5B5B5" stroke-width="1.5" stroke-linecap="round" stroke-linejoin="round"/>
                <g id="forums_1_" transform="translate(14.000000, 506.000000)" stroke="#2B2B2B" stroke-linecap="round" stroke-linejoin="round" stroke-width="1.5">
                    <path d="M43.6,18.1 C43.6,8.6 34,0.8 22.1,0.8 C10.2,0.8 0.6,8.5 0.6,18.1 C0.6,23.8 4,28.8 9.2,31.9 C8.5,34.2 7.2,38.1 6.7,39.6 C6.3,40.9 12.1,38.7 17.2,36.9" id="Shape_35_"/>
                    <path d="M45.9,47.7 C45.5,46.6 44.6,43.8 44.1,42.1 C47.9,39.8 50.4,36.1 50.4,32 C50.4,25 43.4,19.4 34.7,19.4 C26,19.4 19,25.1 19,32 C19,39 26,44.6 34.7,44.6 L36.8,44.6 C39.2,46.2 46.3,48.7 45.9,47.7 Z" id="Shape_36_"/>
                </g>
            </g>
            <g id="Page-1_1_" transform="translate(18.000000, 664.000000)" stroke-width="1.5">
                <g id="Cost-guide">
                    <g id="Group-7-Copy-2_1_" transform="translate(18.785714, 23.785714) rotate(-90.000000) translate(-18.785714, -23.785714) translate(-4.714286, 5.285714)">
                        <path d="M46.2,3 C46.2,1.8 45.2,0.8 44,0.8 L2.4,0.8 C1.2,0.8 0.2,1.8 0.2,3 L0.2,34 C0.2,35.2 1.2,36.2 2.4,36.2 L44,36.2 C45.2,36.2 46.2,35.2 46.2,34 L46.2,3 Z" id="Rectangle_5_" stroke="#2B2B2B" fill="#FFFFFF" fill-rule="nonzero"/>
                        <path d="M42.4,36.2 L43.9,36.2 C45.1,36.2 46.1,35.2 46.1,34 L46.1,2.6 C46.1,1.6 45.3,0.7 44.2,0.7 C43.1,0.7 42.3,1.5 42.3,2.6 L42.3,36.2 L42.4,36.2 Z" id="Rectangle_4_" stroke="#2B2B2B" fill="#FFFFFF" fill-rule="nonzero"/>
                        <polygon id="Rectangle_3_" stroke="#2B2B2B" fill="#FFFFFF" fill-rule="nonzero" points="46.2 25.4 33.5 25.4 36.4 29.1 33.5 32.8 46.2 32.8"/>
                        <g id="Group-5_1_" transform="translate(19.892857, 19.154761) rotate(90.000000) translate(-19.892857, -19.154761) translate(14.392857, 8.654761)" stroke="#231F20" stroke-linecap="round" stroke-linejoin="round">
                            <path d="M0,13.8 C0,15.9 2.4,17.7 5.3,17.7 C9,17.7 10.6,16 10.6,13.8 C10.6,11.7 9,9.9 5.3,9.9 C1.6,9.9 0,8.2 0,6 C0,3.9 1.6,2.1 5.3,2.1 C8.2,2.1 10.6,3.8 10.6,6" id="Stroke-3_1_"/>
                            <path d="M5.7,0.6 L5.7,20.1" id="Stroke-7_1_"/>
                        </g>
                    </g>
                </g>
            </g>
        </g>
        <g id="Group" transform="translate(16.000000, 586.000000)" stroke="#2B2B2B" stroke-linecap="round" stroke-linejoin="round" stroke-width="1.5">
            <path d="M40.8,25.2 L40.8,46.2 C40.8,47.1 40.1,47.9 39.1,47.9 L4.9,47.9 C4,47.9 3.2,47.2 3.2,46.2 L3.2,26.1 L3.2,25.2" id="Path"/>
            <path d="M18.5,47.5 L18.5,13.8" id="Path"/>
            <path d="M25.5,47.5 L25.5,13.8" id="Path"/>
            <path d="M41.9,25.1 L2.1,25.1 C1.4,25.1 0.8,24.5 0.8,23.8 L0.8,14.6 C0.8,13.9 1.4,13.3 2.1,13.3 L41.8,13.3 C42.5,13.3 43.1,13.9 43.1,14.6 L43.1,23.8 C43.2,24.6 42.6,25.1 41.9,25.1 Z" id="Path"/>
            <path d="M22.2,13 C22.2,13 2.1,11.5 7.3,3.2 C12.9,-5.8 22.2,13 22.2,13 Z" id="Path"/>
            <path d="M21.9,13 C21.9,13 42,11.5 36.8,3.2 C31.2,-5.8 21.9,13 21.9,13 Z" id="Path"/>
        </g>
    </g>
</svg>