<?xml version="1.0" encoding="UTF-8"?>
<svg width="76px" height="1109px" viewBox="0 0 76 1109" version="1.1" xmlns="http://www.w3.org/2000/svg" xmlns:xlink="http://www.w3.org/1999/xlink">
    <!-- Generator: Sketch 51.2 (57519) - http://www.bohemiancoding.com/sketch -->
    <title>sprite-admin-home</title>
    <desc>Created with Sketch.</desc>
    <defs/>
    <g id="sprite-admin-home" stroke="none" stroke-width="1" fill="none" fill-rule="evenodd">
        <path d="M63.9903262,169.813805 C62.1875642,167.882843 60.1379888,165.951109 57.8826928,164.149891 C51.4840616,159.03955 44.743536,155.986159 38,155.986159 C31.2573416,155.986159 24.5169868,159.039555 18.118039,164.149905 C15.8626263,165.951131 13.8128809,167.882873 12.0099188,169.813844 C11.3797931,170.488708 10.8261084,171.114542 10.353866,171.674919 C10.7936704,172.199256 11.3422094,172.746037 11.9658366,173.335364 C13.7672199,175.037669 15.8155461,176.740968 18.0700204,178.329624 C24.4760824,182.843769 31.2297232,185.543253 38,185.543253 C44.7711538,185.543253 51.524967,182.843773 57.9307113,178.329636 C60.1850682,176.740988 62.2332236,175.037697 64.034406,173.3354 C64.6579818,172.746059 65.206466,172.199267 65.6750037,171.70912 C65.173997,171.114496 64.6203815,170.488666 63.9903262,169.813805 Z M67.7516024,172.410481 C67.641142,172.536346 67.4337187,172.763358 67.1341002,173.077108 C66.6397599,173.594764 66.0628702,174.170181 65.4081565,174.788951 C63.5409795,176.55362 61.420213,178.317295 59.0827887,179.964481 C52.369158,184.695586 45.2445962,187.543253 38,187.543253 C30.7562768,187.543253 23.6319176,184.69559 16.9179796,179.964494 C14.5804539,178.317315 12.4595301,176.553648 10.5921634,174.788987 C9.93738375,174.170221 9.36042895,173.594807 8.86602717,173.077156 C8.56637239,172.763409 8.35892246,172.5364 8.248448,172.410539 C7.93251224,172.0506 7.91613234,171.517194 8.20938754,171.138548 C8.3190483,170.996956 8.52567769,170.740697 8.82450902,170.386095 C9.31804787,169.800447 9.89414437,169.149281 10.5480812,168.448915 C12.4138691,166.450658 14.5333737,164.453173 16.869961,162.587119 C23.5910132,157.219528 30.7286584,153.986159 38,153.986159 C45.272214,153.986159 52.4100634,157.219533 59.1308072,162.587133 C61.4672925,164.453195 63.5866389,166.450688 65.4522363,168.448954 C66.1061068,169.149323 66.6821377,169.800493 67.1756148,170.386144 C67.4744095,170.740749 67.6810118,170.997012 67.7906581,171.138607 C68.0838503,171.51723 68.0674732,172.050561 67.7516024,172.410481 Z M49,170.764706 C49,176.765705 44.071189,181.626298 38,181.626298 C31.928811,181.626298 27,176.765705 27,170.764706 C27,164.763706 31.928811,159.903114 38,159.903114 C44.071189,159.903114 49,164.763706 49,170.764706 Z M47,170.764706 C47,165.874564 42.972811,161.903114 38,161.903114 C33.027189,161.903114 29,165.874564 29,170.764706 C29,175.654848 33.027189,179.626298 38,179.626298 C42.972811,179.626298 47,175.654848 47,170.764706 Z" id="Combined-Shape" fill="#231F20" fill-rule="nonzero"/>
        <path d="M25.7171333,348.839959 L25.7171333,343.266667 C25.7171333,342.852453 26.0529198,342.516667 26.4671333,342.516667 L30.3833333,342.516667 L30.3833333,340.466667 C30.3833333,340.052453 30.7191198,339.716667 31.1333333,339.716667 L34.8666667,339.716667 C35.2808802,339.716667 35.6166667,340.052453 35.6166667,340.466667 L35.6166667,342.516667 L44.3833333,342.516667 L44.3833333,340.466667 C44.3833333,340.052453 44.7191198,339.716667 45.1333333,339.716667 L48.8666667,339.716667 C49.2808802,339.716667 49.6166667,340.052453 49.6166667,340.466667 L49.6166667,342.516667 L53.5338,342.516667 C53.9480136,342.516667 54.2838,342.852453 54.2838,343.266667 L54.2838,367.533333 C54.2838,367.947547 53.9480136,368.283333 53.5338,368.283333 L26.4671333,368.283333 C26.0529198,368.283333 25.7171333,367.947547 25.7171333,367.533333 L25.7171333,348.893374 C25.7168231,348.88451 25.7166667,348.875607 25.7166667,348.866667 C25.7166667,348.857727 25.7168231,348.848823 25.7171333,348.839959 Z M27.2171333,348.116667 L52.7838,348.116667 L52.7838,344.016667 L49.6166667,344.016667 L49.6166667,345.133333 C49.6166667,345.547547 49.2808802,345.883333 48.8666667,345.883333 L45.1333333,345.883333 C44.7191198,345.883333 44.3833333,345.547547 44.3833333,345.133333 L44.3833333,344.016667 L35.6166667,344.016667 L35.6166667,345.133333 C35.6166667,345.547547 35.2808802,345.883333 34.8666667,345.883333 L31.1333333,345.883333 C30.7191198,345.883333 30.3833333,345.547547 30.3833333,345.133333 L30.3833333,344.016667 L27.2171333,344.016667 L27.2171333,348.116667 Z M27.2171333,349.616667 L27.2171333,366.783333 L52.7838,366.783333 L52.7838,349.616667 L27.2171333,349.616667 Z M34.1166667,344.383333 L34.1166667,341.216667 L31.8833333,341.216667 L31.8833333,344.383333 L34.1166667,344.383333 Z M48.1166667,344.383333 L48.1166667,341.216667 L45.8833333,341.216667 L45.8833333,344.383333 L48.1166667,344.383333 Z" id="Combined-Shape" fill="#8C8C8C" fill-rule="nonzero"/>
        <path d="M17.1916274,611.25 C16.7774138,611.25 16.4416274,611.585786 16.4416274,612 L16.4416274,632.080357 C16.4416274,632.494571 16.7774138,632.830357 17.1916274,632.830357 L50.5772406,632.830357 C50.9914541,632.830357 51.3272406,632.494571 51.3272406,632.080357 L51.3272406,612 C51.3272406,611.585786 50.9914541,611.25 50.5772406,611.25 L17.1916274,611.25 Z M52.8272406,616.747554 L62.810905,613.015915 C63.5475477,612.739352 64.373308,612.840467 65.0211014,613.28667 C65.6696093,613.733365 66.0573908,614.469208 66.0583726,615.256752 L66.0583725,630.28354 C66.0579776,631.070368 65.6708797,631.806771 65.0227877,632.254456 C64.3754095,632.701647 63.5496369,632.804126 62.8119289,632.52878 L52.8272406,628.796757 L52.8272406,632.080357 C52.8272406,633.322998 51.8198813,634.330357 50.5772406,634.330357 L17.1916274,634.330357 C15.9489867,634.330357 14.9416274,633.322998 14.9416274,632.080357 L14.9416274,612 C14.9416274,610.757359 15.9489867,609.75 17.1916274,609.75 L50.5772406,609.75 C51.8198813,609.75 52.8272406,610.757359 52.8272406,612 L52.8272406,616.747554 Z M63.3367778,631.123599 C63.6148501,631.227388 63.9264084,631.188723 64.1702539,631.020281 C64.4133857,630.852333 64.5582252,630.576794 64.5583726,630.283163 L64.5583732,615.257687 C64.5580071,614.964212 64.413133,614.689303 64.1702142,614.52198 C63.9265809,614.354164 63.6154986,614.316072 63.3371042,614.420591 L52.8272406,618.34891 L52.8272406,627.195401 L63.3367778,631.123599 Z M23.9610849,617.844388 C23.5468713,617.844388 23.2110849,617.508601 23.2110849,617.094388 C23.2110849,616.680174 23.5468713,616.344388 23.9610849,616.344388 L42.1538915,616.344388 C42.5681051,616.344388 42.9038915,616.680174 42.9038915,617.094388 C42.9038915,617.508601 42.5681051,617.844388 42.1538915,617.844388 L23.9610849,617.844388 Z M23.9610849,604.655612 C18.9803134,604.655612 14.9416274,600.629855 14.9416274,595.662628 C14.9416274,590.6954 18.9803134,586.669643 23.9610849,586.669643 C28.9418564,586.669643 32.9805425,590.6954 32.9805425,595.662628 C32.9805425,600.629855 28.9418564,604.655612 23.9610849,604.655612 Z M23.9610849,603.155612 C28.114504,603.155612 31.4805425,599.800349 31.4805425,595.662628 C31.4805425,591.524906 28.114504,588.169643 23.9610849,588.169643 C19.8076658,588.169643 16.4416274,591.524906 16.4416274,595.662628 C16.4416274,599.800349 19.8076658,603.155612 23.9610849,603.155612 Z M45.4616745,604.655612 C41.3943221,604.655612 38.0961085,601.367957 38.0961085,597.311224 C38.0961085,593.254492 41.3943221,589.966837 45.4616745,589.966837 C49.5290269,589.966837 52.8272406,593.254492 52.8272406,597.311224 C52.8272406,601.367957 49.5290269,604.655612 45.4616745,604.655612 Z M45.4616745,603.155612 C48.7016746,603.155612 51.3272406,600.538451 51.3272406,597.311224 C51.3272406,594.083998 48.7016746,591.466837 45.4616745,591.466837 C42.2216745,591.466837 39.5961085,594.083998 39.5961085,597.311224 C39.5961085,600.538451 42.2216745,603.155612 45.4616745,603.155612 Z" id="Combined-Shape" fill="#000000" fill-rule="nonzero"/>
        <path d="M55.5457429,752.02429 L49.8106242,753.734262 C49.4136788,753.852614 48.9959475,753.62677 48.8775951,753.229825 C48.7592426,752.83288 48.9850868,752.415148 49.3820321,752.296796 L54.9694825,750.630853 L50.5955226,740.054314 C50.4073619,739.586822 49.8916541,739.336867 49.4087476,739.476909 L48.0341382,739.886236 C47.6371515,740.004449 47.2194992,739.778459 47.1012857,739.381472 C46.9830722,738.984486 47.2090626,738.566833 47.6060493,738.44862 L48.9857838,738.037787 C50.2125626,737.681973 51.5108998,738.311256 51.9843523,739.487656 L56.6532264,750.777438 C56.6682879,750.807788 56.6814498,750.839494 56.6925184,750.87245 L61.9358082,763.551223 C63.5225251,767.193059 62.9489597,771.410743 60.4460876,774.50225 C59.2535002,775.969666 57.7125254,777.04572 56.0115804,777.673986 L59.5534848,789.442478 L65.4469499,787.684561 C65.8438817,787.566163 66.2616389,787.791959 66.3800367,788.188891 C66.4984345,788.585823 66.2726381,789.00358 65.8757063,789.121978 L59.3052446,791.081832 C59.2928114,791.086295 59.2801935,791.090457 59.2673967,791.094308 C59.2533878,791.098525 59.2393518,791.102312 59.225303,791.105677 L52.6555501,793.065319 C52.2586183,793.183717 51.8408611,792.957921 51.7224633,792.560989 C51.6040655,792.164057 51.8298619,791.7463 52.2267937,791.627902 L58.1160633,789.871236 L54.5705302,778.090687 C52.8595378,778.453897 51.0482156,778.386512 49.3053527,777.837984 C46.8061253,777.046525 44.6878914,775.364528 43.3567384,773.114066 C43.1458592,772.757551 43.2639202,772.297588 43.620435,772.086708 C43.9769498,771.875829 44.4369136,771.99389 44.6477928,772.350405 C45.7908881,774.282935 47.6105594,775.727856 49.7569388,776.407576 C51.4227337,776.931847 53.1619153,776.941944 54.7724585,776.498528 C54.801905,776.485313 54.83254,776.473848 54.8642752,776.464297 C54.9018147,776.452999 54.9395484,776.444784 54.9772043,776.439505 C56.6340221,775.940278 58.143551,774.957061 59.2811494,773.557307 C61.4310779,770.901749 61.923748,767.278925 60.5551634,764.137416 L55.5457429,752.02429 Z M41.9713636,755.978222 C41.9688334,755.993252 41.9658316,756.008287 41.9623489,756.023309 L39.2681378,769.498363 C38.56124,773.404601 35.737551,776.597924 31.9366713,777.790962 C30.1262945,778.354535 28.2439421,778.399102 26.4783304,777.981921 L22.8765367,789.738864 L28.7575713,791.524241 C29.1539231,791.644566 29.3776867,792.063415 29.2573614,792.459767 C29.1370362,792.856119 28.7181867,793.079883 28.3218349,792.959557 L21.7216298,790.955854 C21.7214491,790.955799 21.7212684,790.955744 21.7210877,790.955689 L15.1208037,788.951961 C14.7244519,788.831636 14.5006883,788.412786 14.6210136,788.016435 C14.7413388,787.620083 15.1601883,787.396319 15.5565401,787.516645 L21.4412155,789.303126 L25.0472731,777.532265 C23.4225295,776.889167 21.9544093,775.832337 20.8115543,774.412941 C18.3225713,771.311083 17.7687016,767.089552 19.3684536,763.468071 L29.4416715,739.434112 C29.9296116,738.259949 31.2291415,737.644766 32.4529093,738.009333 L42.6791938,741.10504 C43.8999146,741.486433 44.6322235,742.728972 44.3719446,743.971753 L41.9713636,755.978222 Z M25.8184244,751.959257 L20.7462122,764.061011 C19.3671728,767.183138 19.842889,770.808992 21.980691,773.473197 C24.2500356,776.291662 28.0239747,777.437613 31.4882958,776.359543 C34.7573847,775.333085 37.1846887,772.587806 37.7946804,769.217766 L40.3624998,756.374615 L25.8184244,751.959257 Z M26.4012884,750.568606 L40.6579854,754.89672 L42.9024224,743.670991 C43.0054962,743.178773 42.7163411,742.688152 42.2382313,742.538744 L32.0214844,739.445948 C31.535908,739.301295 31.0196753,739.545674 30.8259527,740.011832 L26.4012884,750.568606 Z M29.2682214,757.754484 C29.6862907,757.880802 30.0367237,758.168418 30.241455,758.553749 C30.4465497,758.939765 30.4882922,759.391633 30.3582238,759.805631 C30.0908785,760.669061 29.1782301,761.157221 28.3030821,760.901281 C27.8860295,760.774907 27.5364064,760.487982 27.3317818,760.103676 C27.1267943,759.718688 27.0843667,759.267954 27.2136512,758.852686 C27.4729954,758.015097 28.3395955,757.530652 29.1837439,757.734144 C29.2119377,757.739238 29.2401348,757.745998 29.2682214,757.754484 Z M49.9641112,758.553749 C50.1692059,758.939765 50.2109485,759.391633 50.0808801,759.805631 C49.8135347,760.669061 48.9008863,761.157221 48.0263099,760.901454 C47.6082405,760.775135 47.2578076,760.48752 47.0530763,760.102188 C46.8479816,759.716173 46.806239,759.264305 46.9363074,758.850306 C47.2034952,757.987385 48.1152253,757.499293 48.9829112,757.752124 C48.9892572,757.753994 48.9908457,757.754472 48.9924314,757.754954 C49.4098151,757.881515 49.7596336,758.168895 49.9641112,758.553749 Z M55.3430175,763.915456 C55.5481122,764.301471 55.5898547,764.75334 55.4597863,765.167338 C55.192441,766.030768 54.2797926,766.518927 53.4052161,766.26316 C52.9871468,766.136842 52.6367138,765.849227 52.4319825,765.463895 C52.2268878,765.07788 52.1851453,764.626011 52.3152137,764.212013 C52.5824014,763.349092 53.4941315,762.860999 54.3618174,763.113831 C54.3681635,763.115701 54.3697519,763.116178 54.3713376,763.116661 C54.7887214,763.243222 55.1385398,763.530602 55.3430175,763.915456 Z M51.75708,769.262884 C51.9621747,769.648899 52.0039172,770.100767 51.8738488,770.514766 C51.6065035,771.378196 50.6938551,771.866355 49.8192786,771.610588 C49.4012093,771.48427 49.0507763,771.196655 48.846045,770.811323 C48.6409503,770.425307 48.5992078,769.973439 48.7292762,769.559441 C48.9964639,768.69652 49.908194,768.208427 50.7758799,768.461258 C50.782226,768.463129 50.7838144,768.463606 50.7854001,768.464089 C51.2027839,768.59065 51.5526023,768.87803 51.75708,769.262884 Z M33.8273925,763.915456 C34.0324872,764.301471 34.0742297,764.75334 33.9441613,765.167338 C33.676816,766.030768 32.7641676,766.518927 31.8895911,766.26316 C31.4715218,766.136842 31.1210888,765.849227 30.9163575,765.463895 C30.7112628,765.07788 30.6695203,764.626011 30.7995887,764.212013 C31.0667764,763.349092 31.9785065,762.860999 32.8461924,763.113831 C32.8525385,763.115701 32.8541269,763.116178 32.8557126,763.116661 C33.2730964,763.243222 33.6229148,763.530602 33.8273925,763.915456 Z M28.4484862,769.262884 C28.6535809,769.648899 28.6953235,770.100767 28.5652551,770.514766 C28.2979097,771.378196 27.3852613,771.866355 26.5106849,771.610588 C26.0926155,771.48427 25.7421826,771.196655 25.5374513,770.811323 C25.3323566,770.425307 25.290614,769.973439 25.4206824,769.559441 C25.6878702,768.69652 26.5996002,768.208427 27.4672862,768.461258 C27.4736322,768.463129 27.4752207,768.463606 27.4768064,768.464089 C27.8941902,768.59065 28.2440086,768.87803 28.4484862,769.262884 Z" id="Combined-Shape" fill="#000000" fill-rule="nonzero"/>
        <path d="M44.2,847.75 C44.6142136,847.75 44.95,848.085786 44.95,848.5 C44.95,848.914214 44.6142136,849.25 44.2,849.25 L27.7,849.25 C25.2284648,849.25 23.05,847.372013 23.05,845 L23.05,830.3 C23.05,827.90782 25.2602509,825.85 27.7,825.85 L51.6,825.85 C54.0195827,825.85 55.85,827.790242 55.85,830.3 L55.85,837.5 C55.85,837.914214 55.5142136,838.25 55.1,838.25 C54.6857864,838.25 54.35,837.914214 54.35,837.5 L54.35,830.3 C54.35,828.599758 53.1709833,827.35 51.6,827.35 L27.7,827.35 C26.065675,827.35 24.55,828.761146 24.55,830.3 L24.55,845 C24.55,846.490056 26.0115352,847.75 27.7,847.75 L44.2,847.75 Z" id="Shape" fill="#000000" fill-rule="nonzero"/>
        <path d="M34.7,849.25 C34.2857864,849.25 33.95,848.914214 33.95,848.5 C33.95,848.085786 34.2857864,847.75 34.7,847.75 L51.2,847.75 C52.8884648,847.75 54.35,846.490056 54.35,845 L54.35,830.3 C54.35,828.761146 52.834325,827.35 51.2,827.35 L27.3,827.35 C25.7290167,827.35 24.55,828.599758 24.55,830.3 L24.55,837.5 C24.55,837.914214 24.2142136,838.25 23.8,838.25 C23.3857864,838.25 23.05,837.914214 23.05,837.5 L23.05,830.3 C23.05,827.790242 24.8804173,825.85 27.3,825.85 L51.2,825.85 C53.6397491,825.85 55.85,827.90782 55.85,830.3 L55.85,845 C55.85,847.372013 53.6715352,849.25 51.2,849.25 L34.7,849.25 Z" id="Shape" fill="#000000" fill-rule="nonzero"/>
        <path d="M23.8,833.15 C23.3857864,833.15 23.05,832.814214 23.05,832.4 C23.05,831.985786 23.3857864,831.65 23.8,831.65 L55.1,831.65 C55.5142136,831.65 55.85,831.985786 55.85,832.4 C55.85,832.814214 55.5142136,833.15 55.1,833.15 L23.8,833.15 Z" id="Shape" fill="#000000" fill-rule="nonzero"/>
        <path d="M39.8,836.05 C40.2142136,836.05 40.55,836.385786 40.55,836.8 C40.55,837.214214 40.2142136,837.55 39.8,837.55 L29.6,837.55 C29.1857864,837.55 28.85,837.214214 28.85,836.8 C28.85,836.385786 29.1857864,836.05 29.6,836.05 L39.8,836.05 Z" id="Shape" fill="#000000" fill-rule="nonzero"/>
        <path d="M49.3,836.05 C49.7142136,836.05 50.05,836.385786 50.05,836.8 C50.05,837.214214 49.7142136,837.55 49.3,837.55 L44.9,837.55 C44.4857864,837.55 44.15,837.214214 44.15,836.8 C44.15,836.385786 44.4857864,836.05 44.9,836.05 L49.3,836.05 Z" id="Shape" fill="#000000" fill-rule="nonzero"/>
        <path d="M35.4,840.45 C35.8142136,840.45 36.15,840.785786 36.15,841.2 C36.15,841.614214 35.8142136,841.95 35.4,841.95 L29.6,841.95 C29.1857864,841.95 28.85,841.614214 28.85,841.2 C28.85,840.785786 29.1857864,840.45 29.6,840.45 L35.4,840.45 Z" id="Shape" fill="#000000" fill-rule="nonzero"/>
        <path d="M39.1928571,895.878571 L39.1928571,886.664286 L37.5428571,886.664286 C37.1286436,886.664286 36.7928571,886.328499 36.7928571,885.914286 C36.7928571,885.500072 37.1286436,885.164286 37.5428571,885.164286 L39.9428571,885.164286 C40.3570707,885.164286 40.6928571,885.500072 40.6928571,885.914286 L40.6928571,895.878571 L43.5428571,895.878571 C43.9570707,895.878571 44.2928571,896.214358 44.2928571,896.628571 C44.2928571,897.042785 43.9570707,897.378571 43.5428571,897.378571 L36.3428571,897.378571 C35.9286436,897.378571 35.5928571,897.042785 35.5928571,896.628571 C35.5928571,896.214358 35.9286436,895.878571 36.3428571,895.878571 L39.1928571,895.878571 Z M39.6,904.75 C30.7358298,904.75 23.55,897.56417 23.55,888.7 C23.55,879.83583 30.7358298,872.65 39.6,872.65 C48.4641702,872.65 55.65,879.83583 55.65,888.7 C55.65,897.56417 48.4641702,904.75 39.6,904.75 Z M39.6,903.25 C47.6357431,903.25 54.15,896.735743 54.15,888.7 C54.15,880.664257 47.6357431,874.15 39.6,874.15 C31.5642569,874.15 25.05,880.664257 25.05,888.7 C25.05,896.735743 31.5642569,903.25 39.6,903.25 Z M39.3428571,881.95 C38.5972727,881.95 37.9928571,881.345584 37.9928571,880.6 C37.9928571,879.854416 38.5972727,879.25 39.3428571,879.25 C40.0884416,879.25 40.6928571,879.854416 40.6928571,880.6 C40.6928571,881.345584 40.0884416,881.95 39.3428571,881.95 Z M39.3428571,880.45 C39.2600144,880.45 39.1928571,880.517157 39.1928571,880.6 C39.1928571,880.682843 39.2600144,880.75 39.3428571,880.75 C39.4256999,880.75 39.4928571,880.682843 39.4928571,880.6 C39.4928571,880.517157 39.4256999,880.45 39.3428571,880.45 Z" id="Combined-Shape" fill="#272425" fill-rule="nonzero"/>
        <path d="M39.6,960.35 C30.7358298,960.35 23.55,953.16417 23.55,944.3 C23.55,935.43583 30.7358298,928.25 39.6,928.25 C48.4641702,928.25 55.65,935.43583 55.65,944.3 C55.65,953.16417 48.4641702,960.35 39.6,960.35 Z M39.6,958.85 C47.6357431,958.85 54.15,952.335743 54.15,944.3 C54.15,936.264257 47.6357431,929.75 39.6,929.75 C31.5642569,929.75 25.05,936.264257 25.05,944.3 C25.05,952.335743 31.5642569,958.85 39.6,958.85 Z M38.35,946.5 L38.35,936.8 C38.35,935.8 39.85,935.8 39.85,936.8 L39.85,946.5 C39.85,947.5 38.35,947.5 38.35,946.5 Z" id="Combined-Shape" fill="#272425" fill-rule="nonzero"/>
        <path d="M39.1,950 C38.3,950 37.7,950.6 37.7,951.4 C37.7,952.2 38.3,952.8 39.1,952.8 C39.9,952.8 40.5,952.2 40.5,951.4 C40.5,950.6 39.9,950 39.1,950 Z" id="Shape" fill="#272425" fill-rule="nonzero"/>
        <path d="M31.9,1077 L48.7,1077 L48.7,1060.2 L31.9,1060.2 L31.9,1077 Z M49.7,1059.2 L49.7,1078 L30.9,1078 L30.9,1059.2 L49.7,1059.2 Z M31.4,1074.6 L31.4,1073.6 L49.2,1073.6 L49.2,1074.6 L31.4,1074.6 Z M35.0225394,1074.36732 C34.8749022,1074.60068 34.5660412,1074.67018 34.3326791,1074.52254 C34.0993171,1074.3749 34.0298233,1074.06604 34.1774606,1073.83268 L37.2774606,1068.93268 C37.4566588,1068.64943 37.8583285,1068.61925 38.0778445,1068.87253 L40.179557,1071.29759 L42.4494992,1066.58309 C42.6348475,1066.19814 43.186403,1066.20796 43.3579346,1066.59926 L46.5579346,1073.89926 C46.6687994,1074.15217 46.5536487,1074.44707 46.3007384,1074.55793 C46.0478282,1074.6688 45.7529302,1074.55365 45.6420654,1074.30074 L42.8786979,1067.99681 L40.7505008,1072.41691 C40.594491,1072.74093 40.1576832,1072.79923 39.9221555,1072.52747 L37.7628146,1070.03592 L35.0225394,1074.36732 Z M36.2,1066.6 C34.9849736,1066.6 34,1065.61503 34,1064.4 C34,1063.18497 34.9849736,1062.2 36.2,1062.2 C37.4150264,1062.2 38.4,1063.18497 38.4,1064.4 C38.4,1065.61503 37.4150264,1066.6 36.2,1066.6 Z M36.2,1065.6 C36.8627417,1065.6 37.4,1065.06274 37.4,1064.4 C37.4,1063.73726 36.8627417,1063.2 36.2,1063.2 C35.5372583,1063.2 35,1063.73726 35,1064.4 C35,1065.06274 35.5372583,1065.6 36.2,1065.6 Z" id="Combined-Shape" fill="#FFFFFF" fill-rule="nonzero"/>
        <path d="M32.5299316,990.457993 C32.4273741,990.666727 32.228624,990.811589 31.9985147,990.845322 L15.4302571,993.274177 L27.3973803,1004.89443 C27.5648629,1005.05705 27.641158,1005.29194 27.6012097,1005.52195 L24.7380535,1022.00679 L39.5739489,1014.28518 C39.7783053,1014.17882 40.0216947,1014.17882 40.2260511,1014.28518 L55.0619465,1022.00679 L52.1987903,1005.52195 C52.158842,1005.29194 52.2351371,1005.05705 52.4026197,1004.89443 L64.3697429,993.274177 L47.8014853,990.845322 C47.571376,990.811589 47.3726259,990.666727 47.2700684,990.457993 L39.9,975.457736 L32.5299316,990.457993 Z M39.2661471,973.544798 C39.5247815,973.018401 40.2752185,973.018401 40.5338529,973.544798 L48.3739442,989.501689 L65.9916392,992.084388 C66.5710093,992.169322 66.8012839,992.881894 66.381185,993.289816 L53.6542596,1005.64785 L56.6978176,1023.17136 C56.7978704,1023.74742 56.194599,1024.18861 55.6759553,1023.91867 L39.9,1015.70779 L24.1240447,1023.91867 C23.605401,1024.18861 23.0021296,1023.74742 23.1021824,1023.17136 L26.1457404,1005.64785 L13.418815,993.289816 C12.9987161,992.881894 13.2289907,992.169322 13.8083608,992.084388 L31.4260558,989.501689 L39.2661471,973.544798 Z" id="Shape" fill="#000000" fill-rule="nonzero"/>
        <path d="M33.8,1096.6 L42.5,1096.6 C43.3,1096.6 44,1097.3 44,1098.1 L44,1106.8 C44,1107.6 43.3,1108.3 42.5,1108.3 L33.8,1108.3 C33,1108.3 32.3,1107.6 32.3,1106.8 L32.3,1098.1 C32.2,1097.2 32.9,1096.6 33.8,1096.6 Z" id="Shape" stroke="#FFFFFF"/>
        <polyline id="Shape" stroke="#4BAA3B" stroke-width="2" stroke-linecap="round" stroke-linejoin="round" points="36.2 1100 40.8 1104.2 48.3 1094.6"/>
        <path d="M39,81.6875 L39,89.8356139 C43.6891475,90.0528409 47.9813713,91.7898552 51.3954006,94.5653858 L54.3045364,91.65625 L54.1678932,91.5196068 C53.7773689,91.1290825 53.7773689,90.4959175 54.1678932,90.1053932 C54.5584175,89.7148689 55.1915825,89.7148689 55.5821068,90.1053932 L57.2696068,91.7928932 C57.6601311,92.1834175 57.6601311,92.8165825 57.2696068,93.2071068 C56.8790825,93.5976311 56.2459175,93.5976311 55.8553932,93.2071068 L55.71875,93.0704636 L52.8887584,95.9004551 C56.8148347,99.7562038 59.25,105.12497 59.25,111.0625 C59.25,122.798551 49.7360509,132.3125 38,132.3125 C26.2639491,132.3125 16.75,122.798551 16.75,111.0625 C16.75,99.6616518 25.7282394,90.3577837 37,89.8356139 L37,81.6875 L32.9375,81.6875 C32.3852153,81.6875 31.9375,81.2397847 31.9375,80.6875 C31.9375,80.1352153 32.3852153,79.6875 32.9375,79.6875 L43.0625,79.6875 C43.6147847,79.6875 44.0625,80.1352153 44.0625,80.6875 C44.0625,81.2397847 43.6147847,81.6875 43.0625,81.6875 L39,81.6875 Z M38,130.3125 C48.6314814,130.3125 57.25,121.693981 57.25,111.0625 C57.25,100.431019 48.6314814,91.8125 38,91.8125 C27.3685186,91.8125 18.75,100.431019 18.75,111.0625 C18.75,121.693981 27.3685186,130.3125 38,130.3125 Z M38.7420395,112.079644 C39.112267,112.489461 39.0801732,113.121812 38.6703561,113.49204 C38.260539,113.862267 37.6281879,113.830173 37.2579605,113.420356 L28.8204605,104.080606 C28.450233,103.670789 28.4823268,103.038438 28.8921439,102.66821 C29.301961,102.297983 29.9343121,102.330077 30.3045395,102.739894 L38.7420395,112.079644 Z" id="Combined-Shape" fill="#000000" fill-rule="nonzero"/>
        <path d="M45.2344883,227.794124 C44.1123386,226.807463 43.2026039,225.518271 42.6297509,223.984764 C40.8154495,219.128906 43.0521251,213.624381 47.6605441,211.680454 C52.2995102,209.723642 57.5451792,212.12975 59.3706745,217.014596 C60.8282529,220.916918 59.6693613,225.239112 56.766205,227.794642 C61.1239366,230.052724 64,234.739348 64,240 C64,240.552285 63.5522847,241 63,241 C62.4477153,241 62,240.552285 62,240 C62,235.080905 59.0787913,230.766907 54.8130917,229.102851 C54.6583444,229.179074 54.5006465,229.251148 54.3400692,229.318897 C52.1056741,230.261883 49.7306533,230.192679 47.664828,229.321666 C47.5006584,229.255011 47.3379673,229.183285 47.1769601,229.106525 C42.9150123,230.774368 40,235.085802 40,240 C40,240.552285 39.5522847,241 39,241 C38.4477153,241 38,240.552285 38,240 C38,234.740068 40.874964,230.052871 45.2344883,227.794124 Z M48.4378602,213.523218 C44.834892,215.043025 43.0578759,219.416315 44.5032736,223.284826 C45.9377377,227.124837 49.9907208,228.983644 53.5625213,227.476231 C57.164553,225.956512 58.9418205,221.582416 57.497191,217.714639 C56.0625885,213.875905 52.009261,212.016727 48.4378602,213.523218 Z M40.4472516,249.299534 C42.5263249,247.222572 45.8969272,247.222572 47.9741167,249.299761 L52.5620364,253.885967 C54.6388794,255.96492 54.6388794,259.333255 52.5611952,261.41516 L50.0453842,263.927543 C47.533905,266.441 43.5948408,266.834906 40.6279737,264.874159 C29.469009,257.491995 19.62729,247.650276 12.2448752,236.490932 C10.2807524,233.519009 10.6733929,229.590273 13.1914638,227.074179 L15.706321,224.559322 C17.7854766,222.480166 21.1566328,222.480166 23.2336774,224.559322 L27.8193917,229.145036 C29.8967731,231.222418 29.8967731,234.595011 27.8193917,236.672392 L26.9353631,237.556421 C30.6937809,242.054913 35.0602815,246.422219 39.561379,250.185407 L40.4472516,249.299534 Z M26.4051781,235.258179 C27.701511,233.961846 27.701511,231.855582 26.4051781,230.55925 L21.8191048,225.973176 C20.5227941,224.675548 18.4185218,224.675548 17.1205345,225.973535 L14.6053997,228.48867 C12.7602853,230.332336 12.4728415,233.208481 13.9131583,235.387832 C21.1469941,246.322581 30.7967036,255.972291 41.7310677,263.205872 C43.9053175,264.642792 46.7918042,264.354144 48.6313746,262.513126 L51.1467463,260.001183 C52.4439761,258.701316 52.4439761,256.597651 51.147596,255.299953 L46.5600353,250.714107 C45.2636426,249.417714 43.1588163,249.417714 41.861106,250.714107 L40.3319631,252.24325 C39.9684499,252.606763 39.3885399,252.635433 38.9909439,252.309548 C33.9094375,248.144549 28.9705046,243.204722 24.8112163,238.12634 C24.4855689,237.728733 24.5143368,237.14902 24.8777496,236.785608 L26.4051781,235.258179 Z" id="Combined-Shape" fill="#2B2B2B" fill-rule="nonzero"/>
        <path d="M44.2761929,300.371503 C44.2588741,300.578074 44.25,300.787731 44.25,301 C44.25,304.475131 46.6284531,307.25 49.500594,307.25 C52.3709529,307.25 54.75,304.474438 54.75,301 C54.75,300.881163 54.7472169,300.763144 54.7417261,300.646025 C54.6625893,300.647446 54.6299758,300.649773 54.6025502,300.654267 C52.7686356,300.97125 51.3947902,300.503645 50.2777365,299.193715 C49.2602673,300.07163 47.615444,300.665225 46.1494519,300.665225 C45.4761514,300.665225 44.8658732,300.570958 44.2761929,300.371503 Z M44.560445,298.878425 C45.055421,299.074768 45.5601997,299.165225 46.1494519,299.165225 C47.5457777,299.165225 49.221604,298.410973 49.6824403,297.6218 C49.9653171,297.137379 50.66042,297.123602 50.9622684,297.596435 C51.8615865,299.005179 52.7934534,299.444719 54.3529888,299.175185 C54.4108242,299.165664 54.4631869,299.15918 54.5172046,299.154746 C53.8519706,296.592712 51.8393748,294.75 49.500594,294.75 C47.2452923,294.75 45.2943946,296.460961 44.560445,298.878425 Z M53.7648329,307.010407 L53.7648329,309.119524 L57.8153478,311.440672 C59.4790718,312.365285 60.75,314.074989 60.75,315.88884 L60.75,318.75 L45.75,318.75 L21.25,318.75 L21.25,315.696737 C21.25,313.621114 22.5360428,311.845435 24.5316413,310.899338 L29.3,308.338426 L29.3,306.634119 C26.877554,305.063115 25.25,301.997277 25.25,298.5 C25.25,293.419814 28.6842705,289.25 33.0005954,289.25 C37.0567303,289.25 40.3342775,292.934138 40.7133834,297.595154 C40.7271405,297.637639 40.7372807,297.681955 40.7434016,297.727793 C40.7542658,297.809154 40.7516522,297.889208 40.7372808,297.965703 C40.7457229,298.142573 40.75,298.32072 40.75,298.5 C40.75,301.573961 39.4925626,304.314748 37.5433164,306 L37.7,306 L37.7,308.340525 L42.4114962,310.896013 C42.4838753,310.934008 42.5556073,310.973254 42.6266354,311.01371 L45.25,309.262486 L45.25,307.024516 C43.7206737,305.599713 42.75,303.423576 42.75,301 C42.75,296.743354 45.7442966,293.25 49.500594,293.25 C53.2551094,293.25 56.25,296.744047 56.25,301 C56.25,303.415322 55.2854218,305.585254 53.7648329,307.010407 Z M52.2648329,308.074551 C51.4230869,308.508279 50.4881162,308.75 49.500594,308.75 C48.518315,308.75 47.5881441,308.511113 46.75,308.082159 L46.75,310.064673 L43.9182632,311.954995 C45.0190679,312.966922 45.75,314.301884 45.75,315.696737 L45.75,317.25 L59.25,317.25 L59.25,315.88884 C59.25,314.691342 58.3161279,313.435059 57.0781276,312.746968 L52.2648329,309.988789 L52.2648329,308.074551 Z M39.248634,298.663709 C37.1949333,299.020883 35.6634877,298.285842 34.4262961,296.410684 C33.2611347,297.710296 31.2960564,298.623822 29.5390257,298.623822 C28.5264362,298.623822 27.6350724,298.396091 26.7677786,297.910984 C26.7559993,298.105318 26.75,298.30174 26.75,298.5 C26.75,302.809062 29.5839666,306.25 33.0005954,306.25 C36.3728251,306.25 39.1779422,302.895685 39.248634,298.663709 Z M26.9758182,296.429379 C27.1144132,296.424778 27.2559047,296.458523 27.3838807,296.534771 C28.0658261,296.941075 28.7363009,297.123822 29.5390257,297.123822 C31.2000289,297.123822 33.2057428,295.977799 33.7990558,294.686807 C34.0615353,294.115678 34.8679727,294.101404 35.150499,294.662887 C36.2448073,296.837681 37.3611164,297.52432 39.1560986,297.154564 C38.6391445,293.496517 36.0520462,290.75 33.0005954,290.75 C30.1535042,290.75 27.7110112,293.139374 26.9758182,296.429379 Z M30.8,307.374174 L30.8,309.235471 L30.4048587,309.447687 L25.2080748,312.237638 C23.6730149,312.966187 22.75,314.240622 22.75,315.696737 L22.75,317.25 L44.25,317.25 L44.25,315.696737 C44.25,314.373473 43.1570576,312.981505 41.7053247,312.219349 L36.2,309.233378 L36.2,306.93113 C35.2272314,307.456781 34.1448971,307.75 33.0005954,307.75 C32.2345226,307.75 31.4962345,307.61865 30.8,307.374174 Z" id="Combined-Shape" fill="#8C8C8C" fill-rule="nonzero"/>
        <path d="M45.5,407.857143 C45.5,404.187365 42.5265094,401.214286 38.8585714,401.214286 C35.1872673,401.214286 32.2142857,404.186446 32.2142857,407.857143 C32.2142857,411.52692 35.1877763,414.5 38.8585714,414.5 C42.5260005,414.5 45.5,411.526 45.5,407.857143 Z M44.2586747,413.264502 L50.6397337,419.646913 C50.8349751,419.842195 50.8349416,420.158778 50.6396588,420.354019 C50.444376,420.549261 50.1277935,420.549227 49.932552,420.353945 L43.5050409,413.925072 C42.2174553,414.9129 40.606474,415.5 38.8585714,415.5 C34.6355225,415.5 31.2142857,412.079236 31.2142857,407.857143 C31.2142857,403.634099 34.6350444,400.214286 38.8585714,400.214286 C43.0787633,400.214286 46.5,403.63505 46.5,407.857143 C46.5,409.969242 45.6433325,411.881194 44.2586747,413.264502 Z" id="Combined-Shape" fill="#8C8C8C" fill-rule="nonzero"/>
        <path d="M55.25,471.814253 L55.25,455.209788 C55.25,454.448924 54.639115,453.75 54.068,453.75 L29.932,453.75 C29.360885,453.75 28.75,454.448924 28.75,455.209788 L28.75,471.814253 C28.75,472.568767 29.3543199,473.25 29.932,473.25 L54.068,473.25 C54.6456801,473.25 55.25,472.568767 55.25,471.814253 Z M56.75,471.814253 C56.75,473.359838 55.5167905,474.75 54.068,474.75 L29.932,474.75 C28.4832095,474.75 27.25,473.359838 27.25,471.814253 L27.25,455.209788 C27.25,453.662048 28.4841807,452.25 29.932,452.25 L54.068,452.25 C55.5158193,452.25 56.75,453.662048 56.75,455.209788 L56.75,471.814253 Z M42.4326234,464.147352 C42.7709793,464.386284 42.8515788,464.854268 42.6126475,465.192623 C42.3737162,465.530979 41.9057325,465.611579 41.5673766,465.372648 L30.8614942,457.812648 C30.5231384,457.573716 30.4425388,457.105732 30.6814701,456.767377 C30.9204014,456.429021 31.3883852,456.348421 31.7267411,456.587352 L42.4326234,464.147352 Z M53.241437,468.434946 C53.5314161,468.730725 53.5267146,469.205576 53.2309359,469.495555 C52.9351573,469.785534 52.4603068,469.780832 52.1703277,469.485054 L48.0526807,465.285054 C47.7627016,464.989275 47.7674031,464.514424 48.0631817,464.224445 C48.3589604,463.934466 48.8338109,463.939168 49.1237899,464.234946 L53.241437,468.434946 Z M31.8296723,469.485054 C31.5396932,469.780832 31.0648427,469.785534 30.7690641,469.495555 C30.4732854,469.205576 30.4685839,468.730725 30.758563,468.434946 L34.8762101,464.234946 C35.1661891,463.939168 35.6410396,463.934466 35.9368183,464.224445 C36.2325969,464.514424 36.2372984,464.989275 35.9473193,465.285054 L31.8296723,469.485054 Z M42.4326234,465.372648 C42.0942675,465.611579 41.6262838,465.530979 41.3873525,465.192623 C41.1484212,464.854268 41.2290207,464.386284 41.5673766,464.147352 L52.2732589,456.587352 C52.6116148,456.348421 53.0795986,456.429021 53.3185299,456.767377 C53.5574612,457.105732 53.4768616,457.573716 53.1385058,457.812648 L42.4326234,465.372648 Z M14.5,464.25 C14.0857864,464.25 13.75,463.914214 13.75,463.5 C13.75,463.085786 14.0857864,462.75 14.5,462.75 L22.5,462.75 C22.9142136,462.75 23.25,463.085786 23.25,463.5 C23.25,463.914214 22.9142136,464.25 22.5,464.25 L14.5,464.25 Z M17.5,468 C17.0857864,468 16.75,467.664214 16.75,467.25 C16.75,466.835786 17.0857864,466.5 17.5,466.5 L23.5,466.5 C23.9142136,466.5 24.25,466.835786 24.25,467.25 C24.25,467.664214 23.9142136,468 23.5,468 L17.5,468 Z M20.5,472 C20.0857864,472 19.75,471.664214 19.75,471.25 C19.75,470.835786 20.0857864,470.5 20.5,470.5 L24.5,470.5 C24.9142136,470.5 25.25,470.835786 25.25,471.25 C25.25,471.664214 24.9142136,472 24.5,472 L20.5,472 Z" id="Combined-Shape" fill="#2B2B2B" fill-rule="nonzero"/>
        <path d="M20.75,537.75 L20.75,544.25 L54.25,544.25 L54.25,537.75 L20.75,537.75 Z M20.75,536.25 L26.5593723,536.25 L31.94708,526.582601 C32.2094651,526.111792 32.8679931,526.063195 33.1966478,526.490387 L37.1117998,531.579382 L43.866593,520.606824 C44.1987367,520.067286 45.0088233,520.157173 45.2146099,520.756399 L50.5354289,536.25 L54.25,536.25 L54.25,509.75 L20.75,509.75 L20.75,536.25 Z M48.9494404,536.25 L44.3116236,522.745222 L37.8191032,533.291741 C37.543842,533.738879 36.9061554,533.772051 36.5859856,533.355888 L32.7026098,528.308196 L28.276588,536.25 L48.9494404,536.25 Z M19.25,545.75 L19.25,508.25 L55.75,508.25 L55.75,545.75 L19.25,545.75 Z M33.75,516.5 C33.75,518.294541 32.295219,519.75 30.4993391,519.75 C28.7054419,519.75 27.25,518.29388 27.25,516.5 C27.25,514.70612 28.7054419,513.25 30.4993391,513.25 C32.295219,513.25 33.75,514.705459 33.75,516.5 Z M32.25,516.5 C32.25,515.53373 31.4666354,514.75 30.4993391,514.75 C29.5340255,514.75 28.75,515.534391 28.75,516.5 C28.75,517.465609 29.5340255,518.25 30.4993391,518.25 C31.4666354,518.25 32.25,517.46627 32.25,516.5 Z M57.5736406,521.744208 L57.7596927,520.255792 L63.8084374,521.011885 L61.0173537,553.807118 L26.9401911,551.080945 L27.0598089,549.585722 L59.6493129,552.192882 L62.1915626,522.321449 L57.5736406,521.744208 Z" id="Combined-Shape" fill="#2B2B2B" fill-rule="nonzero"/>
        <path d="M38.5,709.21875 C25.4004961,709.21875 14.78125,698.599504 14.78125,685.5 C14.78125,672.400496 25.4004961,661.78125 38.5,661.78125 C51.5995039,661.78125 62.21875,672.400496 62.21875,685.5 C62.21875,698.599504 51.5995039,709.21875 38.5,709.21875 Z M38.5,707.71875 C50.7710768,707.71875 60.71875,697.771077 60.71875,685.5 C60.71875,673.228923 50.7710768,663.28125 38.5,663.28125 C26.2289232,663.28125 16.28125,673.228923 16.28125,685.5 C16.28125,697.771077 26.2289232,707.71875 38.5,707.71875 Z M31.3740801,693.68658 C31.0811869,693.979473 30.6063131,693.979473 30.3134199,693.68658 C30.0205267,693.393687 30.0205267,692.918813 30.3134199,692.62592 L45.6259199,677.31342 C45.9188131,677.020527 46.3936869,677.020527 46.6865801,677.31342 C46.9794733,677.606313 46.9794733,678.081187 46.6865801,678.37408 L31.3740801,693.68658 Z M32.375,683.1875 C30.2694144,683.1875 28.5625,681.480586 28.5625,679.375 C28.5625,677.269414 30.2694144,675.5625 32.375,675.5625 C34.4805856,675.5625 36.1875,677.269414 36.1875,679.375 C36.1875,681.480586 34.4805856,683.1875 32.375,683.1875 Z M32.375,681.6875 C33.6521585,681.6875 34.6875,680.652158 34.6875,679.375 C34.6875,678.097842 33.6521585,677.0625 32.375,677.0625 C31.0978415,677.0625 30.0625,678.097842 30.0625,679.375 C30.0625,680.652158 31.0978415,681.6875 32.375,681.6875 Z M44.625,695.4375 C42.5194144,695.4375 40.8125,693.730586 40.8125,691.625 C40.8125,689.519414 42.5194144,687.8125 44.625,687.8125 C46.7305856,687.8125 48.4375,689.519414 48.4375,691.625 C48.4375,693.730586 46.7305856,695.4375 44.625,695.4375 Z M44.625,693.9375 C45.9021585,693.9375 46.9375,692.902158 46.9375,691.625 C46.9375,690.347842 45.9021585,689.3125 44.625,689.3125 C43.3478415,689.3125 42.3125,690.347842 42.3125,691.625 C42.3125,692.902158 43.3478415,693.9375 44.625,693.9375 Z" id="Combined-Shape" fill="#000000" fill-rule="nonzero"/>
        <path d="M58.5272185,20.3098624 L40.9616605,2.74430441 C40.1172853,1.89992921 38.6139991,1.83079068 37.9054347,2.53935506 L11.2615773,29.1832125 C10.5530129,29.8917769 10.6221514,31.3950631 11.4665266,32.2394382 L29.0320846,49.8049963 C29.869851,50.6427626 31.3476041,50.6997864 32.0628776,49.9845129 L58.7067351,23.3406554 C59.4220086,22.6253818 59.3649848,21.1476287 58.5272185,20.3098624 Z M59.9414321,18.8956489 C61.5368979,20.4911147 61.6427066,23.233111 60.1209486,24.754869 L33.4770912,51.3987264 C31.9553332,52.9204844 29.213337,52.8146757 27.6178711,51.2192098 L10.0523131,33.6536518 C8.45445871,32.0557975 8.32721601,29.2891467 9.84736372,27.768999 L36.4912212,1.1251415 C38.0113689,-0.395006211 40.7780197,-0.267763513 42.375874,1.33009085 L59.9414321,18.8956489 Z M36.4821699,26.9609475 C37.0250316,26.8593615 37.5474596,27.2170861 37.6490455,27.7599477 C37.7506315,28.3028093 37.3929069,28.8252373 36.8500453,28.9268233 L16.9154481,32.6571952 C16.3725865,32.7587812 15.8501585,32.4010566 15.7485725,31.858195 C15.6469865,31.3153334 16.0047111,30.7929054 16.5475727,30.6913194 L36.4821699,26.9609475 Z M52.4307414,19.3290179 C52.9723011,19.220706 53.4991262,19.5719227 53.6074382,20.1134824 C53.7157501,20.6550422 53.3645334,21.1818673 52.8229736,21.2901793 L43.8206262,23.0906487 C43.2790665,23.1989607 42.7522414,22.847744 42.6439294,22.3061842 C42.5356175,21.7646244 42.8868342,21.2377993 43.4283939,21.1294874 L52.4307414,19.3290179 Z M30.0114356,44.1017173 C29.9031236,44.6432771 29.3762985,44.9944938 28.8347387,44.8861819 C28.293179,44.7778699 27.9419623,44.2510448 28.0502742,43.7094851 L29.8507437,34.7071376 C29.9590556,34.1655779 30.4858808,33.8143611 31.0274405,33.9226731 C31.5690003,34.030985 31.920217,34.5578102 31.811905,35.0993699 L30.0114356,44.1017173 Z M55.8098136,41.9956 L62.6571068,48.8428932 C63.0476311,49.2334175 63.0476311,49.8665825 62.6571068,50.2571068 C62.2665825,50.6476311 61.6334175,50.6476311 61.2428932,50.2571068 L52.7428932,41.7571068 C52.3523689,41.3665825 52.3523689,40.7334175 52.7428932,40.3428932 L61.2428932,31.8428932 C61.6334175,31.4523689 62.2665825,31.4523689 62.6571068,31.8428932 C63.0476311,32.2334175 63.0476311,32.8665825 62.6571068,33.2571068 L55.9186136,39.9956 L74.7544,39.9956 C75.3066847,39.9956 75.7544,40.4433153 75.7544,40.9956 C75.7544,41.5478847 75.3066847,41.9956 74.7544,41.9956 L55.8098136,41.9956 Z M37.636875,28.1326527 C37.535289,28.6755143 37.012861,29.0332389 36.4699994,28.9316529 C35.9271378,28.8300669 35.5694132,28.3076389 35.6709992,27.7647773 L39.401371,7.83018006 C39.502957,7.28731845 40.025385,6.92959387 40.5682466,7.03117986 C41.1111083,7.13276584 41.4688328,7.65519384 41.3672469,8.19805546 L37.636875,28.1326527 Z" id="Combined-Shape" fill="#2B2B2B" fill-rule="nonzero"/>
    </g>
</svg>