<svg version="1.1" id="Capa_1" xmlns="http://www.w3.org/2000/svg" xmlns:xlink="http://www.w3.org/1999/xlink" x="0px" y="0px" height="1094.2" width="118.6" viewBox="0 0 118.6 1094.2" style="enable-background:new 0 0 118.6 1094.2;" xml:space="preserve">
<style type="text/css">
	.st0{fill:#EDEDED;stroke:#707070;stroke-width:0.8;stroke-linecap:round;stroke-linejoin:round;stroke-miterlimit:10;}
	.st1{fill:#EDEDED;stroke:#707070;stroke-miterlimit:10;}
	.st2{fill:#EDEDED;}
	.st3{fill:#707070;}
	.st4{fill:#F2F2F2;}
	.st5{fill:#FFFFFF;stroke:#707070;stroke-linejoin:round;stroke-miterlimit:10;}
	.st6{fill:#FFFFFF;}
	.st7{fill:#F2F2F2;stroke:#707070;stroke-miterlimit:10;}
	.st8{fill:#F2D7CC;}
	.st9{fill:#F6F0C8;}
	.st10{fill:#F2D7CC;stroke:#000000;stroke-width:2;stroke-miterlimit:10;}
	.st11{fill:#D2EFEB;}
	.st12{fill:none;stroke:#707070;stroke-width:0.8;stroke-miterlimit:10;}
	.st13{fill:none;stroke:#FFFFFF;stroke-miterlimit:10;}
	.st14{fill:#FFFFFF;stroke:#707070;stroke-miterlimit:10;}
	.st15{fill:none;stroke:#707070;stroke-linejoin:round;stroke-miterlimit:10;}
	.st16{fill:none;stroke:#707070;stroke-linecap:round;stroke-linejoin:round;stroke-miterlimit:10;}
	.st17{fill:none;stroke:#707070;stroke-miterlimit:10;}
	.st18{fill:#FFFFFF;stroke:#707070;stroke-linecap:round;stroke-linejoin:round;stroke-miterlimit:10;}
	.st19{fill:none;stroke:#707070;stroke-width:0.8;stroke-linecap:round;stroke-linejoin:round;stroke-miterlimit:10;}
	.st20{fill:#EDEDED;stroke:#707070;stroke-width:0.5;stroke-linecap:round;stroke-linejoin:round;stroke-miterlimit:10;}
	.st21{fill:none;stroke:#707070;stroke-width:1.5;stroke-linecap:round;stroke-linejoin:round;stroke-miterlimit:10;}
	.st22{clip-path:url(#SVGID_2_);}
	.st23{clip-path:url(#SVGID_4_);fill:#707070;}
	.st24{clip-path:url(#SVGID_2_);fill:#707070;}
</style>
<path class="st0" d="M96.4,981.6h-73c-3.3,0-6,2.7-6,6v1.4c0.6-0.2,1.3-0.4,2-0.4h73c3.3,0,6,2.7,6,6v48.6c2.3-0.8,4-3,4-5.6v-50  C102.4,984.3,99.7,981.6,96.4,981.6z"/>
<g>
	<path class="st1" d="M86.1,645.8v-31.6c0-1.7-1.3-3-3-3H43.4c-1.7,0-3,1.3-3,3v47.6c0,1.7,1.3,3,3,3h23.7c0.4,0,0.7-0.1,1-0.4   l17.7-17.6C86,646.6,86.1,646.2,86.1,645.8z"/>
</g>
<g>
	<g>
		<path class="st2" d="M17.1,43.5l-0.6-11.7c0-0.3-0.3-0.4-0.5-0.3L6.6,35c-0.3,0.1-0.3,0.5-0.1,0.6l10,8.2    C16.7,44,17.1,43.8,17.1,43.5z"/>
		<path class="st2" d="M35.9,23.1l9.3,7.6c0.2,0.2,0.5,0,0.5-0.3L45,19L35.9,23.1z"/>
		<path class="st2" d="M63.2,10.2l9.9,7.3c0.3,0.2,0.6,0,0.6-0.3L73,4.3L63.2,10.2z"/>
		<path class="st3" d="M80.5,0.2C80.4,0,80-0.1,79.8,0.1c-20,12.2-45,23.1-61.3,29.7c0,0,0,0-0.1,0l-1,0.4c-9.5,3.8-15.8,6.1-16,6.2    C1.1,36.5,1,36.8,1.1,37s0.3,0.3,0.5,0.3c0.1,0,0.1,0,0.2,0s2.5-0.9,6.4-2.4L19,43.7c0.1,0.1,0.2,0.1,0.3,0.1c0.1,0,0.2,0,0.2-0.1    c0.2-0.1,0.3-0.3,0.3-0.5l-0.7-12.7c1.3-0.5,2.7-1.1,4.2-1.7l10.4,8.6c0.1,0.1,0.2,0.1,0.3,0.1s0.2,0,0.2-0.1    c0.2-0.1,0.3-0.3,0.3-0.5l-0.7-12.6c1.3-0.6,2.6-1.2,4-1.8l9.7,7.9c0.1,0.1,0.2,0.1,0.3,0.1s0.2,0,0.2-0.1    c0.2-0.1,0.3-0.3,0.3-0.5l-0.6-12c1.4-0.7,2.8-1.3,4.2-2l9.9,8.1c0.1,0.1,0.2,0.1,0.3,0.1s0.2,0,0.2-0.1c0.2-0.1,0.3-0.3,0.3-0.5    L62,11.2c1-0.5,2-1.1,3-1.6l10.7,7.9c0.1,0.1,0.2,0.1,0.3,0.1c0.1,0,0.2,0,0.2-0.1c0.2-0.1,0.3-0.3,0.3-0.5L75.8,3.7    c1.5-0.9,3.1-1.8,4.6-2.7C80.6,0.8,80.6,0.5,80.5,0.2z M18.8,42.3l-9.3-7.6l8.4-3.5c0.1,0,0.2-0.1,0.3-0.1L18.8,42.3z M33.5,35.9    l-9.1-7.5c2.7-1.1,5.6-2.3,8.5-3.6L33.5,35.9z M47.3,29.1l-8.4-6.9c2.6-1.1,5.2-2.3,7.9-3.6L47.3,29.1z M61.6,22.8L53,15.7    c2.7-1.3,5.4-2.6,8-4L61.6,22.8z M75.4,16L66,9.1c3-1.6,5.9-3.2,8.8-4.8L75.4,16z"/>
	</g>
	<g>
		<path class="st2" d="M114.5,42.5l-8.8,8.3c-0.2,0.2-0.5,0-0.5-0.2L105,39.8L114.5,42.5z"/>
		<path class="st2" d="M86.1,31.7l-9.2,7.8c-0.3,0.2-0.6,0-0.6-0.3l-0.2-12.4L86.1,31.7z"/>
		<path class="st3" d="M117.1,42.9c-0.1,0-14.5-3-48.1-20.4c-0.2-0.1-0.5,0-0.7,0.2c-0.1,0.2,0,0.5,0.2,0.7c1.6,0.8,3.2,1.7,4.7,2.4    l0.2,13.3c0,0.2,0.1,0.4,0.3,0.4c0.1,0,0.1,0,0.2,0s0.2,0,0.3-0.1l9.9-8.4c1.2,0.5,2.3,1.1,3.4,1.6l0.2,12.3    c0,0.2,0.1,0.4,0.3,0.5c0.1,0,0.1,0,0.2,0s0.2,0,0.3-0.1l8.8-8.3c1.7,0.7,3.3,1.4,4.8,2l0.2,11.4c0,0.2,0.1,0.4,0.3,0.5    c0.1,0,0.1,0,0.2,0s0.2,0,0.3-0.1l8.7-8.2c3.3,1,4.8,1.4,4.9,1.4h0.1c0.2,0,0.4-0.2,0.5-0.4C117.5,43.2,117.4,43,117.1,42.9z     M74.5,38.1l-0.2-11.7c3.2,1.6,6.1,3,8.9,4.4L74.5,38.1z M88.7,43.9l-0.2-10.7c2.8,1.3,5.5,2.4,7.8,3.5L88.7,43.9z M103.4,49.3    l-0.1-9.8c3.1,1.2,5.6,2.1,7.7,2.7L103.4,49.3z"/>
	</g>
	<g>
		<path class="st2" d="M43.5,44.7h-5.9c-0.6,0-1,0.5-1,1v34c0,0.6,0.5,1,1,1h37.5c0.6,0,1-0.5,1-1v-34c0-0.6-0.5-1-1-1h-5.9"/>
		<path class="st3" d="M74.1,42.1h-6.4v-2.9c0-0.3-0.2-0.5-0.5-0.5H62c-0.3,0-0.5,0.2-0.5,0.5v2.9H47.1v-2.9c0-0.3-0.2-0.5-0.5-0.5    h-5.2c-0.3,0-0.5,0.2-0.5,0.5v2.9h-6.4c-0.3,0-0.5,0.2-0.5,0.5v36.1c0,0.3,0.2,0.5,0.5,0.5H74c0.3,0,0.5-0.2,0.5-0.5V42.6    C74.6,42.4,74.4,42.1,74.1,42.1z M62.6,39.7h4.2v5.9h-4.2C62.6,45.6,62.6,39.7,62.6,39.7z M42,39.7h4.2v5.9H42V39.7z M41,43.1V46    c0,0.3,0.2,0.5,0.5,0.5h5.2c0.3,0,0.5-0.2,0.5-0.5v-2.9h14.5V46c0,0.3,0.2,0.5,0.5,0.5h5.2c0.3,0,0.5-0.2,0.5-0.5v-2.9h5.9v7.6    H35.1v-7.6H41z M35.1,78.2V51.7h38.5v26.5H35.1z"/>
		<path class="st3" d="M50.5,71.3V58.1c0-0.2-0.1-0.4-0.3-0.5s-0.4,0-0.5,0.1l-3.4,3.4l0.7,0.7l2.6-2.6v12h-2.9v1h6.9v-1h-3.1V71.3z    "/>
		<path class="st3" d="M63.3,57.8c-0.1-0.1-0.2-0.2-0.4-0.2h-8.6c-0.3,0-0.5,0.2-0.5,0.5v1.7h1v-1.2h7.4L60,64.5h-3.1v1h2.7    l-2.3,6.2l0.9,0.4l2.5-6.5h1.4v-1h-1l2.3-6.2C63.5,58.1,63.4,57.9,63.3,57.8z"/>
	</g>
</g>
<g>
	<path class="st2" d="M56.7,137.1c-1.3-1.3-4.4-5.3-10.6-5.3h-6.6v10.6h39.9c0-4-9.3-5.3-19.9-5.3H46"/>
	<path class="st2" d="M85.3,118.5c0-13.2-10.7-23.9-23.9-23.9s-23.9,10.7-23.9,23.9"/>
	<g>
		<path class="st3" d="M59.3,135h-2.4c-0.1-0.1-0.2-0.2-0.3-0.3c-1.5-1.6-4.7-5-10.5-5H40v-2.2c0-0.3-0.2-0.5-0.5-0.5H28.7    c-0.3,0-0.5,0.2-0.5,0.5v16c0,0.3,0.2,0.5,0.5,0.5h10.6c0.3,0,0.5-0.2,0.5-0.5v-2.2h39.4c0.3,0,0.5-0.2,0.5-0.5    C79.8,136,68.6,135,59.3,135z M38.9,143h-9.6v-15h9.6V143z M39.9,140.3v-9.6H46c5,0,7.9,2.6,9.5,4.3H46c-0.3,0-0.5,0.2-0.5,0.5    s0.2,0.5,0.5,0.5h13.3c11.7,0,18.6,1.6,19.4,4.3H39.9z"/>
		<g>
			<path class="st3" d="M34.1,136.8c-0.7,0-1.3,0.6-1.3,1.3s0.6,1.3,1.3,1.3s1.3-0.6,1.3-1.3C35.4,137.4,34.8,136.8,34.1,136.8     L34.1,136.8z"/>
		</g>
		<path class="st3" d="M89.9,116.4h-2.7h-3.5C83.5,104,74,93.9,61.9,92.6c1.1-0.8,1.9-2.1,1.9-3.6c0-2.5-2-4.5-4.5-4.5    s-4.5,2-4.5,4.5c0,1.5,0.7,2.8,1.9,3.6c-12.1,1.3-21.6,11.4-21.8,23.8h-3.5h-2.7c-0.3,0-0.5,0.2-0.5,0.5s0.2,0.5,0.5,0.5h2.5    l5.2,5.2c0.1,0.1,0.2,0.1,0.4,0.1H82c0.1,0,0.3-0.1,0.4-0.1l5.2-5.2h2.5c0.3,0,0.5-0.2,0.5-0.5S90.2,116.4,89.9,116.4z M55.8,89    c0-1.9,1.6-3.5,3.5-3.5s3.5,1.6,3.5,3.5s-1.6,3.5-3.5,3.5S55.8,90.9,55.8,89z M59.3,93.4c12.8,0,23.2,10.2,23.4,22.9H35.9    C36.2,103.7,46.6,93.4,59.3,93.4z M81.7,121.7H36.9l-4.3-4.3H86L81.7,121.7z"/>
		<g>
			<path class="st3" d="M44.8,108.1c-0.1,0-0.2,0-0.3-0.1c-0.2-0.1-0.3-0.5-0.2-0.7c3.3-5.1,8.9-8.2,15-8.2c0.3,0,0.5,0.2,0.5,0.5     s-0.2,0.5-0.5,0.5c-5.8,0-11,2.9-14.1,7.7C45.1,108,44.9,108.1,44.8,108.1z"/>
		</g>
	</g>
</g>
<g>
	<polygon class="st4" points="58.9,179.7 49.8,172.8 43.3,182.4 30.5,172.9 22,186.2 17.4,160.6 54.5,154  "/>
	<g>
		<path class="st3" d="M24.2,206.9c-2.2,0-4.1-1.6-4.5-3.8L12.2,161c-0.4-2.5,1.2-4.9,3.7-5.3l38.4-6.8c2.5-0.4,4.9,1.2,5.3,3.7    l7.5,42.2c0.4,2.5-1.2,4.9-3.7,5.3l0,0L25,206.9C24.8,206.9,24.5,206.9,24.2,206.9z M55.1,149.7c-0.2,0-0.4,0-0.6,0.1l-38.4,6.8    c-2,0.3-3.3,2.2-2.9,4.2l7.5,42.2c0.3,2,2.2,3.3,4.2,2.9l38.4-6.8c2-0.3,3.3-2.2,2.9-4.2l-7.5-42.2    C58.3,150.9,56.8,149.7,55.1,149.7z"/>
	</g>
	<ellipse class="st5" cx="41.4" cy="166.8" rx="3.7" ry="3.7"/>
	<path class="st3" d="M60.3,183.8l-4.8-27.1c-0.1-0.7-0.5-1.3-1.1-1.7s-1.3-0.6-2-0.4l-32.6,5.8c-1.5,0.3-2.4,1.7-2.2,3.1l4.8,27.1   c0.2,1.3,1.4,2.2,2.6,2.2c0.2,0,0.3,0,0.5,0l32.6-5.8c0.7-0.1,1.3-0.5,1.7-1.1C60.2,185.2,60.4,184.5,60.3,183.8z M19.9,161.3   l32.6-5.8c0.1,0,0.2,0,0.3,0c0.3,0,0.7,0.1,1,0.3c0.4,0.3,0.6,0.6,0.7,1.1l3.8,21.6l-8.1-6c-0.1-0.1-0.2-0.1-0.4-0.1   c-0.1,0-0.3,0.1-0.3,0.2l-6.3,9.2L31,172.5c-0.1-0.1-0.3-0.1-0.4-0.1s-0.3,0.1-0.3,0.2l-7.8,12.2l-3.8-21.6   C18.4,162.3,19,161.5,19.9,161.3z M59,185.2c-0.3,0.4-0.6,0.6-1.1,0.7l-32.6,5.8c-0.9,0.2-1.8-0.4-2-1.4l-0.7-4.1l8.1-12.6   l12.2,9.2c0.1,0.1,0.3,0.1,0.4,0.1c0.1,0,0.3-0.1,0.3-0.2l6.3-9.2l8.5,6.4l0.7,4.1C59.3,184.4,59.2,184.8,59,185.2z"/>
	<g>
		<path class="st6" d="M87.1,220.2l-37-12.3c-2.1-0.7-3.3-3.1-2.6-5.2L61,162c0.7-2.1,3.1-3.3,5.2-2.6l37,12.3    c2.1,0.7,3.3,3.1,2.6,5.2l-13.5,40.6C91.6,219.7,89.2,220.9,87.1,220.2z"/>
		<path class="st3" d="M88.4,220.9c-0.5,0-1-0.1-1.5-0.2l-37-12.3c-1.2-0.4-2.1-1.2-2.7-2.3c-0.6-1.1-0.6-2.4-0.3-3.5L60.4,162    c0.4-1.2,1.2-2.1,2.3-2.7c1.1-0.6,2.4-0.6,3.5-0.3l37,12.3c1.2,0.4,2.1,1.2,2.7,2.3s0.6,2.4,0.3,3.5l-13.5,40.6    c-0.4,1.2-1.2,2.1-2.3,2.7C89.8,220.7,89.1,220.9,88.4,220.9z M64.9,159.7c-0.6,0-1.1,0.1-1.6,0.4c-0.9,0.4-1.5,1.2-1.8,2.1    L48,202.8c-0.3,0.9-0.2,1.9,0.2,2.8s1.2,1.5,2.1,1.8l37,12.3l0,0c0.9,0.3,1.9,0.2,2.8-0.2s1.5-1.2,1.8-2.1l13.5-40.6    c0.3-0.9,0.2-1.9-0.2-2.8s-1.2-1.5-2.1-1.8l-37-12.3C65.7,159.8,65.3,159.7,64.9,159.7z"/>
	</g>
	<polygon class="st4" points="92.6,200.6 88,190.3 77.7,195.6 71,181.2 57.1,188.7 65.3,164.1 101.1,176  "/>
	<ellipse class="st5" cx="83.4" cy="181" rx="3.7" ry="3.7"/>
	<path class="st3" d="M98.9,175.4l-31.4-10.5c-1.4-0.5-2.9,0.3-3.4,1.7l-8.7,26.1c-0.5,1.4,0.3,2.9,1.7,3.4l31.4,10.5l0,0   c0.3,0.1,0.6,0.1,0.8,0.1c0.4,0,0.8-0.1,1.2-0.3c0.6-0.3,1.1-0.9,1.3-1.5l8.7-26.1C101.1,177.4,100.3,175.9,98.9,175.4z M91,204.6   c-0.1,0.4-0.4,0.8-0.8,1s-0.9,0.2-1.3,0.1l-31.4-10.5c-0.9-0.3-1.4-1.2-1.1-2.1l1.3-3.9l13.2-7.2l6.4,13.9c0.1,0.1,0.2,0.2,0.3,0.3   c0.1,0,0.3,0,0.4,0l9.9-5l4.4,9.7L91,204.6z M99.7,178.5l-6.9,20.8l-4.2-9.2c-0.1-0.1-0.2-0.2-0.3-0.3s-0.3,0-0.4,0l-9.9,5   L71.5,181c-0.1-0.1-0.2-0.2-0.3-0.3c-0.1,0-0.3,0-0.4,0l-12.7,7l6.9-20.8c0.2-0.7,0.9-1.2,1.6-1.2c0.2,0,0.4,0,0.5,0.1l31.4,10.5   C99.5,176.6,99.9,177.6,99.7,178.5z"/>
</g>
<g>
	<g>
		<g>
			<path class="st3" d="M21.7,276.4c-1.7,0-3.2-1-3.8-2.5c-1.2,1.1-2.9,1.5-4.5,0.8c-1.6-0.6-2.5-2.1-2.6-3.8     c-1.5,0.6-3.3,0.2-4.5-0.9c-1.2-1.2-1.5-2.9-0.9-4.5c-1.6,0-3.1-1-3.8-2.6c-0.6-1.6-0.3-3.3,0.8-4.5c-1.4-0.5-2.4-2-2.4-3.7     s1-3.2,2.5-3.8c-1.1-1.2-1.5-2.9-0.8-4.5c0.6-1.6,2.1-2.5,3.8-2.6c-0.6-1.5-0.2-3.3,0.9-4.5c1.2-1.2,2.9-1.5,4.5-0.9     c0-1.6,1-3.1,2.6-3.8c1.6-0.6,3.3-0.3,4.5,0.8c0.7-1.5,2.1-2.5,3.8-2.5c1.7,0,3.2,1,3.8,2.5c1.2-1.1,2.9-1.5,4.5-0.8     c1.6,0.6,2.5,2.1,2.6,3.8c1.5-0.6,3.3-0.2,4.5,0.9l-0.7,0.7c-1.1-1.1-2.8-1.2-4.1-0.4c-0.2,0.1-0.4,0.1-0.6,0s-0.3-0.3-0.2-0.5     c0.3-1.5-0.5-3-1.9-3.6s-3-0.1-3.9,1.2c-0.1,0.2-0.3,0.3-0.5,0.2c-0.2,0-0.4-0.2-0.4-0.4c-0.3-1.5-1.6-2.6-3.1-2.6     s-2.8,1.1-3.1,2.6c0,0.2-0.2,0.4-0.4,0.4c-0.2,0-0.4,0-0.5-0.2c-0.8-1.3-2.5-1.8-3.9-1.2s-2.2,2.1-1.9,3.6c0,0.2,0,0.4-0.2,0.5     s-0.4,0.1-0.6,0c-1.3-0.9-3-0.7-4.1,0.4c-1.1,1.1-1.2,2.8-0.4,4.1c0.1,0.2,0.1,0.4,0,0.6c-0.1,0.2-0.3,0.3-0.5,0.2     c-1.5-0.3-3,0.5-3.6,1.9s-0.1,3,1.2,3.9C4,250.8,4,251,4,251.2s-0.2,0.4-0.4,0.4c-1.5,0.3-2.6,1.6-2.6,3.1c0,1.5,1.1,2.8,2.6,3.1     c0.2,0,0.4,0.2,0.4,0.4c0,0.2,0,0.4-0.2,0.5c-1.3,0.8-1.8,2.5-1.2,3.9s2.1,2.2,3.6,1.9c0.2,0,0.4,0,0.5,0.2s0.1,0.4,0,0.6     c-0.9,1.3-0.7,3,0.4,4.1s2.8,1.2,4.1,0.4c0.2-0.1,0.4-0.1,0.6,0c0.2,0.1,0.3,0.3,0.2,0.5c-0.3,1.5,0.5,3,1.9,3.6s3.1,0.1,3.9-1.2     c0.1-0.2,0.3-0.3,0.5-0.2c0.2,0,0.4,0.2,0.4,0.4c0.3,1.5,1.6,2.6,3.1,2.6s2.8-1.1,3.1-2.6c0-0.2,0.2-0.4,0.4-0.4     c0.2,0,0.4,0,0.5,0.2c0.8,1.3,2.5,1.8,3.9,1.2c1.4-0.6,2.2-2.1,1.9-3.6c0-0.2,0-0.4,0.2-0.5s0.4-0.1,0.6,0c1.3,0.9,3,0.7,4.1-0.4     s1.2-2.8,0.4-4.1c-0.1-0.2-0.1-0.4,0-0.6s0.3-0.3,0.5-0.2c1.5,0.3,3-0.5,3.6-1.9l0.9,0.4c-0.6,1.6-2.1,2.5-3.8,2.6     c0.6,1.5,0.2,3.3-0.9,4.5s-2.9,1.5-4.5,0.9c0,1.6-1,3.1-2.6,3.8c-1.6,0.6-3.3,0.3-4.5-0.8C24.9,275.4,23.4,276.4,21.7,276.4z"/>
		</g>
		<g>
			<g>
				<path class="st3" d="M25.6,250.7c-0.1,0-0.2,0-0.3-0.1c-1.3-1-3-1.5-4.7-1.4c-0.3,0-0.5-0.2-0.5-0.5s0.2-0.5,0.5-0.5      c1.9-0.1,3.8,0.4,5.3,1.6c0.2,0.2,0.3,0.5,0.1,0.7C25.9,250.6,25.7,250.7,25.6,250.7z"/>
			</g>
			<g>
				<path class="st3" d="M15.1,253.7c-0.6,0-1-0.4-1-1s0.4-1,1-1s1,0.4,1,1S15.6,253.7,15.1,253.7z M15.1,252.7L15.1,252.7h0.5H15.1      z"/>
			</g>
			<path class="st3" d="M33.1,252.2c0-0.3-0.2-0.5-0.5-0.5s-0.5,0.2-0.5,0.5c0,0.7-0.4,1.2-1,1.4c-0.4-4.4-4.7-7.9-10-7.9     c-0.7,0-1.5,0.1-2.2,0.2c-0.7-1.1-2-1.7-3.3-1.7c-0.7,0-1.4,0.2-2,0.5c-0.2,0.1-0.2,0.3-0.2,0.4c0,0.2,0.1,0.3,0.2,0.4     c0.7,0.4,1.2,1.1,1.4,1.9c-2,1.3-3.3,3.2-3.8,5.2H9.6c-0.3,0-0.5,0.2-0.5,0.5v4c0,0.3,0.2,0.5,0.5,0.5H12c1,1.8,2.6,3.2,4.6,4.1     v2.9c0,0.3,0.2,0.5,0.5,0.5s0.5-0.2,0.5-0.5V262c1.1,0.3,2.3,0.6,3.5,0.6s2.4-0.2,3.5-0.5v2.5c0,0.3,0.2,0.5,0.5,0.5     s0.5-0.2,0.5-0.5v-2.9c3.1-1.3,5.3-4,5.5-7.1C32.2,254.4,33.1,253.4,33.1,252.2z M25,260.9h-0.1c-1.1,0.4-2.4,0.7-3.8,0.7     c-3.7,0-7-1.9-8.4-4.7c-0.1-0.2-0.3-0.3-0.5-0.3H10v-3h1.6c0.2,0,0.5-0.2,0.5-0.4c0.3-2,1.6-3.9,3.7-5.1c0.2-0.1,0.3-0.3,0.2-0.5     c-0.1-0.9-0.6-1.7-1.2-2.3c1.3-0.3,2.7,0.3,3.4,1.4c0.1,0.2,0.3,0.3,0.5,0.2c0.8-0.2,1.6-0.3,2.3-0.3c5,0,9,3.4,9,7.5     C30.1,257.1,28,259.7,25,260.9z"/>
		</g>
	</g>
	<g>
		<g>
			<path class="st3" d="M96.9,276.7c-1.7,0-3.2-1-3.8-2.5c-1.2,1.1-2.9,1.5-4.5,0.8c-1.6-0.6-2.5-2.1-2.6-3.8     c-1.5,0.6-3.3,0.2-4.5-0.9c-1.2-1.2-1.5-2.9-0.9-4.5c-1.6,0-3.1-1-3.8-2.6l0.9-0.4c0.6,1.4,2.1,2.2,3.6,1.9c0.2,0,0.4,0,0.5,0.2     s0.1,0.4,0,0.6c-0.9,1.3-0.7,3,0.4,4.1s2.8,1.2,4.1,0.4c0.2-0.1,0.4-0.1,0.6,0s0.3,0.3,0.2,0.5c-0.3,1.5,0.5,3,1.9,3.6     s3.1,0.1,3.9-1.2c0.1-0.2,0.3-0.3,0.5-0.2c0.2,0,0.4,0.2,0.4,0.4c0.3,1.5,1.6,2.6,3.1,2.6s2.8-1.1,3.1-2.6c0-0.2,0.2-0.4,0.4-0.4     c0.2,0,0.4,0,0.5,0.2c0.8,1.3,2.5,1.8,3.9,1.2c1.4-0.6,2.2-2.1,1.9-3.6c0-0.2,0-0.4,0.2-0.5s0.4-0.1,0.6,0c1.3,0.9,3,0.7,4.1-0.4     s1.2-2.8,0.4-4.1c-0.1-0.2-0.1-0.4,0-0.6s0.3-0.3,0.5-0.2c1.5,0.3,3-0.5,3.6-1.9s0.1-3.1-1.2-3.9c-0.2-0.1-0.3-0.3-0.2-0.5     s0.2-0.4,0.4-0.4c1.5-0.3,2.6-1.6,2.6-3.1s-1.1-2.8-2.6-3.1c-0.2,0-0.4-0.2-0.4-0.4s0-0.4,0.2-0.5c1.3-0.8,1.8-2.5,1.2-3.9     c-0.6-1.4-2.1-2.2-3.6-1.9c-0.2,0-0.4,0-0.5-0.2s-0.1-0.4,0-0.6c0.9-1.3,0.7-3-0.4-4.1s-2.8-1.2-4.1-0.4c-0.2,0.1-0.4,0.1-0.6,0     s-0.3-0.3-0.2-0.5c0.3-1.5-0.5-3-1.9-3.6s-3.1-0.1-3.9,1.2c-0.1,0.2-0.3,0.3-0.5,0.2c-0.2,0-0.4-0.2-0.4-0.4     c-0.3-1.5-1.6-2.6-3.1-2.6s-2.8,1.1-3.1,2.6c0,0.2-0.2,0.4-0.4,0.4c-0.2,0-0.4,0-0.5-0.2c-0.8-1.3-2.5-1.8-3.9-1.2     s-2.2,2.1-1.9,3.6c0,0.2,0,0.4-0.2,0.5s-0.4,0.1-0.6,0c-1.3-0.9-3-0.7-4.1,0.4l-0.7-0.7c1.2-1.2,2.9-1.5,4.5-0.9     c0-1.6,1-3.1,2.6-3.8c1.6-0.6,3.3-0.3,4.5,0.8c0.7-1.5,2.1-2.5,3.8-2.5c1.7,0,3.2,1,3.8,2.5c1.2-1.1,2.9-1.5,4.5-0.8     c1.6,0.6,2.5,2.1,2.6,3.8c1.5-0.6,3.3-0.2,4.5,0.9c1.2,1.2,1.5,2.9,0.9,4.5c1.6,0,3.1,1,3.8,2.6c0.6,1.6,0.3,3.3-0.8,4.5     c1.5,0.7,2.5,2.1,2.5,3.8s-1,3.2-2.5,3.8c1.1,1.2,1.5,2.9,0.8,4.5c-0.6,1.6-2.1,2.5-3.8,2.6c0.6,1.5,0.2,3.3-0.9,4.5     c-1.2,1.2-2.9,1.5-4.5,0.9c0,1.6-1,3.1-2.6,3.8c-1.6,0.6-3.3,0.3-4.5-0.8C100.1,275.7,98.6,276.7,96.9,276.7z"/>
		</g>
		<path class="st3" d="M106.3,249.6H100c0.8-0.3,1.5-0.6,1.9-1l0,0c1-1,1-2.6,0-3.6s-2.6-1-3.6,0c-0.5,0.5-1,1.9-1.4,3.1    c-0.4-1.2-0.9-2.6-1.4-3.1c-1-1-2.6-1-3.6,0c-0.5,0.5-0.7,1.1-0.7,1.8s0.3,1.3,0.7,1.8c0.3,0.3,1.1,0.7,1.9,1h-6.3    c-0.3,0-0.5,0.2-0.5,0.5v3.3c0,0.3,0.2,0.5,0.5,0.5h0.3v9.4c0,0.3,0.2,0.5,0.5,0.5h17.2c0.3,0,0.5-0.2,0.5-0.5v-9.4h0.3    c0.3,0,0.5-0.2,0.5-0.5v-3.3C106.8,249.8,106.6,249.6,106.3,249.6z M105.8,252.9h-0.3h-5.2v-2.3h5.6L105.8,252.9L105.8,252.9z     M94.5,252.9v-2.3h4.7v2.3H94.5z M99.3,253.9v8.9h-4.7v-8.9H99.3z M99,245.7c0.3-0.3,0.7-0.5,1.1-0.5s0.8,0.2,1.1,0.5    c0.6,0.6,0.6,1.6,0,2.2c-0.4,0.4-2.2,1-3.6,1.4C98,247.9,98.5,246.2,99,245.7z M92.1,246.8c0-0.4,0.2-0.8,0.5-1.1s0.7-0.5,1.1-0.5    s0.8,0.2,1.1,0.5c0.4,0.4,1,2.2,1.4,3.6c-1.4-0.4-3.2-1-3.6-1.4l0,0C92.3,247.6,92.1,247.2,92.1,246.8z M87.9,250.6h5.6v2.3h-5.2    H88L87.9,250.6L87.9,250.6z M88.8,253.9h4.7v8.9h-4.7V253.9z M105,262.8h-4.7v-8.9h4.7V262.8z"/>
	</g>
	<g>
		<path class="st2" d="M84.5,253.3c0-2.2-1.6-4-3.6-4.3c1.7-1.1,2.5-3.4,1.7-5.4s-2.9-3.1-5-2.6c1.2-1.7,1-4.1-0.5-5.6    s-3.9-1.7-5.6-0.5c0.4-2-0.6-4.2-2.6-5s-4.2-0.1-5.4,1.7c-0.4-2.1-2.2-3.6-4.3-3.6s-4,1.6-4.3,3.6c-1.1-1.7-3.4-2.5-5.4-1.7    s-3.1,2.9-2.6,5c-1.7-1.2-4.1-1-5.6,0.5s-1.7,3.9-0.5,5.6c-2-0.4-4.2,0.6-5,2.6s-0.1,4.2,1.7,5.4c-2.1,0.4-3.6,2.2-3.6,4.3    c0,2.2,1.6,4,3.6,4.3c-1.7,1.1-2.5,3.4-1.7,5.4s2.9,3.1,5,2.6c-1.2,1.7-1,4.1,0.5,5.6s3.9,1.7,5.6,0.5c-0.4,2,0.6,4.2,2.6,5    s4.2,0.1,5.4-1.7c0.4,2.1,2.2,3.6,4.3,3.6c2.2,0,4-1.6,4.3-3.6c1.1,1.7,3.4,2.5,5.4,1.7s3.1-2.9,2.6-5c1.7,1.2,4.1,1,5.6-0.5    s1.7-3.9,0.5-5.6c2,0.4,4.2-0.6,5-2.6s0.1-4.2-1.7-5.4C83,257.3,84.5,255.5,84.5,253.3z"/>
	</g>
	<g>
		<g>
			<path class="st3" d="M59.3,277.2c-2,0-3.8-1.2-4.5-3.1c-1.4,1.4-3.5,1.9-5.4,1.1s-3-2.6-3-4.6c-1.8,0.8-3.9,0.4-5.4-1.1     c-1.4-1.4-1.8-3.6-1.1-5.4l0,0c-2,0-3.8-1.2-4.5-3c-0.8-1.9-0.3-4,1.1-5.4c-1.8-0.7-3.1-2.5-3.1-4.5s1.2-3.8,3.1-4.5     c-1.4-1.4-1.9-3.5-1.1-5.4c0.8-1.9,2.6-3,4.5-3l0,0c-0.8-1.8-0.4-3.9,1.1-5.4c1.4-1.4,3.6-1.8,5.4-1.1c0-2,1.2-3.8,3-4.6     c1.9-0.8,4-0.3,5.4,1.1c0.7-1.8,2.5-3.1,4.5-3.1s3.8,1.2,4.5,3.1c1.4-1.4,3.5-1.9,5.4-1.1c1.9,0.8,3,2.6,3,4.6     c1.8-0.8,3.9-0.4,5.4,1.1c1.4,1.4,1.8,3.6,1.1,5.4l0,0c2,0,3.8,1.2,4.5,3c0.8,1.9,0.3,4-1.1,5.4c1.8,0.7,3.1,2.5,3.1,4.5     s-1.2,3.8-3.1,4.5c1.4,1.4,1.9,3.5,1.1,5.4s-2.6,3-4.5,3l0,0c0.8,1.8,0.4,3.9-1.1,5.4c-1.4,1.4-3.6,1.8-5.4,1.1     c0,2-1.2,3.8-3,4.6c-1.9,0.8-4,0.3-5.4-1.1C63.1,276,61.3,277.2,59.3,277.2z M55,272.6C55,272.6,55.1,272.6,55,272.6     c0.3,0,0.5,0.2,0.5,0.4c0.3,1.9,2,3.2,3.8,3.2c1.9,0,3.5-1.3,3.8-3.2c0-0.2,0.2-0.4,0.4-0.4s0.4,0,0.5,0.2c1,1.6,3,2.2,4.8,1.5     c1.7-0.7,2.7-2.6,2.3-4.4c0-0.2,0-0.4,0.2-0.5s0.4-0.1,0.6,0c1.6,1.1,3.6,0.9,5-0.5c1.3-1.3,1.5-3.4,0.5-5     c-0.1-0.2-0.1-0.4,0-0.6s0.3-0.3,0.5-0.2c1.8,0.4,3.7-0.6,4.4-2.3c0.7-1.7,0.1-3.7-1.5-4.8c-0.2-0.1-0.3-0.3-0.2-0.5     s0.2-0.4,0.4-0.4c1.9-0.3,3.2-2,3.2-3.8c0-1.9-1.3-3.5-3.2-3.8c-0.2,0-0.4-0.2-0.4-0.4s0-0.4,0.2-0.5c1.6-1,2.2-3,1.5-4.8     c-0.7-1.7-2.6-2.7-4.4-2.3c-0.2,0-0.4,0-0.5-0.2s-0.1-0.4,0-0.6c1.1-1.6,0.9-3.6-0.5-5c-1.3-1.3-3.4-1.5-5-0.5     c-0.2,0.1-0.4,0.1-0.6,0s-0.3-0.3-0.2-0.5c0.4-1.8-0.6-3.7-2.3-4.4c-1.7-0.7-3.7-0.1-4.8,1.5c-0.1,0.2-0.3,0.3-0.5,0.2     c-0.2,0-0.4-0.2-0.4-0.4c-0.3-1.9-2-3.2-3.8-3.2c-1.9,0-3.5,1.3-3.8,3.2c0,0.2-0.2,0.4-0.4,0.4s-0.4,0-0.5-0.2     c-1-1.6-3-2.2-4.8-1.5c-1.7,0.7-2.7,2.6-2.3,4.4c0,0.2,0,0.4-0.2,0.5s-0.4,0.1-0.6,0c-1.6-1.1-3.6-0.9-5,0.5     c-1.3,1.3-1.5,3.4-0.5,5c0.1,0.2,0.1,0.4,0,0.6c-0.1,0.2-0.3,0.3-0.5,0.2c-1.8-0.4-3.7,0.6-4.4,2.3s-0.1,3.7,1.5,4.8     c0.2,0.1,0.3,0.3,0.2,0.5c0,0.2-0.2,0.4-0.4,0.4c-1.9,0.3-3.2,2-3.2,3.8c0,1.9,1.3,3.5,3.2,3.8c0.2,0,0.4,0.2,0.4,0.4     s0,0.4-0.2,0.5c-1.6,1-2.2,3-1.5,4.8c0.7,1.7,2.6,2.7,4.4,2.3c0.2,0,0.4,0,0.5,0.2s0.1,0.4,0,0.6c-1.1,1.6-0.9,3.6,0.5,5     c1.3,1.3,3.4,1.5,5,0.5c0.2-0.1,0.4-0.1,0.6,0s0.3,0.3,0.2,0.5c-0.4,1.8,0.6,3.7,2.3,4.4c1.7,0.7,3.7,0.1,4.8-1.5     C54.7,272.7,54.8,272.6,55,272.6z"/>
		</g>
		<g>
			<path class="st3" d="M50.5,260.7c-0.1,0-0.3,0-0.4-0.1c-0.2-0.2-0.2-0.5,0-0.7l17.7-17.7c0.2-0.2,0.5-0.2,0.7,0s0.2,0.5,0,0.7     l-17.7,17.7C50.7,260.6,50.6,260.7,50.5,260.7z"/>
		</g>
		<g>
			<path class="st3" d="M52.7,248.5c-2.1,0-3.8-1.7-3.8-3.8s1.7-3.8,3.8-3.8s3.8,1.7,3.8,3.8S54.8,248.5,52.7,248.5z M52.7,241.9     c-1.6,0-2.8,1.3-2.8,2.8s1.3,2.8,2.8,2.8c1.6,0,2.8-1.3,2.8-2.8S54.2,241.9,52.7,241.9z"/>
		</g>
		<g>
			<path class="st3" d="M65.9,261.8c-2.1,0-3.8-1.7-3.8-3.8c0-2.1,1.7-3.8,3.8-3.8s3.8,1.7,3.8,3.8C69.7,260.1,68,261.8,65.9,261.8z      M65.9,255.2c-1.6,0-2.8,1.3-2.8,2.8s1.3,2.8,2.8,2.8c1.6,0,2.8-1.3,2.8-2.8S67.5,255.2,65.9,255.2z"/>
		</g>
	</g>
</g>
<g>
	<path class="st2" d="M87.5,290.9c-3.3-3.3-8.3-3.9-12.2-1.7l-4.9-4.9L44,310.7l4.9,4.9c-2.2,3.9-1.6,8.9,1.7,12.2   c3.3,3.3,8.3,3.9,12.2,1.7l4.9,4.9L94,307.9l-4.9-4.9C91.3,299.1,90.8,294.2,87.5,290.9z"/>
	<g>
		<g>
			<path class="st3" d="M65.1,334.8c-0.1,0-0.3-0.1-0.4-0.1l-4.6-4.6c-4.1,2.1-9.2,1.3-12.4-1.9c-3.3-3.3-4-8.3-1.9-12.4l-4.6-4.6     c-0.2-0.2-0.2-0.5,0-0.7L67.6,284c0.2-0.2,0.5-0.2,0.7,0l4.6,4.6c4.1-2.1,9.2-1.3,12.4,1.9l0,0c3.3,3.3,4,8.3,1.9,12.4l4.6,4.6     c0.1,0.1,0.1,0.2,0.1,0.4s-0.1,0.3-0.1,0.4l-26.4,26.4C65.4,334.7,65.3,334.8,65.1,334.8z M60.3,328.9c0.1,0,0.3,0.1,0.4,0.1     l4.5,4.5l25.6-25.6l-4.5-4.5c-0.2-0.2-0.2-0.4-0.1-0.6c2.1-3.8,1.4-8.5-1.6-11.6c-3-3-7.8-3.7-11.6-1.6c-0.2,0.1-0.4,0.1-0.6-0.1     l-4.5-4.5l-25.6,25.6l4.5,4.5c0.2,0.2,0.2,0.4,0.1,0.6c-2.1,3.8-1.4,8.5,1.6,11.6c3,3,7.8,3.7,11.6,1.6     C60.1,328.9,60.2,328.9,60.3,328.9z"/>
		</g>
		<g>
			<path class="st3" d="M65.4,324.3c-0.1,0-0.3-0.1-0.4-0.1l-13.4-13.4c-0.1-0.1-0.1-0.2-0.1-0.4s0.1-0.3,0.1-0.4l15.6-15.6     c0.2-0.2,0.5-0.2,0.7,0l13.4,13.4c0.2,0.2,0.2,0.5,0,0.7l-15.6,15.6C65.7,324.2,65.6,324.3,65.4,324.3z M52.7,310.3L65.4,323     l14.8-14.8l-12.7-12.7L52.7,310.3z"/>
		</g>
	</g>
	<g>
		<g>
			<path class="st6" d="M68.5,290.9c-3.3-3.3-8.3-3.9-12.2-1.7l-4.9-4.9L25,310.7l4.9,4.9c-2.2,3.9-1.6,8.9,1.7,12.2     c3.3,3.3,8.3,3.9,12.2,1.7l4.9,4.9L75.1,308l-4.9-4.9C72.4,299.2,71.8,294.2,68.5,290.9z"/>
			<path class="st3" d="M48.7,334.8c-0.1,0-0.3-0.1-0.4-0.1l-4.6-4.6c-4.1,2.1-9.2,1.3-12.4-1.9c-3.3-3.3-4-8.3-1.9-12.4l-4.6-4.6     c-0.2-0.2-0.2-0.5,0-0.7L51.1,284c0.2-0.2,0.5-0.2,0.7,0l4.6,4.6c4.1-2.1,9.2-1.3,12.4,1.9l0,0c3.3,3.3,4,8.3,1.9,12.4l4.6,4.6     c0.1,0.1,0.1,0.2,0.1,0.4s-0.1,0.3-0.1,0.4l-26.4,26.4C49,334.7,48.8,334.8,48.7,334.8z M43.8,328.9c0.1,0,0.3,0.1,0.4,0.1     l4.5,4.5l25.6-25.6l-4.5-4.5c-0.2-0.2-0.2-0.4-0.1-0.6c2.1-3.8,1.4-8.5-1.6-11.6c-3-3-7.8-3.7-11.6-1.6c-0.2,0.1-0.4,0.1-0.6-0.1     l-4.5-4.5l-25.6,25.6l4.5,4.5c0.2,0.2,0.2,0.4,0.1,0.6c-2.1,3.8-1.4,8.5,1.6,11.6c3,3,7.8,3.7,11.6,1.6     C43.7,328.9,43.8,328.9,43.8,328.9z"/>
		</g>
		<g>
			
				<rect x="39.1" y="299.8" transform="matrix(0.7071 -0.7071 0.7071 0.7071 -204.0323 126.0103)" class="st6" width="22" height="19"/>
			<path class="st3" d="M49,324.3c-0.1,0-0.3-0.1-0.4-0.1l-13.4-13.4c-0.1-0.1-0.1-0.2-0.1-0.4s0.1-0.3,0.1-0.4l15.6-15.6     c0.2-0.2,0.5-0.2,0.7,0l13.4,13.4c0.2,0.2,0.2,0.5,0,0.7l-15.6,15.6C49.3,324.2,49.1,324.3,49,324.3z M36.3,310.3L49,323.1     l14.8-14.8l-12.7-12.7L36.3,310.3z"/>
		</g>
	</g>
</g>
<g>
	<rect x="33.4" y="347.1" class="st4" width="51.8" height="38.3"/>
	<path class="st3" d="M85.2,339.9H33.4c-0.3,0-0.5,0.2-0.5,0.5v6.3v0.5v38.3v0.5v6.3c0,0.3,0.2,0.5,0.5,0.5h51.8   c0.3,0,0.5-0.2,0.5-0.5V386v-0.5v-38.3v-0.5v-6.3C85.7,340.1,85.5,339.9,85.2,339.9z M49.7,340.9H69v5.8H49.7V340.9z M84.7,384.9   H33.9v-37.3h50.8V384.9z M33.9,340.9h14.8v5.8H33.9V340.9z M48.7,391.7H33.9v-5.8h14.8V391.7z M69,391.7H49.7v-5.8H69V391.7z    M84.7,391.7H70v-5.8h14.8v5.8H84.7z M70,346.6v-5.8h14.8v5.8H70z"/>
	<g>
		<circle class="st6" cx="59.3" cy="366.3" r="12.4"/>
		<path class="st3" d="M59.3,379.2c-7.1,0-12.9-5.8-12.9-12.9s5.8-12.9,12.9-12.9s12.9,5.8,12.9,12.9S66.4,379.2,59.3,379.2z     M59.3,354.4c-6.6,0-11.9,5.3-11.9,11.9s5.3,11.9,11.9,11.9s11.9-5.3,11.9-11.9C71.2,359.7,65.9,354.4,59.3,354.4z"/>
	</g>
	<path class="st7" d="M55.9,370v-7.4c0-0.4,0.4-0.6,0.7-0.5l7.4,3.7c0.4,0.2,0.4,0.7,0,0.9l-7.4,3.7C56.3,370.6,55.9,370.4,55.9,370   z"/>
</g>
<g>
	<g>
		<path class="st3" d="M31.3,397.8v40h56v-40H31.3z M85.3,435.8h-52v-4.5l16.6-16.9l15.2,15.2l0,0l0.9,0.8L76.2,420l9.1,9.1l0.1-0.1    L85.3,435.8L85.3,435.8z M85.3,426.4l-9.1-9.1l-1,1l0,0l-9.2,9.3l-16-16l-1.4,1.4l0,0l-15.2,15.5v-28.6h52v26.5L85.3,426.4    L85.3,426.4z M67.8,416.8L67.8,416.8c3.1,0,5.5-2.4,5.5-5.4v-0.1c0-3-2.4-5.4-5.4-5.4h-0.1c-3,0-5.4,2.4-5.4,5.4v0.1    C62.3,414.4,64.8,416.8,67.8,416.8z M64.3,411.2c0-1.9,1.5-3.4,3.4-3.4h0.1c1.9,0,3.4,1.5,3.4,3.4v0.1c0,1.9-1.5,3.4-3.4,3.4h-0.1    c-1.9,0-3.4-1.5-3.4-3.4V411.2z"/>
	</g>
</g>
<path class="st8" d="M-15,259.8"/>
<g>
	<g>
		<path class="st6" d="M81.9,495.1l-36.7-0.2c-2.1,0-3.9-1.8-3.8-3.9l0.3-40.4c0-2.1,1.8-3.9,3.9-3.8l36.7,0.2    c2.1,0,3.9,1.8,3.8,3.9l-0.3,40.4C85.7,493.4,84,495.1,81.9,495.1z"/>
		<path d="M81.9,496L81.9,496l-36.8-0.2c-2.7,0-4.8-2.2-4.8-4.8l0.3-40.4c0-1.3,0.5-2.5,1.4-3.4s2.1-1.4,3.4-1.4l0,0l36.7,0.2    c2.7,0,4.8,2.2,4.8,4.8l-0.3,40.4c0,1.3-0.5,2.5-1.4,3.4C84.4,495.5,83.2,496,81.9,496z M45.4,447.7c-0.8,0-1.5,0.3-2.1,0.8    c-0.6,0.6-0.9,1.3-0.9,2.1L42.2,491c0,1.6,1.3,2.9,2.9,2.9l36.7,0.2l0,0l0,0c0.8,0,1.5-0.3,2.1-0.8c0.6-0.6,0.9-1.3,0.9-2.1    l0.3-40.4c0-1.6-1.3-2.9-2.9-2.9L45.4,447.7L45.4,447.7z"/>
	</g>
	<polygon class="st9" points="80.6,478.7 73.4,470.8 65.7,478.6 55.5,467.6 45.3,478.4 45.5,454 80.9,454.2  "/>
	
		<ellipse transform="matrix(6.527340e-03 -1 1 6.527340e-03 -394.2699 525.2224)" class="st10" cx="67.2" cy="461" rx="3.4" ry="3.4"/>
	<path d="M81.5,451.9c-0.6-0.6-1.3-0.9-2.1-0.9l-31.2-0.2l0,0c-1.6,0-3,1.3-3,3L45,479.7c0,0.8,0.3,1.6,0.9,2.1   c0.6,0.6,1.3,0.9,2.1,0.9l31.2,0.2l0,0c0.8,0,1.5-0.3,2.1-0.9s0.9-1.3,0.9-2.1l0.2-25.9C82.3,453.3,82,452.5,81.5,451.9z    M48.2,452.7L48.2,452.7l31.2,0.2c0.3,0,0.6,0.1,0.8,0.3c0.2,0.2,0.3,0.5,0.3,0.8l-0.1,19.5l-5.6-6.1c-0.2-0.2-0.4-0.3-0.7-0.3   c-0.3,0-0.5,0.1-0.7,0.3l-7,7.1l-9.5-10.2c-0.2-0.2-0.4-0.3-0.7-0.3s-0.5,0.1-0.7,0.3l-8.5,9.1l0.1-19.4   C47.1,453.2,47.6,452.7,48.2,452.7z M80,480.7c-0.2,0.2-0.5,0.3-0.8,0.3l0,0L48,480.9c-0.3,0-0.6-0.1-0.8-0.3   c-0.2-0.2-0.3-0.5-0.3-0.8v-3.7l9.2-9.8l9.4,10.2c0.2,0.2,0.4,0.3,0.7,0.3l0,0c0.3,0,0.5-0.1,0.7-0.3l7-7.1l6.3,6.9v3.7   C80.3,480.3,80.2,480.5,80,480.7z"/>
	<g>
		<path class="st6" d="M99.8,523.1L65,511.5c-2-0.7-3.1-2.9-2.4-4.9l12.8-38.3c0.7-2,2.9-3.1,4.9-2.4l34.9,11.6    c2,0.7,3.1,2.9,2.4,4.9l-12.8,38.3C104.1,522.7,101.9,523.8,99.8,523.1z"/>
		<path d="M101.1,524.2c-0.5,0-1-0.1-1.5-0.2l-34.9-11.6c-1.2-0.4-2.2-1.3-2.8-2.4c-0.6-1.2-0.7-2.5-0.3-3.7L74.4,468    c0.4-1.2,1.3-2.2,2.4-2.8c1.2-0.6,2.5-0.7,3.7-0.3l34.9,11.6c1.2,0.4,2.2,1.3,2.8,2.4c0.6,1.2,0.7,2.5,0.3,3.7l-12.8,38.3    c-0.4,1.2-1.3,2.2-2.4,2.8C102.5,524.1,101.8,524.2,101.1,524.2z M79,466.6c-0.4,0-0.9,0.1-1.3,0.3c-0.7,0.4-1.2,1-1.5,1.7    l-12.8,38.3c-0.2,0.7-0.2,1.5,0.2,2.2s1,1.2,1.7,1.5l34.9,11.6l0,0c0.7,0.2,1.5,0.2,2.2-0.2s1.2-1,1.5-1.7l12.8-38.3    c0.2-0.7,0.2-1.5-0.2-2.2c-0.4-0.7-1-1.2-1.7-1.5l-34.9-11.6C79.6,466.6,79.3,466.6,79,466.6z"/>
	</g>
	<polygon class="st9" points="105.1,507.5 100.7,497.8 91,502.7 84.7,489.2 71.6,496.3 79.3,473.1 113,484.3  "/>
	<ellipse class="st10" cx="96.4" cy="486.2" rx="3.4" ry="3.4"/>
	<path d="M111.1,480.4l-29.6-9.9c-0.8-0.3-1.6-0.2-2.3,0.2c-0.7,0.4-1.3,1-1.5,1.7L69.5,497c-0.5,1.6,0.3,3.3,1.9,3.8l29.6,9.9   c0.3,0.1,0.6,0.2,0.9,0.2c0.5,0,0.9-0.1,1.3-0.3c0.7-0.4,1.3-1,1.5-1.7l8.2-24.6C113.5,482.7,112.7,481,111.1,480.4z M103,508.2   c-0.1,0.3-0.3,0.5-0.6,0.6c-0.3,0.1-0.6,0.2-0.8,0.1L72,499c-0.6-0.2-0.9-0.8-0.7-1.4l1.2-3.5l11.8-6.5l5.8,12.6   c0.1,0.2,0.3,0.4,0.5,0.5s0.5,0.1,0.7-0.1l8.9-4.5l3.9,8.5L103,508.2z M111.2,483.6l-6.2,18.5l-3.5-7.5c-0.1-0.2-0.3-0.4-0.5-0.5   s-0.5-0.1-0.7,0.1l-8.9,4.5L85.6,486c-0.1-0.2-0.3-0.4-0.6-0.5c-0.2-0.1-0.5-0.1-0.7,0.1l-10.9,6l6.1-18.4c0.2-0.5,0.6-0.8,1.1-0.8   c0.1,0,0.2,0,0.4,0.1l29.6,9.9C111.1,482.4,111.4,483.1,111.2,483.6z"/>
	<path class="st6" d="M65.6,526.7H4.3c-2.1,0-3.8-1.6-3.8-3.5v-33.4c0-1.9,1.7-3.4,3.8-3.4h61.3c2.1,0,3.8,1.5,3.8,3.4v33.4   C69.4,525.2,67.7,526.7,65.6,526.7z"/>
	<path class="st8" d="M63.1,492.1H6.8c-1.9,0-3.5,1.5-3.5,3.4v4.6h24.4c0.5-0.6,1-1.1,1.6-1.5c2-1.2,4.1-1.3,6.4-1.5   c1.6-0.2,3,0.6,4,1.7c0.6,0.4,1.2,0.8,1.6,1.3h25.2v-4.6C66.6,493.6,65,492.1,63.1,492.1z"/>
	<path class="st11" d="M37.8,527.6c-6.6,0-11.9-5.3-11.9-11.9c0-6.6,5.3-11.9,11.9-11.9s11.9,5.3,11.9,11.9   C49.7,522.3,44.3,527.6,37.8,527.6z"/>
	<g>
		<g>
			<path d="M63.1,491.8H18.3c0-1.9-1.5-3.5-3.5-3.5h-3.5c-1.9,0-3.5,1.5-3.5,3.5h-1c-1.9,0-3.4,1.5-3.4,3.4v33.4     c0,1.9,1.5,3.5,3.4,3.5h56.4c1.9,0,3.5-1.6,3.5-3.5v-33.4C66.6,493.4,65,491.8,63.1,491.8z M11.4,490.7h3.5     c0.6,0,1.2,0.5,1.2,1.2h-5.8C10.2,491.2,10.8,490.7,11.4,490.7z M64.3,528.6c0,0.6-0.5,1.1-1.2,1.1H6.8c-0.6,0-1.1-0.5-1.1-1.1     v-25.3h15.9c-1.9,2.6-3,5.8-3,9.3c0,8.9,7.2,16.1,16.1,16.1s16.1-7.2,16.1-16.1c0-3.5-1.1-6.6-3-9.3h16.5V528.6z M34.7,498.8     c7.6,0,13.8,6.2,13.8,13.8s-6.2,13.8-13.8,13.8s-13.8-6.2-13.8-13.8C20.9,505,27.1,498.8,34.7,498.8z M64.3,501H45.8     c-2.9-2.8-6.8-4.5-11.2-4.5c-4.3,0-8.3,1.7-11.2,4.5H5.6v-5.8c0-0.6,0.5-1.1,1.1-1.1h1.2h10.4h44.9c0.6,0,1.2,0.5,1.2,1.1     L64.3,501L64.3,501z M34.7,524.5c6.6,0,11.9-5.3,11.9-11.9c0-6.6-5.3-11.9-11.9-11.9s-11.9,5.3-11.9,11.9     C22.8,519.1,28.1,524.5,34.7,524.5z M34.7,503c5.3,0,9.6,4.3,9.6,9.6s-4.3,9.6-9.6,9.6s-9.6-4.3-9.6-9.6     C25.1,507.3,29.4,503,34.7,503z M60.8,496.4h-4.6c-0.6,0-1.2,0.5-1.2,1.2c0,0.6,0.5,1.1,1.2,1.1h4.6c0.6,0,1.2-0.5,1.2-1.1     C62,496.9,61.5,496.4,60.8,496.4z M10.2,496.4H9.1c-0.6,0-1.2,0.5-1.2,1.2c0,0.6,0.5,1.1,1.2,1.1h1.2c0.6,0,1.2-0.5,1.2-1.1     C11.4,496.9,10.9,496.4,10.2,496.4z M14.8,496.4h-1.2c-0.6,0-1.2,0.5-1.2,1.2c0,0.6,0.5,1.1,1.2,1.1h1.2c0.6,0,1.2-0.5,1.2-1.1     C16,496.9,15.5,496.4,14.8,496.4z"/>
		</g>
	</g>
	<path class="st8" d="M3.3,497.3"/>
	<g>
		<path d="M44.7,493.7H23.9l2.6-10.5c0.2-0.9,1-1.5,1.9-1.5h11.8c0.9,0,1.7,0.6,1.9,1.5L44.7,493.7z M26.3,491.9h15.9l-1.8-7.4    c-0.1-0.4-0.5-0.7-0.9-0.7H29.1c-0.4,0-0.8,0.3-0.9,0.7L26.3,491.9z"/>
	</g>
	<g>
		<path d="M37.9,490.7h-7.2c-0.5,0-1-0.2-1.3-0.7c-0.3-0.4-0.4-0.9-0.3-1.4l0.7-2.6c0.2-0.7,0.9-1.2,1.6-1.2h5.7    c0.7,0,1.4,0.5,1.6,1.2l0.7,2.6c0.1,0.5,0,1-0.3,1.4C38.9,490.5,38.4,490.7,37.9,490.7z M31,489.1L31,489.1L31,489.1z M31,488.9    h6.6l-0.5-1.8c-0.1-0.2-0.2-0.3-0.4-0.3H32c-0.2,0-0.4,0.1-0.4,0.3L31,488.9z"/>
	</g>
</g>
<g>
	<path class="st2" d="M89.7,564.3l-31.1,31.1c-1.2,1.2-3.1,1.2-4.2,0l-19.1-19.1c-1.2-1.2-1.2-3.1,0-4.2L66.4,541   c1.2-1.2,3.1-1.2,4.2,0l19.1,19C90.9,561.2,90.9,563.1,89.7,564.3z"/>
	<path class="st12" d="M89.7,564.3l-31.1,31.1c-1.2,1.2-3.1,1.2-4.2,0l-19.1-19.1c-1.2-1.2-1.2-3.1,0-4.2L66.4,541   c1.2-1.2,3.1-1.2,4.2,0l19.1,19C90.9,561.2,90.9,563.1,89.7,564.3z"/>
	<g>
		<g>
			<path class="st6" d="M83.8,560.1l-19.2-19c-1.2-1.2-3.1-1.2-4.3,0L29,572c-1.2,1.2-1.2,3.1,0,4.2l19.2,19c1.2,1.2,3.1,1.2,4.3,0     l31.4-30.9C85,563.1,85,561.2,83.8,560.1z"/>
		</g>
	</g>
	<g>
		<g>
			<path class="st3" d="M83.8,560.1l-19.2-19c-1.2-1.2-3.1-1.2-4.3,0L29,572c-1.2,1.2-1.2,3.1,0,4.2l19.2,19c1.2,1.2,3.1,1.2,4.3,0     l31.4-30.9C85,563.1,85,561.2,83.8,560.1z M63.3,542.7l18.3,18h-21L63.3,542.7z M61.3,543l-4,26.1L30.9,573L61.3,543z M30.6,575     l18.8-2.8v21.3L30.6,575z M51.4,593.5v-21.6l7.7-1.1l1.2-8.1h22.2c0,0.1-0.1,0.1-0.1,0.2L51.4,593.5z"/>
		</g>
		<g>
			<path class="st13" d="M83.8,560.1l-19.2-19c-1.2-1.2-3.1-1.2-4.3,0L29,572c-1.2,1.2-1.2,3.1,0,4.2l19.2,19c1.2,1.2,3.1,1.2,4.3,0     l31.4-30.9C85,563.1,85,561.2,83.8,560.1z M63.3,542.7l18.3,18h-21L63.3,542.7z M61.3,543l-4,26.1L30.9,573L61.3,543z M30.6,575     l18.8-2.8v21.3L30.6,575z M51.4,593.5v-21.6l7.7-1.1l1.2-8.1h22.2c0,0.1-0.1,0.1-0.1,0.2L51.4,593.5z"/>
		</g>
	</g>
</g>
<g>
	<path class="st14" d="M82.5,642.5v-31.6c0-1.7-1.3-3-3-3H39.8c-1.7,0-3,1.3-3,3v47.6c0,1.6,1.3,3,3,3h23.7c0.4,0,0.7-0.1,1-0.4   l17.7-17.6C82.3,643.2,82.5,642.9,82.5,642.5z"/>
	<path class="st15" d="M64,661.5v-17.1c0-0.7,0.6-1.3,1.3-1.3h17.2"/>
	<line class="st16" x1="44.7" y1="622.3" x2="74.7" y2="622.3"/>
	<line class="st16" x1="44.7" y1="627.6" x2="74.7" y2="627.6"/>
	<line class="st16" x1="44.7" y1="632.7" x2="74.7" y2="632.7"/>
</g>
<g>
	<g>
		<rect x="16.2" y="685.5" class="st7" width="42.1" height="31.1"/>
		<rect x="16.2" y="680" class="st15" width="42.1" height="5.5"/>
		<line class="st15" x1="45.5" y1="680" x2="45.5" y2="685.5"/>
		<line class="st15" x1="29" y1="680" x2="29" y2="685.5"/>
		<rect x="16.2" y="716.6" class="st15" width="42.1" height="5.5"/>
		<line class="st15" x1="45.5" y1="716.6" x2="45.5" y2="722.1"/>
		<line class="st15" x1="29" y1="716.6" x2="29" y2="722.1"/>
		
			<ellipse transform="matrix(2.726656e-02 -0.9996 0.9996 2.726656e-02 -664.4796 719.2059)" class="st5" cx="37.3" cy="701" rx="10.1" ry="10.1"/>
		<polygon class="st7" points="34.5,704.7 34.5,697.4 41.9,701   "/>
	</g>
	<path class="st5" d="M84.9,738.5l-33-11c-2.1-0.7-3.3-3.1-2.6-5.2L61.4,686c0.7-2.1,3.1-3.3,5.2-2.6l33,11c2.1,0.7,3.3,3.1,2.6,5.2   l-12.1,36.3C89.4,738,87,739.2,84.9,738.5z"/>
	<polygon class="st4" points="90.3,720.8 86,711.4 76.7,716.2 70.6,703.1 58,710 65.4,687.6 97.9,698.4  "/>
	<path class="st17" d="M86.5,725.7l-28.2-9.4c-1.1-0.4-1.8-1.6-1.4-2.8l7.8-23.4c0.4-1.1,1.6-1.8,2.8-1.4l28.2,9.4   c1.1,0.4,1.8,1.6,1.4,2.8l-7.8,23.4C88.9,725.5,87.6,726.1,86.5,725.7z"/>
	<ellipse transform="matrix(0.3161 -0.9487 0.9487 0.3161 -610.9572 558.3806)" class="st5" cx="81.8" cy="703" rx="3.3" ry="3.3"/>
	<polyline class="st15" points="58.1,710 70.7,703.1 76.7,716.2 86.1,711.4 90.4,720.8  "/>
</g>
<g>
	<path class="st18" d="M60.4,751.2l7,12.8l14.9,2.3c1.1,0.2,1.5,1.5,0.7,2.2l-11.5,10.3l3.2,14.9c0.2,1.1-0.9,1.9-1.8,1.4l-13.6-6.9   l-13.8,6.9c-1,0.5-2.1-0.4-1.8-1.5l3.4-14.9l-11.5-10.3c-0.8-0.7-0.4-2.1,0.7-2.2l14.9-2.3l7-12.8C58.7,750.3,60,750.3,60.4,751.2z   "/>
</g>
<g>
	<g>
		<path class="st0" d="M30.3,776.1l2.8,5.1l5.9,0.9c0.4,0.1,0.6,0.6,0.3,0.9l-4.6,4.1L36,793c0.1,0.4-0.3,0.8-0.7,0.6l-5.4-2.7    l-5.5,2.7c-0.4,0.2-0.8-0.2-0.7-0.6l1.4-5.9l-4.6-4.1c-0.3-0.3-0.2-0.8,0.3-0.9l5.9-0.9l2.8-5.1C29.6,775.7,30.1,775.7,30.3,776.1    z"/>
	</g>
	<g>
		<path class="st0" d="M89.2,776.1l2.8,5.1l5.9,0.9c0.4,0.1,0.6,0.6,0.3,0.9l-4.6,4.1l1.3,5.9c0.1,0.4-0.3,0.8-0.7,0.6l-5.4-2.7    l-5.5,2.7c-0.4,0.2-0.8-0.2-0.7-0.6l1.4-5.9l-4.6-4.1c-0.3-0.3-0.2-0.8,0.3-0.9l5.9-0.9l2.8-5.1C88.5,775.7,89,775.7,89.2,776.1z"/>
	</g>
</g>
<g>
	<path class="st0" d="M101.6,896.2H17c-1.2,0-2.1-1-2.1-2.1v-84.7c0-1.2,1-2.1,2.1-2.1h84.7c1.2,0,2.1,1,2.1,2.1V894   C103.8,895.2,102.8,896.2,101.6,896.2z"/>
	<g>
		<path class="st18" d="M100.2,888.5v-74.1c-2.1,0-3.8-1.7-3.8-3.8H22.2c0,2.1-1.7,3.8-3.9,3.8v74.1c2.1,0,3.9,1.7,3.9,3.8h74.1    C96.4,890.3,98.1,888.5,100.2,888.5z"/>
	</g>
	<path class="st0" d="M92.9,821.4c-31.2-7.6-67.1,0-67.1,0l2.7,5.3l-2.7,6.3c0,0,35.9-7.6,67.1,0l-2.7-6.6L92.9,821.4z"/>
	<g>
		<line class="st19" x1="77" y1="864.9" x2="88.8" y2="864.9"/>
		<line class="st19" x1="29.8" y1="864.9" x2="42" y2="864.9"/>
	</g>
	<g>
		<g>
			<path class="st20" d="M46.7,861.8l0.8,1.4l1.7,0.3c0.1,0,0.2,0.2,0.1,0.2l-1.3,1.2l0.4,1.7c0,0.1-0.1,0.2-0.2,0.2l-1.5-0.8     l-1.5,0.8c-0.1,0-0.2,0-0.2-0.2l0.4-1.7l-1.3-1.2c-0.1-0.1,0-0.2,0.1-0.2l1.7-0.3L46.7,861.8C46.5,861.7,46.7,861.7,46.7,861.8z"/>
		</g>
		<g>
			<path class="st20" d="M53.1,861.8l0.8,1.4l1.7,0.3c0.1,0,0.2,0.2,0.1,0.2l-1.3,1.2l0.4,1.7c0,0.1-0.1,0.2-0.2,0.2l-1.5-0.8     l-1.5,0.8c-0.1,0-0.2,0-0.2-0.2l0.4-1.7l-1.3-1.2c-0.1-0.1,0-0.2,0.1-0.2l1.7-0.3L53.1,861.8C52.9,861.7,53,861.7,53.1,861.8z"/>
		</g>
		<g>
			<path class="st20" d="M59.4,861.8l0.8,1.4l1.7,0.3c0.1,0,0.2,0.2,0.1,0.2l-1.3,1.2l0.4,1.7c0,0.1-0.1,0.2-0.2,0.2l-1.5-0.8     l-1.5,0.8c-0.1,0-0.2,0-0.2-0.2l0.4-1.7l-1.3-1.2c-0.1-0.1,0-0.2,0.1-0.2l1.7-0.3L59.4,861.8C59.2,861.7,59.4,861.7,59.4,861.8z"/>
		</g>
		<g>
			<path class="st20" d="M65.8,861.8l0.8,1.4l1.7,0.3c0.1,0,0.2,0.2,0.1,0.2l-1.3,1.2l0.4,1.7c0,0.1-0.1,0.2-0.2,0.2l-1.5-0.8     l-1.5,0.8c-0.1,0-0.2,0-0.2-0.2l0.4-1.7l-1.3-1.2c-0.1-0.1,0-0.2,0.1-0.2l1.7-0.3L65.8,861.8C65.6,861.7,65.7,861.7,65.8,861.8z"/>
		</g>
		<g>
			<path class="st20" d="M72.1,861.8l0.8,1.4l1.7,0.3c0.1,0,0.2,0.2,0.1,0.2l-1.3,1.2l0.4,1.7c0,0.1-0.1,0.2-0.2,0.2l-1.5-0.8     l-1.5,0.8c-0.1,0-0.2,0-0.2-0.2l0.4-1.7l-1.3-1.2c-0.1-0.1-0.1-0.2,0.1-0.2l1.7-0.3L72.1,861.8C71.9,861.7,72.1,861.7,72.1,861.8     z"/>
		</g>
	</g>
	<line class="st19" x1="34.1" y1="877.1" x2="84.2" y2="877.1"/>
	<line class="st19" x1="32.1" y1="845.8" x2="86.3" y2="845.8"/>
	<line class="st19" x1="32.1" y1="849.4" x2="86.3" y2="849.4"/>
	<line class="st19" x1="32.1" y1="853.1" x2="86.3" y2="853.1"/>
	<line class="st19" x1="38.6" y1="880.7" x2="79.7" y2="880.7"/>
</g>
<g id="Page-1-Copy-2" transform="translate(72.000000, 0.000000)">
	<path id="Stroke-1" class="st18" d="M6.9,937.3c-8.5,2.8-14.7,10.7-14.7,20.1h42.6c0-9.4-6.1-17.4-14.7-20.1"/>
	<polyline id="Stroke-3" class="st0" points="15.1,956.9 15.4,954.8 15.4,946.9 14.1,944.8 15.9,942.6 13.6,939.7 11.2,942.6    13,944.8 11.7,946.9 11.7,954.8 12,956.9  "/>
	<path id="Stroke-5" class="st18" d="M13.5,910.4c7.9,0,14.4,6.4,14.4,14.3c0,7.9-6.4,14.3-14.4,14.3c-7.9,0-14.4-6.4-14.4-14.3   C-0.9,916.8,5.5,910.4,13.5,910.4z"/>
	<path id="Stroke-7" class="st18" d="M-0.9,925.5c1.9,0.7,3.9,1,6,1c6.3,0,11.9-3.2,15.1-8c0.2,4.6,3.1,8.4,7.2,10"/>
</g>
<g id="Page-1-Copy-3">
	<path id="Stroke-1_1_" class="st18" d="M26.4,937.3c-8.5,2.8-14.7,10.7-14.7,20.1h42.6c0-9.4-6.1-17.4-14.7-20.1"/>
	<polyline id="Stroke-3_1_" class="st0" points="34.6,956.9 34.9,954.8 34.9,946.9 33.6,944.8 35.4,942.6 33.1,939.7 30.7,942.6    32.5,944.8 31.2,946.9 31.2,954.8 31.5,956.9  "/>
	<path id="Stroke-5_1_" class="st18" d="M32.9,910.4c7.9,0,14.4,6.4,14.4,14.3c0,7.9-6.4,14.3-14.4,14.3c-7.9,0-14.4-6.4-14.4-14.3   C18.6,916.8,25,910.4,32.9,910.4z"/>
	<path id="Stroke-7_1_" class="st18" d="M18.6,925.5c1.9,0.7,3.9,1,6,1c6.3,0,11.9-3.2,15.1-8c0.2,4.6,3.1,8.4,7.2,10"/>
</g>
<g id="Page-1" transform="translate(26.000000, 1.000000)">
	<path id="Stroke-1_2_" class="st18" d="M23.2,944.1C12.6,947.6,5,957.5,5,969.3h53c0-11.8-7.6-21.8-18.3-25.2"/>
	<polyline id="Stroke-3_2_" class="st0" points="33.3,968.8 33.7,966.1 33.7,956.2 32.1,953.5 34.3,950.8 31.5,947 28.5,950.8    30.7,953.5 29.1,956.2 29.1,966.1 29.5,968.8  "/>
	<path id="Stroke-5_2_" class="st18" d="M31.3,910.3c9.9,0,17.9,8,17.9,17.9s-8,17.9-17.9,17.9s-17.9-8-17.9-17.9   S21.4,910.3,31.3,910.3z"/>
	<path id="Stroke-7_2_" class="st18" d="M13.4,929.3c2.4,0.8,4.9,1.3,7.5,1.3c7.8,0,14.8-4,18.8-10.1c0.2,5.7,3.9,10.5,8.9,12.5"/>
</g>
<g>
	<path class="st21" d="M17.4,989v-1.4c0-3.3,2.7-6,6-6h73c3.3,0,6,2.7,6,6v50c0,2.6-1.7,4.8-4,5.6"/>
	<path class="st21" d="M17.4,989c-2.3,0.8-4,3-4,5.6v50c0,3.3,2.7,6,6,6h73c3.3,0,6-2.7,6-6v-1.4"/>
	<path class="st21" d="M17.4,989c0.6-0.2,1.3-0.4,2-0.4h73c3.3,0,6,2.7,6,6v48.6"/>
</g>
<line class="st21" x1="22" y1="1041.2" x2="41" y2="1041.2"/>
<line class="st21" x1="44.8" y1="1041.2" x2="54.3" y2="1041.2"/>
<g>
	<defs>
		<rect id="SVGID_1_" x="13.4" y="998.6" width="85" height="13"/>
	</defs>
	<use xlink:href="#SVGID_1_" style="overflow:visible;fill:#707070;"/>
	<clipPath id="SVGID_2_">
		<use xlink:href="#SVGID_1_" style="overflow:visible;"/>
	</clipPath>
	<g class="st22">
		<defs>
			<rect id="SVGID_3_" x="12.4" y="980.6" width="91" height="71"/>
		</defs>
		<use xlink:href="#SVGID_3_" style="overflow:visible;fill:#707070;"/>
		<clipPath id="SVGID_4_">
			<use xlink:href="#SVGID_3_" style="overflow:visible;"/>
		</clipPath>
		<rect x="8.4" y="993.6" class="st23" width="95" height="23"/>
	</g>
	<line class="st24" x1="24.4" y1="1036.6" x2="46.4" y2="1036.6"/>
	<line class="st24" x1="51.4" y1="1036.6" x2="62.4" y2="1036.6"/>
</g>
</svg>