<?xml version="1.0" encoding="utf-8"?>
<!-- Generator: Adobe Illustrator 18.1.1, SVG Export Plug-In . SVG Version: 6.00 Build 0)  -->
<svg version="1.1" id="icons" xmlns="http://www.w3.org/2000/svg" xmlns:xlink="http://www.w3.org/1999/xlink" x="0px" y="0px"
	 width="40.1px" height="246.8px" viewBox="0 0 40.1 246.8" enable-background="new 0 0 40.1 246.8" xml:space="preserve">
<g>
	<g>
		<g>
			<path fill="#231F20" d="M30.1,29.4H10c-1.8,0-3.3-1.6-3.3-3.3V14c0-1.8,1.6-3.3,3.3-3.3h20.1c1.8,0,3.3,1.6,3.3,3.3v12
				C33.4,27.9,31.9,29.4,30.1,29.4z M10,12c-1,0-2,1-2,2v12c0,1,1,2,2,2h20.1c1,0,2-1,2-2V14c0-1-1-2-2-2H10z"/>
		</g>
		<g>
			<path fill="#231F20" d="M20.1,22.1c-0.1,0-0.3,0-0.4-0.1l-9.4-7.4c-0.3-0.2-0.3-0.6-0.1-0.9c0.2-0.3,0.6-0.3,0.9-0.1l9,7l9-7
				c0.3-0.2,0.7-0.2,0.9,0.1c0.2,0.3,0.2,0.7-0.1,0.9l-9.4,7.4C20.4,22,20.2,22.1,20.1,22.1z"/>
		</g>
		<g>
			<path fill="#231F20" d="M29.4,25.4c-0.1,0-0.3,0-0.4-0.1l-6.7-5.4c-0.3-0.2-0.3-0.7-0.1-0.9c0.2-0.3,0.7-0.3,0.9-0.1l6.7,5.4
				c0.3,0.2,0.3,0.7,0.1,0.9C29.8,25.3,29.6,25.4,29.4,25.4z"/>
		</g>
		<g>
			<path fill="#231F20" d="M10.7,25.4c-0.2,0-0.4-0.1-0.5-0.3c-0.2-0.3-0.2-0.7,0.1-0.9l6.7-5.4c0.3-0.2,0.7-0.2,0.9,0.1
				c0.2,0.3,0.2,0.7-0.1,0.9l-6.7,5.4C11,25.4,10.8,25.4,10.7,25.4z"/>
		</g>
		<g>
			<path fill="#231F20" d="M20.1,40.1C9,40.1,0,31.1,0,20.1S9,0,20.1,0s20.1,9,20.1,20.1S31.1,40.1,20.1,40.1z M20.1,1.3
				C9.7,1.3,1.3,9.7,1.3,20.1s8.4,18.7,18.7,18.7s18.7-8.4,18.7-18.7S30.4,1.3,20.1,1.3z"/>
		</g>
	</g>
	<g>
		<g>
			<path fill="#231F20" d="M20.1,246.8c-10.7,0-19.4-8.7-19.4-19.4c0-10.7,8.7-19.4,19.4-19.4s19.4,8.7,19.4,19.4
				C39.5,238,30.8,246.8,20.1,246.8z M20.1,209.1c-10.1,0-18.2,8.2-18.2,18.2c0,10.1,8.2,18.2,18.2,18.2s18.2-8.2,18.2-18.2
				C38.3,217.3,30.1,209.1,20.1,209.1z"/>
		</g>
		<g>
			<g>
				<path fill="#231F20" d="M20.1,237.4c-0.1,0-0.2,0-0.2,0c-0.1,0-2.5-1-4.8-3c-3.2-2.6-4.9-5.7-4.9-8.9c0-3.2,1.8-6.5,5.3-6.5
					c1.8,0,3.7,1,4.7,3.3c1-2.3,3-3.3,4.8-3.3c2.6,0,5.2,2.1,5.2,6c0,3-1.7,6.1-4.9,9c-2.4,2.1-4.7,3.4-4.8,3.4
					C20.3,237.3,20.2,237.4,20.1,237.4z M15.3,220.1c-2,0-4.1,1.7-4.1,5.3c0,6.3,7.3,10,8.8,10.7c1.5-0.8,8.8-5.3,8.8-11.2
					c0-3.3-2.1-4.9-4-4.9c-1.7,0-3.8,1.1-4.2,4.4c0,0.3-0.3,0.5-0.6,0.5c-0.3,0-0.5-0.2-0.6-0.5C19,221.4,17.1,220.1,15.3,220.1z"/>
			</g>
		</g>
	</g>
	<g>
		<g>
			<path fill="#231F20" d="M13.6,146.8c-6.2,0-12.9-1.2-12.9-3.9s6.7-3.9,12.9-3.9s12.9,1.2,12.9,3.9S19.8,146.8,13.6,146.8z
				 M13.6,140.4C6.1,140.4,2,142.1,2,143c0,0.9,4.1,2.6,11.6,2.6s11.6-1.7,11.6-2.6C25.2,142.1,21.1,140.4,13.6,140.4z"/>
		</g>
		<g>
			<path fill="#231F20" d="M13.6,151.4c-4.8,0-12.9-0.8-12.9-3.9V143c0-0.4,0.3-0.6,0.6-0.6S2,142.6,2,143v4.5
				c0,1.1,4.5,2.6,11.6,2.6s11.6-1.5,11.6-2.6V143c0-0.4,0.3-0.6,0.6-0.6c0.4,0,0.6,0.3,0.6,0.6v4.5
				C26.5,150.6,18.4,151.4,13.6,151.4z"/>
		</g>
		<g>
			<path fill="#231F20" d="M13.6,155.9c-4.8,0-12.9-0.8-12.9-3.9v-4.5c0-0.4,0.3-0.6,0.6-0.6s0.6,0.3,0.6,0.6v4.5
				c0,1.1,4.5,2.6,11.6,2.6s11.6-1.5,11.6-2.6v-4.5c0-0.4,0.3-0.6,0.6-0.6c0.4,0,0.6,0.3,0.6,0.6v4.5
				C26.5,155.1,18.4,155.9,13.6,155.9z"/>
		</g>
		<g>
			<path fill="#231F20" d="M13.6,160.4c-4.8,0-12.9-0.8-12.9-3.9V152c0-0.4,0.3-0.6,0.6-0.6S2,151.7,2,152v4.5
				c0,1.1,4.5,2.6,11.6,2.6s11.6-1.5,11.6-2.6V152c0-0.4,0.3-0.6,0.6-0.6c0.4,0,0.6,0.3,0.6,0.6v4.5
				C26.5,159.6,18.4,160.4,13.6,160.4z"/>
		</g>
		<g>
			<path fill="#231F20" d="M26.5,168.8c-6.2,0-12.9-1.2-12.9-3.9s6.7-3.9,12.9-3.9s12.9,1.2,12.9,3.9S32.8,168.8,26.5,168.8z
				 M26.5,162.4c-7.5,0-11.6,1.7-11.6,2.6c0,0.9,4.1,2.6,11.6,2.6s11.6-1.7,11.6-2.6C38.2,164.1,34.1,162.4,26.5,162.4z"/>
		</g>
		<g>
			<path fill="#231F20" d="M26.5,173.4c-4.8,0-12.9-0.8-12.9-3.9v-4.5c0-0.4,0.3-0.6,0.6-0.6s0.6,0.3,0.6,0.6v4.5
				c0,1.1,4.5,2.6,11.6,2.6s11.6-1.5,11.6-2.6v-4.5c0-0.4,0.3-0.6,0.6-0.6c0.4,0,0.6,0.3,0.6,0.6v4.5
				C39.5,172.5,31.3,173.4,26.5,173.4z"/>
		</g>
		<g>
			<path fill="#231F20" d="M26.5,177.9c-4.8,0-12.9-0.8-12.9-3.9v-4.5c0-0.4,0.3-0.6,0.6-0.6s0.6,0.3,0.6,0.6v4.5
				c0,1.1,4.5,2.6,11.6,2.6s11.6-1.5,11.6-2.6v-4.5c0-0.4,0.3-0.6,0.6-0.6c0.4,0,0.6,0.3,0.6,0.6v4.5
				C39.5,177.1,31.3,177.9,26.5,177.9z"/>
		</g>
		<g>
			<path fill="#231F20" d="M13.6,164.9c-4.8,0-12.9-0.8-12.9-3.9v-4.5c0-0.4,0.3-0.6,0.6-0.6s0.6,0.3,0.6,0.6v4.5
				c0,1.1,4.5,2.6,11.6,2.6c0.3,0,0.6,0,0.9,0c0.4,0,0.7,0.3,0.7,0.6c0,0.4-0.3,0.7-0.6,0.7C14.2,164.9,13.9,164.9,13.6,164.9z"/>
		</g>
		<g>
			<path fill="#231F20" d="M25.6,162.4c-0.1,0-0.3,0-0.4-0.1c-0.3-0.2-0.4-0.6-0.1-0.9c0.1-0.1,0.1-0.2,0.1-0.3v-4.5
				c0-0.4,0.3-0.6,0.6-0.6c0.4,0,0.6,0.3,0.6,0.6v4.5c0,0.4-0.1,0.7-0.4,1C26,162.3,25.8,162.4,25.6,162.4z"/>
		</g>
		<g>
			<path fill="#231F20" d="M13.6,169.5c-4.8,0-12.9-0.8-12.9-3.9v-4.5c0-0.4,0.3-0.6,0.6-0.6s0.6,0.3,0.6,0.6v4.5
				c0,1.1,4.5,2.6,11.6,2.6c0.1,0,0.3,0,0.4,0l0.2,0c0.3,0,0.7,0.3,0.7,0.6c0,0.4-0.3,0.6-0.6,0.7l-0.2,0
				C13.9,169.5,13.7,169.5,13.6,169.5z"/>
		</g>
	</g>
	<g>
		<g>
			<path fill="#231F20" d="M32.5,109H1.3c-0.4,0-0.6-0.3-0.6-0.6V74.6c0-0.4,0.3-0.6,0.6-0.6h26.2c0.4,0,0.6,0.3,0.6,0.6
				s-0.3,0.6-0.6,0.6H2v32.5h29.9V87.9c0-0.4,0.3-0.6,0.6-0.6c0.4,0,0.6,0.3,0.6,0.6v20.5C33.1,108.7,32.9,109,32.5,109z"/>
		</g>
		<g>
			<path fill="#231F20" d="M18.2,92.1c-0.2,0-0.3-0.1-0.5-0.2c-0.2-0.2-0.2-0.5-0.1-0.7l1.9-4.5c0-0.1,0.1-0.1,0.1-0.2l15.6-15.6
				c0.4-0.4,1-0.7,1.5-0.7c1,0,2,0.7,2.4,1.7c0.4,0.9,0.2,1.8-0.5,2.4L23.2,90c-0.1,0.1-0.1,0.1-0.2,0.1l-4.5,1.9
				C18.4,92.1,18.3,92.1,18.2,92.1z M20.7,87.3l-1.3,2.9l2.9-1.3l15.5-15.5c0.3-0.3,0.4-0.6,0.2-1c-0.2-0.5-0.8-0.9-1.2-0.9
				c-0.2,0-0.4,0.1-0.6,0.3L20.7,87.3z"/>
		</g>
		<g>
			
				<rect x="33.3" y="73.9" transform="matrix(0.7071 0.7071 -0.7071 0.7071 63.0127 -2.9757)" fill="#231F20" width="3.7" height="1.3"/>
		</g>
	</g>
</g>
</svg>
