<svg xmlns="http://www.w3.org/2000/svg" width="110" height="1046" viewBox="0 0 110 1046">
  <path fill="#2B2B2B" d="M80.8608438 672.755141C91.7275815 684.778788 92.1732134 702.970317 81.9083864 715.514552 71.6423116 728.060313 53.7610063 731.171683 39.8804462 722.826909 39.8175448 722.789094 39.7603 722.745453 39.7089868 722.697094L39.616623 722.739002 25.4324923 728.256886C25.3223734 728.299725 25.2055338 728.322708 25.0873938 728.32477 23.7325582 728.348419 22.6699445 727.179365 22.6454314 725.775007 22.6443773 725.714619 22.6487973 725.654322 22.6586041 725.594851L22.6773435 725.506356 27.0722791 708.568968 26.94991 708.304842C20.3319172 693.727299 25.2063984 676.448398 38.5254713 667.521325 51.9806242 658.503044 69.9927653 660.73001 80.8608438 672.755141zM39.6389867 669.182675C27.0574149 677.61544 22.5009226 693.988688 28.886577 707.729634 29.080135 707.940496 29.1788775 708.230346 29.1414944 708.527028L29.1170184 708.654385 24.654159 725.850983C24.6823335 726.041166 24.7721599 726.186474 24.8778215 726.263537L24.9427521 726.301398 38.8915212 720.875074C39.2633069 720.730443 39.6689355 720.823294 39.9409988 721.079989 40.2373442 720.927774 40.6038271 720.928194 40.9109299 721.112819 53.9398627 728.945608 70.7233108 726.025267 80.3605542 714.247976 89.9990454 702.46916 89.5805644 685.385984 79.377048 674.096167 69.1748725 662.807833 52.2687466 660.717612 39.6389867 669.182675zM41.5942029 690.209302C44.0914905 690.209302 46.115942 692.239639 46.115942 694.744186 46.115942 697.248733 44.0914905 699.27907 41.5942029 699.27907 39.0969153 699.27907 37.0724638 697.248733 37.0724638 694.744186 37.0724638 692.239639 39.0969153 690.209302 41.5942029 690.209302zM56.6666667 690.209302C59.1639542 690.209302 61.1884058 692.239639 61.1884058 694.744186 61.1884058 697.248733 59.1639542 699.27907 56.6666667 699.27907 54.1693791 699.27907 52.1449275 697.248733 52.1449275 694.744186 52.1449275 692.239639 54.1693791 690.209302 56.6666667 690.209302zM71.7391304 690.209302C74.236418 690.209302 76.2608696 692.239639 76.2608696 694.744186 76.2608696 697.248733 74.236418 699.27907 71.7391304 699.27907 69.2418429 699.27907 67.2173913 697.248733 67.2173913 694.744186 67.2173913 692.239639 69.2418429 690.209302 71.7391304 690.209302zM88.6564758 328C91.055338 328 93 329.944662 93 332.343524L93 397.656476C93 400.055338 91.055338 402 88.6564758 402L23.3435242 402C20.944662 402 19 400.055338 19 397.656476L19 332.343524C19 329.944662 20.944662 328 23.3435242 328L88.6564758 328zM55 367.565L21 367.565 21 397.656476C21 398.950768 22.0492315 400 23.3435242 400L55 400 55 367.565zM91 367.565L57 367.565 57 400 88.6564758 400C89.9507685 400 91 398.950768 91 397.656476L91 367.565zM33.1346386 378.296661L33.2288459 378.37985 38 383.151 42.7711541 378.37985C43.1616784 377.989325 43.7948434 377.989325 44.1853677 378.37985 44.5458516 378.740334 44.5735811 379.307565 44.2685563 379.699856L44.1853677 379.794063 39.414 384.565 44.1853677 389.336371C44.5458516 389.696855 44.5735811 390.264086 44.2685563 390.656378L44.1853677 390.750585C43.8248837 391.111069 43.2576526 391.138799 42.8653614 390.833774L42.7711541 390.750585 38 385.979 33.2288459 390.750585C32.8383216 391.141109 32.2051566 391.141109 31.8146323 390.750585 31.4541484 390.390101 31.4264189 389.82287 31.7314437 389.430579L31.8146323 389.336371 36.585 384.565 31.8146323 379.794063C31.4541484 379.433579 31.4264189 378.866348 31.7314437 378.474057L31.8146323 378.37985C32.1751163 378.019366 32.7423474 377.991636 33.1346386 378.296661zM82.6086957 387.478261C83.1609804 387.478261 83.6086957 387.925976 83.6086957 388.478261 83.6086957 389.030546 83.1609804 389.478261 82.6086957 389.478261L82.6086957 389.478261 66.9565217 389.478261C66.404237 389.478261 65.9565217 389.030546 65.9565217 388.478261 65.9565217 387.925976 66.404237 387.478261 66.9565217 387.478261L66.9565217 387.478261zM66.9565217 378.086957L82.6086957 378.086957C83.1609804 378.086957 83.6086957 378.534672 83.6086957 379.086957 83.6086957 379.599792 83.2226555 380.022464 82.7253168 380.080229L82.6086957 380.086957 66.9565217 380.086957C66.404237 380.086957 65.9565217 379.639241 65.9565217 379.086957 65.9565217 378.574121 66.3425619 378.151449 66.8399006 378.093684L66.9565217 378.086957 82.6086957 378.086957zM55 330L23.3435242 330C22.0492315 330 21 331.049232 21 332.343524L21 365.565 55 365.565 55 330zM88.6564758 330L57 330 57 365.565 91 365.565 91 332.343524C91 331.049232 89.9507685 330 88.6564758 330zM37.2173913 338.956522C37.7302271 338.956522 38.1528985 339.342562 38.2106636 339.839901L38.2173913 339.956522 38.217 346.782 45.0434783 346.782609C45.5563141 346.782609 45.9789854 347.168649 46.0367505 347.665988L46.0434783 347.782609C46.0434783 348.295445 45.6574381 348.718116 45.1600994 348.775881L45.0434783 348.782609 38.217 348.782 38.2173913 355.608696C38.2173913 356.16098 37.7696761 356.608696 37.2173913 356.608696 36.7045555 356.608696 36.2818841 356.222655 36.224119 355.725317L36.2173913 355.608696 36.217 348.782 29.3913043 348.782609C28.8784685 348.782609 28.4557972 348.396569 28.3980321 347.89923L28.3913043 347.782609C28.3913043 347.269773 28.7773445 346.847102 29.2746832 346.789336L29.3913043 346.782609 36.217 346.782 36.2173913 339.956522C36.2173913 339.404237 36.6651066 338.956522 37.2173913 338.956522zM82.6086957 346.782609C83.1609804 346.782609 83.6086957 347.230324 83.6086957 347.782609 83.6086957 348.295445 83.2226555 348.718116 82.7253168 348.775881L82.6086957 348.782609 66.9565217 348.782609C66.404237 348.782609 65.9565217 348.334893 65.9565217 347.782609 65.9565217 347.269773 66.3425619 346.847102 66.8399006 346.789336L66.9565217 346.782609 82.6086957 346.782609zM41.7679903 546.97593L44.4590019 554.602532 44.8875 554.59625C48.8735477 554.59625 53.0910907 556.758738 55.0899729 560.150642L55.2393157 560.413967C57.3716935 556.921159 61.1820447 554.694135 65.3976796 554.645004L65.5510019 554.646532 68.3387402 546.967602C68.5053631 546.508484 68.9755025 546.242529 69.4458186 546.322719L69.5632257 546.350067 75.0394757 547.975067C75.5984934 548.140947 75.8975898 548.747993 75.6885004 549.292326L75.6885004 549.292326 72.8953591 556.566489C72.8943711 556.654057 72.8817525 556.742679 72.8565033 556.830281L72.8171202 556.941904 64.3004538 577.239958C64.4139242 577.313867 64.5337283 577.393066 64.6596201 577.477566 65.4617252 578.015943 66.3530509 578.662516 67.3112914 579.418223 70.0424055 581.572089 72.7713393 584.172899 75.3186942 587.228868 81.4357426 594.567269 85.5340179 603.321241 86.6688547 613.514307 86.9946896 616.438659 87.3662775 618.069964 88.0989386 620.264234 88.060873 620.15023 88.5747164 621.668995 88.7240396 622.130555 88.9764994 622.910913 89.1934401 623.645183 89.4050004 624.454631 89.5613866 625.052978 89.1438968 625.637802 88.5464184 625.701751L88.4323781 625.707514 21.8073781 625.366237C21.1574133 625.362908 20.6832982 624.750136 20.8432549 624.120153 21.043161 623.33283 21.2504104 622.620678 21.4904601 621.876602 21.5840407 621.586533 21.6792032 621.301534 21.7999755 620.947205 21.8250669 620.873591 22.0345717 620.262174 22.0943583 620.085762 22.8243235 617.931861 23.1833841 616.379136 23.4998905 613.51435 24.634422 603.323948 28.7228271 594.561175 34.8236975 587.205557 37.3655065 584.140981 40.0885186 581.530866 42.8137134 579.367638 43.7698803 578.608644 44.6592762 577.959009 45.4596416 577.417875L45.6467091 577.292318 45.6467091 577.292318 45.8241387 577.175025 37.6224906 557.278949C37.4928615 557.172607 37.3883067 557.03224 37.3239996 556.864826L34.4152496 549.292326C34.2061602 548.747993 34.5052566 548.140947 35.0642743 547.975067L40.5405243 546.350067C41.0510577 546.198573 41.5907516 546.473753 41.7679903 546.97593zM44.8901796 556.596246C43.3753573 556.600306 41.8660398 556.753153 40.3838404 557.051761L39.7503354 557.188651 47.6972209 576.471095C48.3673831 576.730166 48.5704872 577.672706 47.9713111 578.167889L47.8699884 578.242194 47.5067727 578.47708C47.3462672 578.571433 47.0298527 578.770469 46.5798489 579.074721 45.8207181 579.587975 44.9723898 580.207613 44.0571613 580.934111 41.435512 583.015146 38.8116801 585.530193 36.3631014 588.482363 30.4980512 595.553661 26.5759712 603.959945 25.4877022 613.734813 25.154706 616.748857 24.7631832 618.441961 23.9885358 620.727706 23.9274489 620.907955 23.7171383 621.521722 23.6930314 621.592449 23.5755013 621.937266 23.483593 622.212518 23.3938585 622.490666L23.2539695 622.9333 23.2539695 622.9333 23.1211935 623.37294 87.1181583 623.700729C87.0241133 623.384982 86.9259312 623.070075 86.8211442 622.746176 86.6766761 622.299623 86.1676613 620.79513 86.2018933 620.897652 85.4260192 618.573963 85.0231805 616.805459 84.6811405 613.73565 83.5926727 603.958992 79.6619396 595.562886 73.7824281 588.509449 71.3289125 585.566055 68.6997707 583.060352 66.0728093 580.988625 65.1557234 580.265374 64.3056746 579.648743 63.5450076 579.13818 63.1504661 578.873361 62.8584163 578.688738 62.6562085 578.566878L62.5750116 578.518444 62.2500116 578.307194C61.5638834 577.86121 61.7014511 576.906021 62.3251765 576.580265L62.4276504 576.534227 70.5249282 557.235714C68.8430506 556.848032 67.1236154 556.649617 65.4066743 556.644932 61.2098475 556.69393 57.4854117 559.345823 56.0660861 563.295667 55.724592 564.246012 54.3500758 564.148829 54.1456949 563.15989 53.3592264 559.354397 48.9534738 556.596246 44.8901796 556.596246zM40.1983274 548.537804L36.6700561 549.584768 38.8460529 555.249654C40.2723615 554.788104 41.4054416 554.540438 42.2906036 554.465919L40.1983274 548.537804zM69.897387 548.535419L67.753612 554.442451C68.6521408 554.523223 69.8049799 554.777796 71.2578341 555.249297L71.2578341 555.249297 73.4336939 549.584768 69.897387 548.535419zM90.1001016 440.168205C94.6097336 440.189488 98.2761573 443.772794 98.4309064 448.254117L98.4358974 448.508718 98.4358974 500.066667C98.4358974 504.589575 94.8428472 508.274921 90.3506047 508.420191L90.0953846 508.424615 19.9333333 508.424615C15.4028466 508.424615 11.7142762 504.819943 11.5792162 500.322192L11.5753846 500.066667 11.5753846 462.370256C11.5753846 462.309163 11.5808632 462.249349 11.5913558 462.191279L11.5928205 448.504001C11.6141036 443.994369 15.1974098 440.327945 19.6787324 440.173196L19.9333333 440.168205 90.1001016 440.168205zM96.4353846 463.457205L13.5753846 463.457205 13.5753846 500.066667C13.5753846 503.50173 16.2995174 506.300541 19.7052941 506.420605L19.9333333 506.424618 90.0930149 506.424618C93.520624 506.416496 96.309462 503.6972 96.4317177 500.299365L96.4358974 500.066667 96.4353846 463.457205zM55.2410256 476.318974C55.9494177 476.347848 56.5697913 476.802788 56.8102564 477.469744L58.8153846 483.171282 60.8205128 477.469744C61.0713472 476.798095 61.7077579 476.348457 62.4246154 476.33641 62.6254546 476.335875 62.8252535 476.365258 63.0174359 476.42359 63.6335006 476.72502 64.0156256 477.35962 63.9938462 478.045128 64.0212951 478.230098 64.0212951 478.418107 63.9938462 478.603077L60.3497436 488.96C60.0867238 489.625493 59.4437894 490.062717 58.7282051 490.062717 58.0126209 490.062717 57.3696865 489.625493 57.1066667 488.96L55.1015385 483.22359 53.0964103 488.96C52.8395022 489.637317 52.1905574 490.08523 51.4661538 490.08523 50.7417503 490.08523 50.0928055 489.637317 49.8358974 488.96L46.1917949 478.603077C46.164346 478.418107 46.164346 478.230098 46.1917949 478.045128 46.1993962 477.317426 46.658163 476.670982 47.3425641 476.42359 47.5342513 476.363075 47.7343913 476.333643 47.9353846 476.33641 48.6522421 476.348457 49.2886528 476.798095 49.5394872 477.469744L51.5446154 483.171282 53.5323077 477.469744C53.7751342 476.797049 54.4041289 476.340855 55.1189744 476.318974L55.2410256 476.318974zM75.6235897 476.318974C76.3319818 476.347848 76.9523554 476.802788 77.1928205 477.469744L79.1979487 483.171282 81.2030769 477.469744C81.4539113 476.798095 82.090322 476.348457 82.8071795 476.33641 83.0080187 476.335875 83.2078176 476.365258 83.4 476.42359 84.00928 476.730034 84.3839586 477.363581 84.3589744 478.045128 84.3864233 478.230098 84.3864233 478.418107 84.3589744 478.603077L80.7148718 488.96C80.451852 489.625493 79.8089176 490.062717 79.0933333 490.062717 78.3777491 490.062717 77.7348147 489.625493 77.4717949 488.96L75.4666667 483.22359 73.4615385 488.96C73.2046304 489.637317 72.5556856 490.08523 71.8312821 490.08523 71.1068785 490.08523 70.4579337 489.637317 70.2010256 488.96L66.5569231 478.603077C66.5294742 478.418107 66.5294742 478.230098 66.5569231 478.045128 66.5645245 477.317426 67.0232912 476.670982 67.7076923 476.42359 67.8993795 476.363075 68.0995195 476.333643 68.3005128 476.33641 69.0173703 476.348457 69.653781 476.798095 69.9046154 477.469744L71.9097436 483.171282 73.8974359 477.469744C74.1425718 476.791234 74.7802562 476.333765 75.5015385 476.318974L75.6235897 476.318974zM34.6666667 476.301538C35.3750588 476.330412 35.9954323 476.785352 36.2358974 477.452308L38.2410256 483.153846 40.2461538 477.452308C40.4969882 476.780659 41.1333989 476.331021 41.8502564 476.318974 42.0510957 476.31844 42.2508946 476.347822 42.4430769 476.406154 43.1540896 476.637941 43.6381105 477.297332 43.6461538 478.045128 43.6736028 478.230098 43.6736028 478.418107 43.6461538 478.603077L39.8974359 488.96C39.6344161 489.625493 38.9914817 490.062717 38.2758974 490.062717 37.5603132 490.062717 36.9173788 489.625493 36.654359 488.96L34.6666667 483.206154 32.6615385 488.942564C32.4046304 489.619881 31.7556856 490.067794 31.0312821 490.067794 30.3068785 490.067794 29.6579337 489.619881 29.4010256 488.942564L25.7569231 478.585641C25.7294742 478.400671 25.7294742 478.212662 25.7569231 478.027692 25.7645245 477.29999 26.2232912 476.653546 26.9076923 476.406154 27.0993795 476.345639 27.2995195 476.316207 27.5005128 476.318974 28.2173703 476.331021 28.853781 476.780659 29.1046154 477.452308L31.1097436 483.153846 32.9230769 477.452308C33.1682128 476.773798 33.8058972 476.316329 34.5271795 476.301538L34.6666667 476.301538zM90.0953846 442.168194L19.9380503 442.168194C16.5182498 442.184325 13.7354684 444.89147 13.598066 448.276868L13.5928205 448.508718 13.5923846 461.370205 96.4353846 461.370205 96.4358974 448.511161C96.4185768 445.092384 93.7118557 442.310795 90.3271846 442.173438L90.0953846 442.168194zM87.5323077 448.770256C89.0730405 448.770256 90.3220513 450.019267 90.3220513 451.56 90.3220513 453.100733 89.0730405 454.349744 87.5323077 454.349744 85.9915749 454.349744 84.7425641 453.100733 84.7425641 451.56 84.7425641 450.019267 85.9915749 448.770256 87.5323077 448.770256zM78.4133333 448.770256C79.9540662 448.770256 81.2030769 450.019267 81.2030769 451.56 81.2030769 453.100733 79.9540662 454.349744 78.4133333 454.349744 76.8726005 454.349744 75.6235897 453.100733 75.6235897 451.56 75.6235897 450.019267 76.8726005 448.770256 78.4133333 448.770256zM69.2769231 448.770256C70.8176559 448.770256 72.0666667 450.019267 72.0666667 451.56 72.0666667 453.100733 70.8176559 454.349744 69.2769231 454.349744 67.7361902 454.349744 66.4871795 453.100733 66.4871795 451.56 66.4871795 450.019267 67.7361902 448.770256 69.2769231 448.770256zM58.4584031 219C60.5841721 219.001219 62.3197092 220.672741 62.4217968 222.771691L62.4265441 222.969682 62.4267481 230.249734C63.5748545 230.627205 64.7012883 231.089001 65.7963666 231.635122L65.8976223 231.528007 71.4504764 225.974248C72.9496919 224.475033 75.3479052 224.425059 76.906996 225.824269L77.0652167 225.974184 82.6201996 231.528262C84.1173059 233.026583 84.1672094 235.425383 82.76968 236.982831L82.6199447 237.140873 77.0652807 242.696442 77.023729 242.735206C77.6708961 243.996314 78.2052088 245.300393 78.6266673 246.632457L86.0305899 246.632823C88.1562586 246.632823 89.8921584 248.303943 89.9954125 250.403661L90.0002715 250.601727 89.9993665 258.457494C89.9993665 260.583454 88.3278327 262.319411 86.2286073 262.421524L86.0305899 262.426272 78.4694651 262.426759C78.0440585 263.683228 77.5171856 264.912913 76.8888464 266.103036 76.9304996 266.147985 76.982806 266.205627 77.0225012 266.248176L77.0653072 266.292996 82.6196519 271.846436C84.1174265 273.342995 84.1673523 275.741965 82.7697756 277.300611L82.6200352 277.458781 77.0650525 283.014668C75.5659076 284.512598 73.1681559 284.562529 71.6087002 283.164058L71.4504388 283.014222 65.898896 277.460867C65.7735933 277.33592 65.6575851 277.203604 65.5512656 277.064862 64.5143093 277.56815 63.450593 277.996157 62.3677709 278.349247L62.3673584 286.029413C62.3673584 288.15596 60.6962384 289.891886 58.5956948 289.995141L58.3975486 290 50.5420494 289.999095C48.4162802 289.997876 46.6807431 288.326354 46.5786573 286.227404L46.5739102 286.029413 46.5732279 278.3296C45.5250324 277.984896 44.4949044 277.569897 43.4902128 277.084604L43.3334244 277.273745 43.3334244 277.273745 43.1589637 277.459659 37.6043637 283.014259C36.1060744 284.512548 33.7081216 284.562491 32.1486614 283.16403L31.9904003 283.014195 26.4364507 277.45934C24.9383665 275.960041 24.8884304 273.560749 26.2869301 272.00457L26.4367693 271.846665 31.9904643 266.29297 32.1388657 266.155079C31.4881952 264.929853 30.9452939 263.662418 30.5101619 262.366755L22.9696816 262.366544C20.8440128 262.366544 19.1081131 260.695424 19.004859 258.595705L19 258.397639 19.0009049 250.541872C19.0009049 248.415912 20.672439 246.679955 22.7716642 246.577844L22.9696816 246.573096 30.3919344 246.573402C30.8145715 245.249173 31.3488989 243.952854 31.9949167 242.699198L31.9907094 242.695782 26.4357265 237.141704C24.9386202 235.643383 24.8887167 233.244584 26.2863039 231.687078L26.4360454 231.529029 31.9906453 225.974429C33.4899121 224.475162 35.8883569 224.425187 37.4463177 225.824387L37.6044166 225.974301 43.1607508 231.528828 43.2424964 231.616277C44.344433 231.069052 45.4779644 230.607099 46.6332442 230.230417L46.6330941 222.969682C46.6330941 220.843824 48.3043969 219.108102 50.4046575 219.004858L50.6027757 219 58.4584031 219zM48.7976134 278.949948L48.7975917 286.030051C48.7970669 286.944815 49.5025514 287.696218 50.3996504 287.769545L50.542815 287.775413 58.3976767 287.776318C59.3137335 287.776318 60.0650473 287.070653 60.1378886 286.172716L60.1436767 286.029413 60.1434367 278.963673C56.4126676 279.813115 52.5267108 279.80854 48.7976134 278.949948zM33.3026698 268.124454L28.0085113 273.419683C27.3676509 274.059504 27.3299533 275.076567 27.896004 275.762737L28.0092138 275.887343 33.562526 281.44156C34.2049078 282.083421 35.2217556 282.121178 35.9074655 281.555095L36.0319833 281.441879 41.4774628 275.996622C39.7408929 274.953013 38.1025886 273.68255 36.6052709 272.185233 35.3432639 270.923226 34.2423968 269.561111 33.3026698 268.124454zM72.3957246 272.185233C70.9084329 273.672524 69.2820364 274.935989 67.5584037 275.975628L73.0226286 281.441651C73.6650604 282.083562 74.6821288 282.121321 75.3683164 281.555248L75.4929268 281.442033 81.0472719 275.886783C81.6882317 275.245303 81.7259352 274.227925 81.1607017 273.543462L81.0476548 273.4192 75.7193006 268.091373C74.7750326 269.540201 73.6671739 270.91354 72.3957246 272.185233zM62.094 278.772L62.0510677 278.823239C61.98153 278.903302 61.9313981 278.954703 61.8824778 278.992452L61.9309185 278.96798C61.9871702 278.92408 62.0353358 278.867084 62.0907463 278.779953L62.094 278.772zM62.347667 278.354828L62.3187446 278.365178 62.3187446 278.365178 62.3624405 278.278675C62.2649625 278.467767 62.1938935 278.605425 62.1339022 278.708689L62.094 278.772 62.1071439 278.757583C62.1272384 278.733751 62.14883 278.707892 62.172203 278.679773L62.2479506 278.588401C62.3015724 278.487235 62.3312901 278.415826 62.347667 278.354828zM38.1776513 237.966254C31.9990988 244.144807 30.0549528 252.95393 32.345213 260.787956 32.3744851 260.85748 32.3964703 260.931129 32.4108223 261.008086 33.4767314 264.523444 35.3989726 267.834173 38.1776513 270.612852 45.5533842 277.988585 56.6798356 279.329377 65.4191704 274.63527 65.4439745 274.619628 65.4693792 274.60538 65.4954881 274.592075 67.4090894 273.556797 69.2063122 272.229884 70.8232689 270.612927 76.9266444 264.508383 78.8972464 255.835872 76.735075 248.073085 76.7288153 248.057864 76.7246273 248.041733 76.7207892 248.025446 75.6870601 244.341442 73.7209495 240.864434 70.8233253 237.966236 68.010226 235.153425 64.6515282 233.2184 61.0877597 232.161159L61.2053998 232.178293C61.1049424 232.169363 61.0087979 232.147336 60.9185003 232.114045 53.1057376 229.858292 44.3347948 231.8097 38.1776513 237.966254zM86.0305899 248.856504L79.2203934 248.856623C80.0377616 252.593231 80.0011406 256.479134 79.1105314 260.202359L86.0312274 260.20259C86.9459713 260.203114 87.6970746 259.497774 87.7698981 258.600552L87.7756848 258.457366 87.7765898 250.601599C87.7765898 249.686402 87.0709245 248.935131 86.1737633 248.862292L86.0305899 248.856504zM29.7925466 248.796574L22.9690437 248.796777C22.0543001 248.796252 21.3031968 249.501592 21.2303734 250.398814L21.2245866 250.542001 21.2236817 258.397767C21.2236817 259.312964 21.929347 260.064235 22.8265082 260.137074L22.9696816 260.142862 29.8749378 260.142364C28.993351 256.417446 28.965887 252.531527 29.7925466 248.796574zM73.1475672 227.433217L73.0229209 227.546564 67.811697 232.758638C69.4414682 233.768015 70.9814635 234.979748 72.3956869 236.393836 73.7399187 237.738326 74.9012954 239.196429 75.8798172 240.737238L81.0475003 235.568557C81.68821 234.927847 81.7258988 233.910296 81.1606201 233.224845L81.0475644 233.100387 75.4929003 227.546628C74.8505372 226.904265 73.8339082 226.866479 73.1475672 227.433217zM33.6876713 227.43346L33.5630257 227.546809 28.0084258 233.101409C27.3677161 233.742119 27.3300272 234.75967 27.8953059 235.445122L28.0083617 235.569579 33.1421453 240.703255C34.1163232 239.174985 35.2707109 237.728434 36.6053085 236.393836 38.029646 234.969635 39.5815605 233.750694 41.2242787 232.737013L36.0318457 227.546491C35.3903528 226.904477 34.3739928 226.866712 33.6876713 227.43346zM58.4577656 221.223682L50.6027757 221.223682C49.6868001 221.223682 48.9354132 221.92927 48.8625645 222.826497L48.8567758 222.969682 48.8565738 229.616278C52.587306 228.766766 56.4732525 228.771188 60.2023687 229.629545L60.2028612 222.969044C60.2033858 222.05428 59.4979011 221.302877 58.6009119 221.22955L58.4577656 221.223682zM73.3652174 763.86087C74.7858553 763.86087 76.1483075 764.425216 77.1528502 765.429758 78.094609 766.371517 78.6494763 767.627845 78.715156 768.951777L78.7217391 769.217391 78.721 770.44687 85 770.447826C85.5522847 770.447826 86 770.895541 86 771.447826L86 782.221739C86 782.774024 85.5522847 783.221739 85 783.221739L78.721 783.22087 78.721 786.62087 85 786.621739C85.5522847 786.621739 86 787.069454 86 787.621739L86 798.395652C86 798.947937 85.5522847 799.395652 85 799.395652L78.721 799.39487 78.721 802.78187 85 802.782609C85.5522847 802.782609 86 803.230324 86 803.782609L86 814.556522C86 815.108806 85.5522847 815.556522 85 815.556522L78.721 815.55587 78.7217391 818.782609C78.7217391 820.203247 78.1573929 821.565699 77.1528502 822.570242 76.2110915 823.512 74.9547637 824.066868 73.630832 824.132547L73.3652174 824.13913 29.3565217 824.13913C27.9358838 824.13913 26.5734316 823.574784 25.5688889 822.570242 24.6271301 821.628483 24.0722628 820.372155 24.0065831 819.048223L24 818.782609 24 769.217391C24 766.333024 26.2797855 763.981129 29.1357263 763.865337L29.3565217 763.86087 73.3652174 763.86087zM29.739 765.86087L29.3565217 765.86087C27.5645578 765.86087 26.1005744 767.265121 26.0049666 769.033228L26 769.217391 26 818.782609C26 819.672814 26.3536325 820.526558 26.9831025 821.156028 27.6125724 821.785498 28.4663168 822.13913 29.3565217 822.13913L29.7391304 822.13913 29.739 765.86087zM73.3652174 765.86087L31.739 765.86087 31.739 822.13887 73.3652174 822.13913C74.1812386 822.13913 74.9666228 821.841981 75.5767055 821.307604L75.7386367 821.156028C76.3156508 820.579014 76.6608848 819.813547 76.7144168 819.004292L76.7217391 818.782609 76.7217391 769.217391C76.7217391 768.327186 76.3681066 767.473442 75.7386367 766.843972 75.1091667 766.214502 74.2554223 765.86087 73.3652174 765.86087zM84 804.782609L78.7217391 804.782609 78.7217391 813.556522 84 813.556522 84 804.782609zM84 788.621739L78.7217391 788.621739 78.7217391 797.395652 84 797.395652 84 788.621739zM65.3956522 777.726087C65.9479369 777.726087 66.3956522 778.173802 66.3956522 778.726087L66.3956522 789.930435C66.3956522 790.48272 65.9479369 790.930435 65.3956522 790.930435L42.4391304 790.930435C41.8868457 790.930435 41.4391304 790.48272 41.4391304 789.930435L41.4391304 778.726087C41.4391304 778.173802 41.8868457 777.726087 42.4391304 777.726087L65.3956522 777.726087zM64.3956522 779.726087L43.4391304 779.726087 43.4391304 788.930435 64.3956522 788.930435 64.3956522 779.726087zM84 772.447826L78.7217391 772.447826 78.7217391 781.221739 84 781.221739 84 772.447826zM69.2195148 864.176845C73.3532445 865.396073 75.9602533 869.470685 75.3348998 873.734858 75.0160469 875.909059 73.9063974 877.794774 72.3239825 879.118448L89.8608696 879.118029C91.3630841 879.118029 92.5808696 880.335814 92.5808696 881.838029L92.5808696 897.117333C92.5808696 898.619548 91.3630841 899.837333 89.8608696 899.837333L86.4886667 899.836869 86.4892754 933.159255C86.4747367 934.425789 85.493567 935.459125 84.238581 935.55639L84.0733913 935.56371 26.0056812 935.56371C24.7287234 935.56371 23.6795198 934.579186 23.5807649 933.314338L23.5733333 933.147826 23.5726667 899.836869 20.2346667 899.837333C18.7324521 899.837333 17.5146667 898.619548 17.5146667 897.117333L17.5146667 881.838029C17.5146667 880.335814 18.7324521 879.118029 20.2346667 879.118029L37.2776457 879.118387C35.6887828 877.789317 34.5769729 875.893911 34.2631226 873.710217 33.6506694 869.448916 36.2630524 865.385209 40.3940265 864.173255 44.5250006 862.961301 48.9187801 864.969524 50.705623 868.88628 50.7331601 868.946641 50.7541926 869.008311 50.7690148 869.070502L50.8056138 869.053576 54.7766667 877.826869 58.7636221 869.052384 58.8295779 869.083609C58.8445098 869.016974 58.8665318 868.950872 58.8960047 868.88627 60.6848387 864.965261 65.0857851 862.957618 69.2195148 864.176845zM53.7346667 899.836869L25.5726667 899.836869 25.5732673 933.136332C25.5756871 933.346841 25.7282725 933.520793 25.9285441 933.55685L26.0056812 933.56371 53.7346667 933.562869 53.7346667 899.836869zM84.4886667 899.836869L55.7346667 899.836869 55.7346667 933.562869 84.0619624 933.563775C84.2675116 933.561426 84.4385055 933.415832 84.4797972 933.229753L84.4892754 933.147826 84.4886667 899.836869zM42.2949976 881.118092L20.2346667 881.118029C19.8370216 881.118029 19.5146667 881.440384 19.5146667 881.838029L19.5146667 897.117333C19.5146667 897.514978 19.8370216 897.837333 20.2346667 897.837333L53.7346667 897.836869 53.7346667 881.117869 43.0027723 881.119925C42.947207 881.129502 42.8900722 881.134493 42.8317716 881.134493 42.6516439 881.134514 42.472661 881.128997 42.2949976 881.118092zM89.8608696 881.118029L67.3002041 881.118721C67.1124123 881.13011 66.9231576 881.135478 66.7326473 881.134644 66.6753945 881.134383 66.6192867 881.129317 66.5647044 881.119829L55.7346667 881.117869 55.7346667 897.836869 89.8608696 897.837333C90.2585146 897.837333 90.5808696 897.514978 90.5808696 897.117333L90.5808696 881.838029C90.5808696 881.440384 90.2585146 881.118029 89.8608696 881.118029zM40.95706 866.092368C37.7806007 867.024284 35.7718425 870.149019 36.2427804 873.425691 36.6916109 876.548545 39.2627545 878.904645 42.3688492 879.118629L53.1666667 879.117869 48.9872789 869.890098C48.9485065 869.836735 48.9144672 869.778723 48.8860292 869.716387 47.5120594 866.704649 44.1335193 865.160451 40.95706 866.092368zM60.7155895 869.716397C60.6699355 869.816468 60.6098466 869.905394 60.538914 869.981834L56.3876667 879.117869 67.234695 879.118654C70.3315739 878.904402 72.8992575 876.559552 73.3560661 873.444656 73.8369236 870.165776 71.8322978 867.032655 68.6537196 866.095146 65.4751414 865.157636 62.0910904 866.701388 60.7155895 869.716397zM34.1950464 118C34.2704532 118 34.3439106 118.008346 34.4145451 118.024166 34.4848753 118.008346 34.5583327 118 34.6337395 118 45.1096362 118 51.4008446 128.381245 47.7179463 140.737034 47.6133088 141.112445 47.3983528 141.740129 47.0575301 142.537498 46.4927037 143.858935 45.7707723 145.18019 44.8732784 146.418378 44.208427 147.335611 43.4829393 148.161087 42.6954855 148.881846 47.9668956 150.849333 52.426237 154.389381 55.5900114 158.92092L55.4614721 159.108234C58.804219 154.142599 63.7673707 150.426304 69.5443741 148.560267 68.8858838 147.919801 68.2729046 147.202732 67.7042592 146.4186 66.8063406 145.180417 66.0840643 143.859162 65.5189671 142.537723 65.1779788 141.740346 64.962917 141.112653 64.8689233 140.772996 64.3840055 139.255445 64.0614419 137.694131 63.903022 136.118374 63.0212599 141.110283 62.5148021 146.155939 62.3897882 151.219128 62.376156 151.771244 61.9175261 152.207772 61.3654097 152.19414 60.8132932 152.180508 60.3767654 151.721878 60.3903976 151.169761 60.5898006 143.093735 61.7407722 135.061801 63.8229288 127.215725 63.8284894 127.194771 63.8346755 127.17415 63.8414616 127.153876 63.8444295 127.145109 63.8478415 127.135421 63.8514124 127.125753 65.8987562 121.582596 71.6500493 117.90472 78.0351852 118.001765L78.3869969 118.001765C78.4651965 118.001765 78.5412997 118.010741 78.6143322 118.027719 78.6846368 118.010129 78.7581491 118.001131 78.8336886 118.000491 85.1155621 117.947326 90.5473059 122.207035 92.2696675 128.208878 92.5782618 128.299744 92.8377711 128.540019 92.9401362 128.872052 95.3593212 136.718945 96.5137449 144.802146 96.3723199 152.906337 96.3626835 153.458538 95.9072246 153.898373 95.3550239 153.888892 95.2958596 153.887843 95.2379851 153.881678 95.1818152 153.870826 100.215378 158.242179 103.639403 164.410558 104.606149 171.339197L104.68734 171.973339 104.759955 172.615963 104.765487 172.721008 104.765774 172.814551C104.767999 173.215536 104.783525 174.127245 104.823914 176.344651 104.864138 178.553008 104.879813 179.476417 104.882063 179.900251L104.882353 180C104.882353 180.512836 104.496313 180.935507 103.998974 180.993272L103.882353 181 7 181C6.44771525 181 6 180.552285 6 180 6 177.352806 6.14118582 172.128965 6.31533828 170.981801 7.87672856 160.525015 15.0365862 151.852351 24.841961 148.552239 24.9797246 148.505873 25.1205156 148.49121 25.2564094 148.504318 24.703568 147.960175 24.1843938 147.360098 23.6978292 146.711314L23.4803786 146.415122C22.5896193 145.175784 21.8771164 143.853362 21.3231904 142.530769 20.9889206 141.732643 20.779589 141.104259 20.6865071 140.75639 20.05158 138.64399 19.7098797 136.589694 19.6323029 134.635216 19.5913038 134.485789 19.5856309 134.325869 19.6191922 134.168784 19.4507681 125.020405 25.1152598 118.169706 33.5519271 118.003106L33.8673476 118 34.1950464 118zM70.8656327 149.701399C70.7977378 150.042889 70.5502762 150.337699 70.1945298 150.452036 64.8269903 152.177166 60.2188736 155.622587 57.1205713 160.2251 57.0055042 160.396031 56.846867 160.520086 56.6693949 160.592432 58.4868254 163.628962 59.7522995 167.043125 60.3404945 170.681755 60.5087923 171.771545 60.6539363 176.154888 60.6844924 179.000709L102.870342 179C102.862026 178.481079 102.84893 177.739983 102.829656 176.678566L102.824246 176.381073C102.781783 174.049835 102.766867 173.168384 102.76558 172.774849 102.723466 172.380682 102.676396 171.991928 102.624826 171.61186 101.246506 161.733533 94.4979675 153.524427 85.2359986 150.44905 85.1493192 150.420269 85.0692124 150.380768 84.9966618 150.33251 83.0924541 151.530181 80.8933122 152.194444 78.3869969 152.194444L77.9999758 152.189113C75.2492662 152.112965 72.8772851 151.223968 70.8656327 149.701399zM26.1418102 149.312581L26.1568106 149.406757C26.1995003 149.858515 25.9285789 150.29676 25.4799211 150.447761 16.3914383 153.506595 9.74469916 161.557724 8.2930458 171.279571 8.16283137 172.137325 8.04158708 176.040413 8.00871491 178.734753L8.00572521 179 31.406 178.999539 28.2832902 174.64359C28.1207404 174.416885 28.0602741 174.132587 28.1164937 173.859353L29.9336573 165.027703C29.9596139 164.90155 30.0096958 164.7816 30.0811505 164.674444L31.566803 162.446504 29.3636758 157.067577C29.2235348 156.725423 29.283625 156.333864 29.5199167 156.049479L32.6770091 152.249815C32.7161251 152.202738 32.7584827 152.160266 32.8034478 152.122399 30.2291466 151.865453 28.0148464 150.874867 26.1418102 149.312581zM40.8989518 150.268355C38.9734936 151.506957 36.7430975 152.194444 34.1950464 152.194444L34.187 152.193539 34.1638408 152.192413C34.1815447 152.210719 34.198714 152.229853 34.2153005 152.249815L37.3723928 156.049479C37.6086846 156.333864 37.6687747 156.725423 37.5286338 157.067577L35.3255066 162.446504 36.811159 164.674444C36.8867278 164.787769 36.9383482 164.915339 36.9628538 165.049327L38.5781104 173.880977C38.6267927 174.147155 38.5655272 174.421699 38.4083017 174.641927L35.297 178.999539 58.6841399 179C58.6531651 176.245549 58.5119411 171.945437 58.3650255 170.99396 56.818414 161.42662 50.2343009 153.534522 41.2761851 150.499185 41.1298867 150.449614 41.0025751 150.369497 40.8989518 150.268355zM33.4461548 163.233106L31.8533187 165.621782 30.1636464 173.833808 33.3526223 178.281411 36.5345839 173.824379 35.0326337 165.612249 33.4461548 163.233106zM33.4461548 154.453654L31.4421721 156.865513 33.4461548 161.75823 35.4501375 156.865513 33.4461548 154.453654zM92.8330618 136.477018L92.8159471 136.627543C92.6447555 138.025413 92.3439644 139.404472 91.9157308 140.743008 91.81103 141.118269 91.5959557 141.745668 91.2549518 142.542661 90.6898345 143.863452 89.9675339 145.184057 89.0695876 146.421626 88.3976591 147.347692 87.6638341 148.180169 86.8667426 148.905706 89.6402186 149.948114 92.1875954 151.422802 94.4394615 153.245148 94.393606 153.129398 94.3703255 153.003172 94.3726243 152.871441 94.468563 147.373789 93.9520728 141.885591 92.8330618 136.477018zM34.4142407 119.975834L34.3116676 119.993272 34.1950464 120 33.8673476 120C26.601926 120 21.6300098 125.720477 21.6128311 133.711562 22.0494056 133.876476 22.5510452 134.042009 23.1083001 134.197441 27.4113368 135.39766 32.0190285 135.309757 36.3212085 133.07592 38.3429128 132.026183 40.2221018 130.523641 41.9325953 128.517801 42.2909537 128.097566 42.9221286 128.047405 43.3423639 128.405763 43.7625991 128.764122 43.8127601 129.395297 43.4544017 129.815532 41.5776654 132.016319 39.4951446 133.681439 37.2428431 134.85091 32.4279269 137.350977 27.3196569 137.44843 22.5709631 136.123906 22.2664439 136.038969 21.9837064 135.953756 21.7240927 135.870308 21.8710857 137.266489 22.1619139 138.718293 22.6098887 140.208902 22.6274571 140.274247 22.6688056 140.412606 22.7356849 140.613368 22.8501358 140.956933 22.99367 141.342077 23.167932 141.758157 23.6668663 142.949448 24.3088092 144.14091 25.1044186 145.247863 27.3397487 148.35794 30.3121263 150.194444 34.1786615 150.194444L34.1950464 150.194444C38.0265671 150.194444 40.9980005 148.356912 43.253938 145.244607 44.0571412 144.136504 44.708791 142.943875 45.2184833 141.751428 45.396507 141.334934 45.5436611 140.949389 45.6614521 140.605432 45.7303138 140.404352 45.7730874 140.265688 45.7963277 140.182901 49.1268256 129.008879 43.6672941 120 34.6337395 120 34.5583327 120 34.4848753 119.991654 34.4142407 119.975834zM78.6182934 119.975311L78.5038687 119.995032 78.3869969 120.001765 78.0200064 120.00165C77.8761208 119.999465 77.7326374 119.999454 77.5896015 120.001587 71.7722618 120.118523 66.8627167 124.577913 66.0451813 130.585101 65.881403 131.620357 65.7965472 132.663815 65.7902576 133.707316 66.2315989 133.873254 66.7375733 134.040497 67.3002506 134.197441 71.6032873 135.39766 76.210979 135.309757 80.513159 133.07592 82.5348633 132.026183 84.4140523 130.523641 86.1245457 128.517801 86.4829042 128.097566 87.1140791 128.047405 87.5343143 128.405763 87.9545496 128.764122 88.0047106 129.395297 87.6463521 129.815532 85.7696159 132.016319 83.687095 133.681439 81.4347936 134.85091 76.6198774 137.350977 71.5116074 137.44843 66.7629135 136.123906 66.4477164 136.03599 66.1558553 135.94778 65.8888185 135.861536 66.0324889 137.326554 66.3313789 138.780224 66.784723 140.200006 66.8030257 140.265639 66.8458174 140.404296 66.9147091 140.605368 67.0325531 140.949315 67.1797738 141.33485 67.3578783 141.751335 67.8678048 142.943761 68.5197555 144.136371 69.3233334 145.244463 71.509858 148.259565 74.3682675 150.078348 78.0301123 150.189078L78.3869969 150.194444C82.2207548 150.194444 85.1937739 148.357776 87.4508074 145.247083 88.2543576 144.139613 88.906284 142.947675 89.4161904 141.755923 89.5942866 141.339677 89.7414998 140.954365 89.859337 140.610618L89.9302607 140.397812C89.9602471 140.304769 89.9826114 140.230558 90.0000143 140.169741 90.9861338 137.085303 91.236167 133.801372 90.7254987 130.573412 89.9023312 124.468984 84.8163627 119.949929 78.8506147 120.00042 78.7707156 120.001096 78.6929259 119.992383 78.6182934 119.975311zM77.9053497 117.999769L77.926 118.000539 78.0351852 118.001765 77.8022771 117.999539 77.9053497 117.999769zM54.4147888.759615385C59.0089397.759615385 62.762411 4.35740483 63.0059244 8.88725012L71.1429226 8.8875C71.6557585 8.8875 72.0784298 9.27354019 72.1361949 9.77087887L72.1429226 9.8875 72.1423327 13.4146154 82.1530762 13.4148077C83.7544711 13.4148077 85.0638609 14.6657626 85.1553462 16.243581L85.1604522 16.4201923 85.1604522 77.6148077C85.1604522 79.2155706 83.9082551 80.5236956 82.3297602 80.6150913L82.1530762 80.6201923 26.6917088 80.6201923C25.0903139 80.6201923 23.780924 79.3692374 23.6894388 77.791419L23.6843327 77.6148077 23.6843327 16.4201923C23.6843327 14.8194294 24.9365299 13.5113044 26.5150247 13.4199087L26.6917088 13.4148077 36.6863327 13.4146154 36.686655 9.8875C36.686655 9.37466416 37.0726951 8.95199284 37.5700338 8.89422773L37.686655 8.8875 45.8236531 8.88725012C46.0671666 4.35740483 49.8206379.759615385 54.4147888.759615385zM36.6863327 15.4146154L26.6917088 15.4148077C26.1722337 15.4148077 25.744909 15.8071111 25.6902411 16.3106833L25.6843327 16.4201923 25.6843327 77.6148077C25.6843327 78.1328416 26.0770258 78.5596806 26.5819054 78.6142901L26.6917088 78.6201923 82.1530762 78.6201923C82.6725513 78.6201923 83.099876 78.2278889 83.1545438 77.7243167L83.1604522 77.6148077 83.1604522 16.4201923C83.1604522 15.9021584 82.7677592 15.4753194 82.2628796 15.4207099L82.1530762 15.4148077 72.1423327 15.4146154 72.1429226 19.3371154C72.1429226 19.8499512 71.7568824 20.2726225 71.2595437 20.3303877L71.1429226 20.3371154 37.686655 20.3371154C37.1738191 20.3371154 36.7511478 19.9510752 36.6933827 19.4537365L36.686655 19.3371154 36.6863327 15.4146154zM40.6368895 60.9944231C42.7953842 60.9944231 44.5451898 62.7424928 44.5451898 64.8988462 44.5451898 67.0551995 42.7953842 68.8032692 40.6368895 68.8032692 38.4783948 68.8032692 36.7285891 67.0551995 36.7285891 64.8988462 36.7285891 62.7424928 38.4783948 60.9944231 40.6368895 60.9944231zM73.0255434 62.5416667C73.5778281 62.5416667 74.0255434 62.9893819 74.0255434 63.5416667 74.0255434 64.0545025 73.6395032 64.4771738 73.1421645 64.5349389L73.0255434 64.5416667 52.8275887 64.5416667C52.2753039 64.5416667 51.8275887 64.0939514 51.8275887 63.5416667 51.8275887 63.0288308 52.2136289 62.6061595 52.7109676 62.5483944L52.8275887 62.5416667 73.0255434 62.5416667zM40.6368895 45.7565385C42.7953842 45.7565385 44.5451898 47.5046082 44.5451898 49.6609615 44.5451898 51.8173149 42.7953842 53.5653846 40.6368895 53.5653846 38.4783948 53.5653846 36.7285891 51.8173149 36.7285891 49.6609615 36.7285891 47.5046082 38.4783948 45.7565385 40.6368895 45.7565385zM73.0255434 49.375C73.5778281 49.375 74.0255434 49.8227153 74.0255434 50.375 74.0255434 50.8878358 73.6395032 51.3105072 73.1421645 51.3682723L73.0255434 51.375 52.8275887 51.375C52.2753039 51.375 51.8275887 50.9272847 51.8275887 50.375 51.8275887 49.8621642 52.2136289 49.4394928 52.7109676 49.3817277L52.8275887 49.375 73.0255434 49.375zM73.0255434 36.2083333C73.5778281 36.2083333 74.0255434 36.6560486 74.0255434 37.2083333 74.0255434 37.7211692 73.6395032 38.1438405 73.1421645 38.2016056L73.0255434 38.2083333 52.8275887 38.2083333C52.2753039 38.2083333 51.8275887 37.7606181 51.8275887 37.2083333 51.8275887 36.6954975 52.2136289 36.2728262 52.7109676 36.2150611L52.8275887 36.2083333 73.0255434 36.2083333zM48.5982742 27.8065135C48.9585792 28.1671763 48.9860273 28.734421 48.6808077 29.1265608L48.5975724 29.2207268 40.5984829 37.2118807C40.2375642 37.5724414 39.6698335 37.5996379 39.2777114 37.293852L39.1835607 37.2104686 35.3817121 33.3971994C34.9917739 33.0060898 34.9927235 32.3729256 35.383833 31.9829874 35.7448572 31.6230445 36.3121292 31.5961657 36.7039625 31.9017785L36.798045 31.9851083 39.8931392 35.0895001 47.1840608 27.8058116C47.5747789 27.4154812 48.2079438 27.4157954 48.5982742 27.8065135zM54.4147888 2.75961538C50.7674455 2.75961538 47.8110916 5.71303637 47.8110916 9.35576923 47.8110916 9.438685 47.8010002 9.5192438 47.7819787 9.59628445 47.8111638 9.68794618 47.826299 9.78595558 47.826299 9.8875 47.826299 10.4003358 47.4402588 10.8230072 46.9429201 10.8807723L46.826299 10.8875 38.686655 10.8875 38.686655 18.3371154 70.1429226 18.3371154 70.1429226 10.8875 62.0336934 10.8875C61.4814086 10.8875 61.0336934 10.4397847 61.0336934 9.8875 61.0336934 9.80458423 61.0437847 9.72402543 61.0628063 9.64698478 61.0336212 9.55532305 61.018486 9.45731365 61.018486 9.35576923 61.018486 5.71303637 58.0621321 2.75961538 54.4147888 2.75961538zM85.6162264 974.892308C86.1685112 974.892308 86.6162264 975.340023 86.6162264 975.892308 86.6162264 982.136074 89.2871291 985.967595 94.2638412 986.03085 94.7720332 986.037309 95.1877266 986.422017 95.2445185 986.915164L95.2511321 987.030769 95.2511321 1023.27692C95.2511321 1023.82425 94.8111249 1024.26989 94.2638412 1024.27684 89.2750741 1024.34025 86.6162264 1028.14354 86.6162264 1034.41538 86.6162264 1034.92822 86.2301862 1035.35089 85.7328475 1035.40866L85.6162264 1035.41538 22.9558491 1035.41538C22.4035643 1035.41538 21.9558491 1034.96767 21.9558491 1034.41538 21.9558491 1028.10989 19.3111414 1024.27692 14.3209434 1024.27692 13.8081076 1024.27692 13.3854362 1023.89088 13.3276711 1023.39354L13.3209434 1023.27692 13.3209434 987.030769C13.3209434 986.483441 13.7609505 986.037806 14.3082342 986.03085 19.2970014 985.967442 21.9558491 982.164154 21.9558491 975.892308 21.9558491 975.379472 22.3418892 974.956801 22.8392279 974.899035L22.9558491 974.892308 85.6162264 974.892308zM84.6384358 976.892308L23.9338695 976.892308C23.6572824 983.087428 20.775961 987.29731 15.6102741 987.944626L15.3209434 987.976913 15.3209434 1022.31963C20.58902 1022.77959 23.5482766 1026.92081 23.9166648 1033.07757L23.9341875 1033.41538 84.638206 1033.41538C84.914793 1027.22026 87.7961145 1023.01038 92.9618013 1022.36307L93.2511321 1022.33078 93.2511321 987.976546C87.9131635 987.449164 84.9219303 983.178412 84.6384358 976.892308zM74.9028302 984.292308C75.0378073 984.292308 75.1665385 984.31905 75.2840145 984.367525L76.0804717 984.369231C79.7890638 984.369231 82.7954717 987.375639 82.7954717 991.084231L82.7954717 1019.22346C82.7954717 1022.93205 79.7890638 1025.93846 76.0804717 1025.93846L32.2623585 1025.93846C28.5537664 1025.93846 25.5473585 1022.93205 25.5473585 1019.22346L25.5473585 991.084231C25.5473585 987.375639 28.5537664 984.369231 32.2623585 984.369231L33.2579165 984.367351C33.3752789 984.318986 33.5038636 984.292308 33.6386792 984.292308 33.7734949 984.292308 33.9020796 984.318986 34.019442 984.367351L74.5216458 984.367525C74.6391218 984.31905 74.767853 984.292308 74.9028302 984.292308zM32.6379434 986.368308L32.2623585 986.369231C29.6583359 986.369231 27.5473585 988.480208 27.5473585 991.084231L27.5473585 1019.22346C27.5473585 1021.82748 29.6583359 1023.93846 32.2623585 1023.93846L32.6379434 1023.93831 32.6379434 986.368308zM73.9019434 986.368308L34.6379434 986.368308 34.6379434 1023.93831 73.9019434 1023.93831 73.9019434 986.368308zM76.0804717 986.369231L75.9019434 986.368308 75.9019434 1023.93831 76.0804717 1023.93846C78.6844943 1023.93846 80.7954717 1021.82748 80.7954717 1019.22346L80.7954717 991.084231C80.7954717 988.480208 78.6844943 986.369231 76.0804717 986.369231zM59.4863051 996.934128C61.9159765 997.537759 63.6196216 999.731561 63.6153513 1002.24563 63.6189624 1003.57283 63.1419434 1004.85302 62.2689288 1005.85887L62.0890711 1006.05632 54.9977503 1013.24093C54.6371335 1013.60629 54.0653053 1013.63527 53.6711929 1013.32725L53.5765923 1013.24322 46.4081963 1006.0268C44.9458811 1004.48578 44.5081843 1002.23093 45.2861461 1000.25048 46.0649365 998.26791 47.9202741 996.921263 50.0385639 996.803507 51.6412264 996.714414 53.1714509 997.341162 54.2508234 998.467591 55.5692862 997.076816 57.5574833 996.454929 59.4863051 996.934128zM55.1429357 1000.63011C54.7707214 1001.34684 53.7463265 1001.3495 53.370406 1000.6347 52.742939 999.441593 51.4853017 998.72617 50.1495732 998.800424 48.8134771 998.874698 47.6410818 999.72565 47.1476729 1000.98172 46.6794479 1002.17368 46.9044452 1003.52247 47.704401 1004.47815L47.8430303 1004.6337 54.2837572 1011.11724 60.6543836 1004.66297C61.2218265 1004.06916 61.5588595 1003.29231 61.6088688 1002.47361L61.6153489 1002.2494C61.6188317 1000.64719 60.5393434 999.256545 59.0040816 998.875123 57.4707097 998.49417 55.8763978 999.217755 55.1429357 1000.63011z"/>
</svg>
